<?xml version="1.0" standalone="no"?>
<!DOCTYPE svg PUBLIC "-//W3C//DTD SVG 20010904//EN"
 "http://www.w3.org/TR/2001/REC-SVG-20010904/DTD/svg10.dtd">
<svg version="1.0" xmlns="http://www.w3.org/2000/svg"
 width="1024.000000pt" height="1536.000000pt" viewBox="0 0 1024.000000 1536.000000"
 preserveAspectRatio="xMidYMid meet">

<g transform="translate(0.000000,1536.000000) scale(0.100000,-0.100000)"
fill="#000000" stroke="none">
<path d="M5195 15098 c-16 -6 -38 -14 -47 -19 -10 -5 -27 -9 -37 -9 -11 0 -23
-4 -26 -10 -3 -5 -14 -10 -23 -10 -22 0 -197 -87 -212 -106 -7 -8 -18 -14 -24
-14 -6 0 -51 -40 -99 -88 -85 -86 -157 -197 -157 -243 0 -10 -4 -21 -10 -24
-5 -3 -10 -17 -10 -30 0 -13 -4 -27 -10 -30 -5 -3 -10 -17 -10 -30 0 -13 -4
-27 -10 -30 -5 -3 -10 -16 -10 -29 0 -12 -4 -26 -9 -31 -5 -6 -11 -26 -13 -45
-3 -32 -6 -36 -38 -40 l-35 -5 45 -33 c26 -19 50 -47 56 -65 17 -48 7 -61 -24
-32 -58 55 -202 165 -284 219 -83 54 -108 76 -73 62 8 -3 15 -1 15 4 0 13 -27
13 -35 0 -7 -11 52 -70 106 -105 43 -28 57 -47 136 -185 64 -113 98 -190 84
-190 -5 0 -23 21 -40 48 -17 26 -31 44 -31 41 0 -13 31 -67 45 -79 8 -7 15
-22 15 -35 0 -12 9 -30 20 -40 12 -11 20 -31 20 -49 0 -33 -61 -166 -85 -186
-8 -7 -15 -18 -15 -25 0 -6 -9 -20 -20 -30 -11 -10 -20 -26 -20 -37 0 -10 -4
-18 -10 -18 -5 0 -10 -9 -10 -19 0 -10 -6 -21 -14 -24 -17 -7 -46 -63 -46 -91
0 -19 3 -18 25 9 14 17 33 44 41 60 18 34 84 105 97 105 10 0 -17 -40 -86
-124 -27 -34 -69 -101 -93 -150 -42 -85 -44 -94 -44 -178 0 -90 14 -144 46
-179 17 -19 14 -35 -19 -109 -24 -51 -24 -53 -26 -97 -1 -27 -7 -35 -38 -49
-42 -19 -103 -72 -103 -89 0 -6 -12 -22 -26 -36 -14 -13 -34 -42 -44 -64 -10
-22 -30 -51 -44 -64 -19 -18 -26 -35 -26 -62 0 -21 5 -41 10 -44 6 -3 10 -28
10 -54 0 -38 -5 -52 -25 -71 -28 -26 -75 -115 -75 -141 0 -10 -4 -21 -10 -24
-5 -3 -10 -17 -10 -30 0 -13 -4 -27 -10 -30 -5 -3 -10 -17 -10 -30 0 -13 -4
-27 -10 -30 -5 -3 -10 -17 -10 -30 0 -13 -4 -27 -10 -30 -5 -3 -10 -21 -10
-40 0 -19 -4 -37 -10 -40 -5 -3 -10 -26 -10 -50 0 -24 -4 -47 -10 -50 -5 -3
-10 -17 -10 -30 0 -13 -4 -27 -10 -30 -5 -3 -10 -19 -10 -35 0 -16 -9 -45 -20
-65 -11 -20 -20 -41 -20 -49 0 -7 -22 -57 -50 -111 -27 -54 -50 -106 -50 -116
0 -10 -4 -21 -10 -24 -18 -11 -11 -70 15 -121 13 -27 49 -74 80 -104 l55 -54
0 -88 c0 -48 -4 -90 -10 -93 -5 -3 -10 -26 -10 -50 0 -24 -4 -47 -10 -50 -5
-3 -10 -30 -10 -60 0 -30 -4 -57 -10 -60 -6 -3 -10 -21 -10 -40 0 -19 -4 -37
-10 -40 -5 -3 -10 -19 -10 -36 0 -16 -4 -29 -10 -29 -5 0 -10 -9 -10 -20 0
-11 -4 -20 -10 -20 -5 0 -10 -9 -10 -20 0 -11 -4 -20 -10 -20 -5 0 -10 -6 -10
-13 0 -8 -9 -22 -20 -32 -11 -10 -20 -25 -20 -34 0 -9 -9 -23 -20 -31 -11 -8
-20 -19 -20 -26 0 -6 -9 -19 -20 -29 -11 -10 -20 -24 -20 -30 0 -7 -7 -18 -15
-25 -9 -7 -23 -29 -32 -49 -23 -50 -43 -71 -68 -71 -25 0 -65 -39 -65 -63 0
-9 -9 -32 -20 -52 -11 -20 -20 -49 -20 -65 0 -16 -5 -32 -10 -35 -5 -3 -10
-15 -10 -25 0 -11 -9 -35 -20 -55 -11 -20 -20 -47 -20 -60 0 -13 -9 -40 -20
-60 -11 -20 -20 -47 -20 -60 0 -13 -9 -40 -20 -60 -11 -20 -20 -44 -20 -55 0
-10 -4 -22 -10 -25 -6 -3 -10 -19 -10 -35 0 -16 -9 -45 -20 -65 -11 -20 -20
-44 -20 -55 0 -10 -4 -22 -10 -25 -5 -3 -10 -17 -10 -30 0 -13 -4 -27 -10 -30
-5 -3 -10 -14 -10 -24 0 -48 -50 -103 -63 -68 -2 7 -8 8 -13 3 -5 -5 -4 -11 4
-13 15 -6 17 -109 2 -118 -5 -3 -10 -15 -10 -25 0 -11 -9 -35 -20 -55 -11 -20
-20 -41 -20 -48 0 -18 -109 -234 -126 -248 -8 -6 -14 -16 -14 -22 0 -6 -10
-21 -22 -34 l-21 -23 20 -22 c11 -13 19 -34 19 -48 -1 -29 -120 -272 -141
-290 -8 -7 -15 -22 -15 -34 0 -12 -13 -35 -30 -51 -21 -20 -30 -38 -30 -61 0
-18 -5 -36 -10 -39 -6 -3 -10 -17 -10 -30 0 -13 -4 -27 -10 -30 -5 -3 -10 -30
-10 -58 0 -50 -3 -55 -50 -102 -39 -38 -50 -56 -50 -80 0 -23 -10 -41 -38 -68
-53 -51 -94 -51 -145 1 -20 21 -37 43 -37 48 0 6 -9 19 -20 29 -11 10 -20 24
-20 30 0 7 -7 18 -15 25 -16 13 -65 108 -65 126 0 7 -14 38 -30 69 -18 35 -30
72 -30 95 0 22 -4 42 -10 45 -6 4 -10 55 -10 120 0 65 -4 116 -10 120 -6 3
-10 17 -10 30 0 13 -5 27 -10 30 -6 3 -10 17 -10 30 0 13 -5 27 -10 30 -6 3
-10 15 -10 26 0 16 -8 36 -28 68 -1 3 -13 -6 -26 -18 -33 -31 -80 -26 -84 9
-2 14 -8 29 -13 34 -5 6 -9 20 -9 32 0 13 -4 26 -10 29 -5 3 -10 15 -10 25 0
11 -9 35 -20 55 -11 20 -20 44 -20 55 0 10 -4 22 -10 25 -5 3 -10 17 -10 30 0
13 -4 27 -10 30 -5 3 -10 17 -10 30 0 13 -4 27 -10 30 -5 3 -10 17 -10 30 0
13 -4 27 -10 30 -5 3 -10 15 -10 25 0 11 -9 35 -20 55 -11 20 -20 42 -20 50 0
8 -9 30 -20 50 -11 20 -20 41 -20 48 0 21 -134 280 -146 284 -20 7 -28 -39
-34 -197 l-5 -155 -49 -3 c-46 -3 -52 -1 -93 40 -43 42 -153 243 -153 280 0 9
-4 20 -10 23 -5 3 -10 17 -10 30 0 13 -4 27 -10 30 -5 3 -10 17 -10 30 0 13
-4 27 -10 30 -5 3 -10 21 -10 40 0 19 -4 37 -10 40 -5 3 -10 17 -10 30 0 13
-4 27 -10 30 -5 3 -10 26 -10 50 0 24 -5 47 -10 50 -6 3 -10 26 -10 50 0 24
-4 47 -10 50 -5 3 -10 44 -10 90 0 46 -5 87 -10 90 -14 8 -14 642 0 650 5 3
10 44 10 90 0 46 4 87 10 90 5 3 10 26 10 50 0 24 5 47 10 50 6 3 10 26 10 50
0 24 5 47 10 50 6 3 10 17 10 30 0 13 5 27 10 30 6 3 10 17 10 30 0 13 4 27
10 30 5 3 10 14 10 24 0 28 66 151 101 187 31 32 37 34 99 34 l66 0 57 -58
c31 -32 57 -63 57 -70 0 -7 5 -12 10 -12 6 0 10 31 10 73 0 63 -5 82 -35 142
-35 70 -122 170 -162 186 -20 7 -23 16 -23 63 0 30 -5 58 -10 61 -6 3 -10 21
-10 40 0 19 -4 37 -10 40 -5 3 -10 14 -10 24 0 20 -40 103 -62 129 -8 9 -26
42 -41 73 -15 30 -38 66 -52 79 -14 13 -25 29 -25 35 0 7 -9 20 -20 30 -11 10
-20 23 -20 30 0 6 -13 24 -30 40 -16 16 -30 34 -30 40 0 14 -242 255 -256 255
-6 0 -19 9 -29 20 -10 11 -24 20 -30 20 -7 0 -18 7 -25 15 -16 19 -109 65
-134 65 -18 0 -18 -1 -2 -19 10 -11 15 -25 11 -30 -3 -6 2 -11 12 -11 20 0 93
-68 93 -86 0 -6 9 -19 20 -29 11 -10 20 -23 20 -30 0 -7 9 -20 20 -30 11 -10
20 -23 20 -30 0 -7 9 -20 20 -30 11 -10 20 -23 20 -30 0 -7 9 -20 20 -30 11
-10 20 -24 20 -30 0 -7 7 -18 15 -25 16 -13 85 -149 85 -167 0 -7 9 -28 20
-48 11 -20 20 -49 20 -65 0 -16 5 -32 10 -35 14 -8 14 -422 0 -430 -6 -3 -10
-26 -10 -50 0 -24 -4 -47 -10 -50 -5 -3 -10 -30 -10 -60 0 -30 -4 -57 -10 -60
-5 -3 -10 -17 -10 -30 0 -13 -5 -27 -10 -30 -6 -3 -10 -26 -10 -50 0 -24 -5
-47 -10 -50 -6 -3 -10 -21 -10 -40 0 -19 -5 -37 -10 -40 -6 -3 -10 -21 -10
-40 0 -19 -4 -37 -10 -40 -5 -3 -10 -19 -10 -35 0 -16 -9 -45 -20 -65 -11 -20
-20 -42 -20 -50 0 -8 -9 -30 -20 -50 -11 -20 -20 -44 -20 -55 0 -10 -5 -22
-10 -25 -6 -3 -10 -30 -10 -60 0 -30 -4 -57 -10 -60 -5 -3 -10 -26 -10 -50 0
-24 -5 -47 -10 -50 -6 -3 -10 -30 -10 -60 0 -30 -5 -57 -10 -60 -6 -3 -10 -21
-10 -40 0 -19 -5 -37 -10 -40 -6 -3 -10 -35 -10 -70 0 -35 -4 -67 -10 -70 -14
-8 -14 -702 0 -710 6 -3 10 -52 10 -110 0 -58 4 -107 10 -110 6 -3 10 -17 10
-30 0 -13 5 -27 10 -30 6 -3 10 -17 10 -30 0 -13 5 -27 10 -30 6 -3 10 -26 10
-50 0 -24 5 -47 10 -50 6 -3 10 -21 10 -40 0 -19 4 -37 10 -40 5 -3 10 -21 10
-40 0 -19 4 -37 10 -40 5 -3 10 -21 10 -40 0 -19 5 -37 10 -40 6 -3 10 -17 10
-30 0 -13 5 -27 10 -30 6 -3 10 -19 10 -35 0 -16 9 -45 20 -65 11 -20 20 -41
20 -48 0 -18 150 -314 166 -328 8 -6 14 -17 14 -23 0 -7 14 -25 31 -42 l30
-29 -1 95 c-4 266 -6 260 135 260 52 0 97 -4 100 -10 3 -5 16 -10 29 -10 13 0
31 -9 41 -20 10 -11 23 -20 29 -20 15 0 126 -112 126 -126 0 -6 9 -19 20 -29
11 -10 20 -26 20 -36 0 -10 9 -34 20 -54 11 -20 20 -44 20 -55 0 -10 5 -22 10
-25 13 -8 13 -342 0 -350 -5 -3 -10 -18 -10 -33 0 -32 -63 -162 -90 -187 -11
-10 -30 -23 -42 -29 -54 -28 -7 -56 93 -56 58 0 76 5 145 41 43 22 88 49 100
60 14 13 34 19 65 19 43 0 48 -3 135 -92 50 -51 101 -108 113 -126 36 -52 101
-183 101 -203 0 -10 5 -21 10 -24 6 -3 10 -17 10 -30 0 -13 5 -27 10 -30 13
-8 13 -322 0 -330 -5 -3 -10 -17 -10 -30 0 -13 -4 -27 -10 -30 -5 -3 -10 -15
-10 -25 0 -11 -9 -35 -20 -55 -11 -20 -20 -44 -20 -55 0 -10 -4 -22 -10 -25
-6 -3 -10 -52 -10 -111 0 -63 4 -104 10 -104 6 0 10 8 10 18 1 20 109 121 164
151 31 18 54 21 155 21 136 0 169 -12 240 -84 47 -48 121 -187 121 -227 0 -15
5 -31 10 -34 6 -4 10 -69 10 -163 l0 -157 -31 -38 -30 -37 -93 0 -92 0 -55 46
c-44 39 -55 44 -57 29 -4 -16 3 -37 29 -87 5 -10 9 -27 9 -37 0 -11 5 -23 10
-26 6 -3 10 -14 10 -23 0 -19 90 -201 131 -267 14 -22 33 -56 43 -75 35 -70
45 -84 110 -149 36 -37 66 -71 66 -77 0 -6 9 -19 20 -29 11 -10 20 -23 20 -29
0 -7 67 -77 149 -156 145 -142 200 -190 218 -190 5 0 25 -16 44 -36 18 -19 52
-44 74 -54 22 -10 49 -28 59 -39 11 -12 66 -44 122 -72 57 -28 106 -54 109
-59 8 -13 390 -200 408 -200 24 0 32 -46 19 -97 -24 -86 -16 -136 34 -231 55
-104 70 -122 99 -122 21 0 24 -7 33 -77 49 -347 63 -469 72 -608 6 -88 13
-191 16 -230 3 -46 -1 -113 -14 -192 -19 -119 -19 -124 -1 -164 24 -52 24 -61
-1 -101 -16 -27 -20 -51 -20 -129 0 -88 -3 -101 -30 -152 -22 -43 -30 -70 -30
-110 0 -43 -5 -59 -29 -87 -15 -19 -47 -69 -70 -110 -84 -149 -252 -350 -359
-431 -46 -34 -131 -112 -188 -173 -98 -104 -105 -113 -100 -145 10 -63 59 -99
172 -126 166 -40 331 -30 534 32 124 38 160 62 228 156 85 117 93 123 141 107
66 -21 140 -9 238 41 66 33 90 50 95 69 77 268 78 278 69 405 -6 92 -13 131
-31 165 -15 32 -25 78 -32 155 -16 169 -15 221 7 245 17 19 17 25 5 89 -16 84
-9 215 14 256 12 22 16 58 16 140 0 66 6 132 15 165 8 30 20 86 25 124 6 38
15 74 20 81 10 12 40 147 40 185 1 14 8 43 16 65 14 38 20 77 43 258 5 40 15
86 22 102 38 95 39 95 72 95 44 0 169 -27 242 -51 76 -26 280 -126 296 -145 6
-8 17 -14 24 -14 6 0 20 -9 30 -20 10 -11 22 -20 27 -20 5 0 50 -42 101 -92
80 -81 99 -107 144 -198 54 -110 83 -187 83 -221 0 -30 42 -21 51 11 13 47 9
215 -7 290 -27 131 -87 294 -119 320 -8 7 -15 18 -15 26 0 7 -44 58 -99 112
-61 62 -101 110 -105 128 -3 16 -19 67 -33 113 -25 77 -33 90 -92 148 -35 35
-69 63 -74 63 -6 0 -19 8 -30 17 -18 17 -19 17 -33 -1 -9 -13 -10 -23 -4 -31
15 -17 23 -90 16 -137 -9 -60 -40 -73 -171 -73 -129 0 -150 12 -146 82 1 32
-8 79 -28 141 -17 52 -31 102 -31 112 0 10 -13 60 -30 110 -16 50 -30 102 -30
113 0 12 -6 52 -14 90 -15 73 -38 102 -88 113 -16 4 -28 7 -29 8 -3 8 -21 242
-21 276 2 103 17 369 22 373 14 14 46 -38 154 -256 65 -130 122 -240 127 -242
4 -3 20 -31 35 -63 27 -56 185 -232 210 -232 6 0 19 -9 29 -20 10 -11 23 -20
30 -20 6 0 24 -14 40 -30 16 -16 34 -30 40 -30 6 0 24 -13 39 -29 17 -17 47
-34 74 -41 63 -15 102 -33 102 -45 0 -15 68 -80 76 -73 6 7 -17 48 -28 48 -5
0 -8 6 -8 14 0 7 -7 19 -15 26 -9 7 -23 29 -32 49 -9 20 -23 44 -31 53 -43 51
-65 114 -70 202 l-5 90 40 -32 c22 -17 46 -38 53 -47 7 -8 18 -15 24 -15 6 0
27 -16 46 -36 36 -37 105 -74 138 -74 47 0 51 -32 60 -435 l8 -310 27 -51 c15
-28 46 -71 70 -95 54 -57 79 -111 102 -219 4 -19 16 -53 25 -75 10 -22 28 -68
40 -103 12 -35 34 -87 50 -117 15 -29 31 -68 35 -87 4 -18 13 -46 20 -63 18
-40 45 -123 45 -138 0 -7 7 -24 15 -40 8 -15 19 -52 24 -82 6 -29 22 -88 36
-130 21 -63 25 -94 25 -188 0 -85 4 -119 17 -142 18 -33 22 -122 9 -220 -7
-52 -5 -68 13 -107 19 -42 21 -65 21 -217 0 -93 5 -182 10 -196 6 -15 11 -122
11 -239 1 -205 0 -214 -30 -329 -46 -175 -40 -281 24 -407 28 -55 125 -149
185 -180 174 -89 431 36 539 260 22 48 26 68 26 150 0 82 -4 104 -28 160 -64
146 -117 406 -117 570 0 105 -3 122 -31 195 -29 74 -31 85 -24 155 11 106 10
116 -13 145 -12 14 -26 51 -33 81 -11 51 -11 59 9 100 26 53 27 85 6 206 -14
82 -15 118 -4 293 6 110 16 238 21 285 5 47 12 200 15 340 5 202 3 280 -9 373
l-16 118 24 54 c32 74 47 153 36 192 -5 17 -28 62 -50 100 -23 38 -41 74 -41
80 0 13 22 18 130 33 125 18 190 38 325 104 158 77 329 190 386 254 59 67 72
102 67 191 l-4 74 71 44 c221 139 302 206 428 353 98 115 208 200 257 200 23
0 30 -6 39 -32 30 -95 123 -544 142 -684 24 -182 48 -406 55 -502 4 -56 11
-105 16 -108 12 -8 63 31 104 82 30 36 42 66 66 157 37 144 77 270 140 432 28
72 61 164 74 205 14 44 53 125 95 195 91 153 165 308 182 382 18 79 9 125 -53
273 -60 145 -247 522 -288 583 -16 23 -71 116 -122 207 -52 91 -135 233 -186
316 -50 82 -116 195 -146 250 -31 54 -70 125 -89 157 -19 32 -64 108 -100 170
-154 263 -178 305 -204 357 -15 30 -73 136 -130 235 -214 378 -381 700 -430
830 -13 36 -35 84 -48 107 -66 114 -224 551 -311 858 -19 69 -45 152 -56 185
-49 139 -116 376 -301 1068 -71 266 -93 397 -68 413 21 12 0 161 -37 271 -69
205 -113 281 -193 336 -42 28 -120 89 -178 138 -18 14 -23 29 -23 64 0 29 -9
64 -26 96 -16 32 -28 79 -34 129 -10 89 -26 126 -69 163 -37 31 -68 41 -188
63 l-93 16 0 93 c0 106 -7 130 -84 288 -81 168 -135 368 -123 457 5 42 63 138
251 418 64 95 116 177 116 182 0 6 -8 10 -17 10 -17 0 -175 -96 -341 -207 -56
-37 -94 -57 -97 -50 -2 7 -6 39 -9 72 -7 77 -57 229 -104 319 -75 144 -230
256 -402 291 -41 9 -82 23 -91 31 -45 41 -242 75 -304 52z m220 -100 c29 -13
36 -44 8 -34 -14 5 -13 2 3 -11 30 -25 48 -63 36 -75 -6 -6 -3 -34 8 -79 10
-38 16 -78 13 -89 -3 -11 -1 -20 3 -20 17 0 35 17 38 36 2 10 14 21 27 24 22
6 21 7 -10 13 l-34 7 26 24 c15 14 34 27 44 29 16 4 15 6 -4 12 -27 9 -30 20
-7 29 13 5 14 9 4 21 -10 12 -9 15 8 15 12 0 24 5 27 10 9 15 23 12 29 -7 3
-10 20 -26 37 -36 17 -9 29 -23 26 -30 -3 -8 7 -13 27 -14 l31 -2 -33 21 c-45
28 -34 34 13 7 34 -21 59 -50 112 -138 24 -39 29 -56 13 -46 -10 6 7 -40 22
-62 5 -6 5 -14 -1 -18 -6 -3 -18 10 -28 29 -16 36 -43 56 -43 33 0 -31 59
-167 60 -138 0 21 37 -15 55 -53 19 -41 35 -145 23 -152 -12 -8 -10 -11 -38
76 -16 49 -35 86 -57 110 -19 19 -30 26 -24 15 51 -100 46 -113 -13 -34 -39
52 -64 63 -28 12 11 -15 34 -59 52 -98 18 -38 35 -74 38 -80 3 -5 -5 -1 -18
10 -22 19 -22 18 3 -19 15 -22 24 -42 22 -45 -7 -7 -60 46 -91 91 -15 21 -29
36 -32 33 -3 -3 13 -32 36 -65 22 -33 37 -60 32 -60 -12 0 -55 57 -138 180
-77 115 -191 250 -207 246 -5 -2 -32 14 -59 36 -27 21 -60 41 -74 45 -45 11
-119 -42 -210 -152 -19 -22 -53 -60 -75 -84 -23 -24 -35 -40 -27 -36 8 5 -12
-27 -43 -71 -108 -149 -204 -289 -223 -323 -10 -18 -25 -45 -33 -60 -8 -14
-16 -21 -18 -14 -2 6 12 43 31 82 45 89 46 102 1 31 -19 -30 -39 -54 -44 -53
-13 3 -53 -51 -86 -117 -16 -30 -30 -50 -32 -43 -2 6 15 42 38 80 74 119 169
327 155 340 -2 2 -9 -12 -16 -31 -6 -20 -17 -39 -23 -43 -7 -5 -12 -15 -12
-23 0 -8 -4 -15 -10 -15 -5 0 -16 -4 -23 -9 -22 -14 -25 1 -8 44 21 53 20 61
-4 30 -36 -46 -21 4 40 136 16 34 36 64 44 67 8 3 23 21 32 39 9 18 30 51 47
73 l31 40 -42 -40 c-64 -60 -50 -27 35 82 75 96 70 101 -14 15 -51 -53 -70
-48 -40 11 12 23 24 44 27 47 3 3 28 30 55 60 l50 55 -60 -55 c-33 -30 -66
-67 -74 -82 -7 -16 -18 -28 -23 -28 -11 0 35 84 60 109 23 23 118 91 127 91 5
0 0 -9 -10 -20 -18 -20 -8 -29 11 -10 17 17 144 50 141 37 -3 -17 56 -8 66 9
4 8 25 15 45 15 l37 1 -30 8 c-16 4 -61 8 -100 9 l-70 2 55 18 c30 11 64 21
75 24 41 10 185 7 210 -5z m-659 -303 c-27 -45 -44 -60 -32 -27 10 24 50 82
54 77 3 -2 -8 -25 -22 -50z m-116 -11 c-18 -27 -29 -40 -25 -29 7 24 48 85 53
80 2 -1 -11 -25 -28 -51z m857 -55 c23 -16 51 -41 60 -55 10 -13 30 -41 45
-60 50 -65 173 -334 153 -334 -2 0 -16 11 -31 25 -28 26 -81 45 -124 45 -32 0
-281 -115 -297 -137 -17 -23 -16 -48 2 -67 9 -9 15 -23 13 -33 -2 -11 6 -22
20 -28 12 -5 22 -13 22 -17 0 -5 6 -8 14 -8 9 0 12 -7 9 -18 -4 -16 4 -19 82
-21 108 -3 142 8 193 63 23 24 59 52 81 62 26 12 41 26 42 39 1 11 10 -14 21
-55 22 -88 19 -174 -8 -215 -13 -20 -19 -49 -20 -99 -2 -93 -10 -133 -50 -239
-39 -106 -68 -140 -222 -264 -137 -110 -201 -139 -292 -130 -65 6 -98 26 -141
85 -13 19 -31 41 -40 50 -126 137 -175 212 -177 273 -1 20 -6 48 -12 63 -5 15
-10 37 -10 49 0 12 -11 38 -23 57 -44 65 -79 209 -58 240 9 12 14 12 46 -3 47
-22 62 -21 70 3 5 15 -1 26 -20 42 -19 15 -23 24 -16 31 8 8 21 0 46 -26 19
-20 40 -37 46 -37 6 0 23 13 37 28 27 29 52 32 52 6 0 -8 -6 -14 -12 -15 -7 0
-4 -4 7 -8 26 -11 48 -2 41 15 -21 50 -21 50 0 33 10 -10 28 -19 39 -21 11 -2
23 -15 29 -33 5 -17 11 -37 14 -45 3 -8 9 8 14 35 22 114 -28 199 -137 238
-27 10 -65 25 -82 32 l-33 15 21 37 c12 21 36 56 53 78 18 22 56 75 85 118 68
101 137 179 175 196 100 44 122 50 175 45 38 -4 68 -15 98 -35z m1009 -106
c-10 -10 -19 5 -10 18 6 11 8 11 12 0 2 -7 1 -15 -2 -18z m-26 3 c0 -2 -26
-23 -57 -47 -157 -119 -297 -235 -385 -318 -78 -74 -98 -89 -98 -71 0 30 23
70 62 106 59 55 327 245 438 312 40 23 40 23 40 18z m-152 -268 c-74 -112
-159 -241 -188 -288 -50 -81 -75 -114 -162 -213 -32 -35 -40 -40 -48 -27 -14
20 -5 78 16 101 9 10 31 21 50 25 18 3 42 15 54 26 20 19 21 26 15 108 -6 82
-5 90 16 122 43 60 62 79 70 67 4 -8 12 -2 22 17 16 32 139 144 157 144 6 0
13 7 16 15 4 8 10 13 15 10 4 -3 13 3 18 13 14 27 74 93 79 88 2 -3 -57 -96
-130 -208z m-502 -73 c39 -81 69 -253 79 -450 6 -99 13 -187 36 -405 1 -8 5
23 9 70 5 49 16 103 27 128 l20 43 7 -32 c3 -17 7 -52 7 -78 l1 -46 9 40 c4
22 13 86 20 142 6 57 15 100 20 97 22 -13 -2 -303 -31 -382 -21 -56 -58 -132
-64 -132 -2 0 -2 23 1 50 2 31 0 50 -7 50 -5 0 -10 -17 -10 -37 -1 -66 -18
-14 -30 88 -6 52 -15 127 -20 167 -6 40 -11 123 -11 185 -2 135 -16 213 -17
93 -1 -73 -5 -96 -16 -85 -3 3 -7 74 -9 159 -5 161 -23 253 -76 390 l-21 55
26 -30 c14 -16 37 -52 50 -80z m-1417 -28 c19 -38 20 -57 2 -57 -8 0 -61 109
-61 125 0 17 40 -29 59 -68z m1240 52 c59 -12 77 -30 86 -86 8 -54 -7 -62 -67
-38 -24 9 -80 18 -131 20 -50 3 -91 6 -93 8 -4 3 86 73 121 94 25 15 24 15 84
2z m-719 -104 c38 -15 30 -19 -19 -9 -17 4 -31 10 -31 15 0 11 7 11 50 -6z
m650 -35 c18 -6 6 -8 -40 -8 -50 0 -58 2 -35 8 38 10 45 10 75 0z m-648 -20
c21 -6 40 -15 43 -20 4 -6 -4 -6 -20 0 -15 6 -40 10 -56 10 -18 0 -28 4 -24
10 8 12 11 12 57 0z m598 -30 c0 -5 -4 -10 -10 -10 -5 0 -10 5 -10 10 0 6 5
10 10 10 6 0 10 -4 10 -10z m-840 -81 c-11 -24 -20 -38 -20 -32 0 20 33 98 37
87 2 -6 -5 -31 -17 -55z m230 57 c0 -3 -4 -8 -10 -11 -5 -3 -10 -1 -10 4 0 6
5 11 10 11 6 0 10 -2 10 -4z m690 -4 c0 -11 -28 -36 -58 -51 -24 -13 -132 -6
-132 8 0 4 6 16 14 27 14 19 15 19 38 -3 32 -31 72 -30 95 2 17 24 43 34 43
17z m428 -50 c2 -23 -2 -33 -17 -42 -17 -9 -21 -8 -21 5 0 8 4 15 10 15 5 0 7
13 3 31 -5 25 -3 31 8 27 8 -2 15 -19 17 -36z m-88 -2 c10 -23 10 -37 2 -55
-19 -41 -32 -29 -32 30 0 61 11 70 30 25z m-1350 -117 c-30 -38 -120 -133
-126 -133 -3 0 27 36 67 80 73 80 99 103 59 53z m1366 -198 c9 -23 -6 -132
-16 -115 -11 22 -10 130 1 130 5 0 12 -7 15 -15z m338 -128 c30 -51 62 -112
71 -136 17 -49 20 -131 5 -131 -5 0 -10 -11 -10 -24 0 -42 -11 -56 -41 -56
-35 0 -48 22 -50 88 -2 54 14 82 51 85 25 2 24 6 -40 155 -26 61 -46 112 -44
112 1 0 27 -42 58 -93z m-1674 9 c-1 -63 -73 -279 -126 -374 -50 -88 -259
-341 -272 -328 -3 3 0 12 6 19 7 8 9 16 6 19 -3 4 17 50 44 105 28 54 53 109
57 123 4 14 18 42 32 63 15 20 23 40 20 43 -3 4 5 28 18 54 13 26 21 50 18 53
-7 8 16 44 57 88 17 19 49 64 71 101 28 47 44 66 54 62 8 -4 15 -16 15 -28z
m-220 1 c0 -78 -128 -527 -151 -527 -16 0 -38 44 -50 98 -23 108 22 240 126
370 56 70 75 85 75 59z m1660 -279 c-22 -74 -39 -89 -21 -19 28 108 35 125 39
108 2 -10 -6 -50 -18 -89z m-1421 -30 c0 -92 -43 -248 -68 -248 -10 0 -52 -87
-101 -210 -23 -57 -60 -119 -112 -190 -82 -110 -95 -142 -28 -69 117 129 286
444 326 609 10 41 20 67 22 58 2 -10 8 -18 14 -18 6 0 9 -3 6 -6 -4 -3 0 -17
7 -31 9 -17 11 -33 5 -49 -5 -12 -11 -41 -14 -63 -2 -22 -14 -70 -26 -106 -12
-37 -20 -69 -17 -71 9 -9 81 127 104 196 12 36 22 58 22 50 2 -42 -32 -191
-53 -235 -19 -38 -20 -45 -6 -27 10 12 33 59 51 102 18 44 34 78 36 76 6 -6
-27 -117 -45 -151 -19 -38 -71 -106 -94 -123 -10 -7 -18 -19 -18 -27 0 -7 -31
-42 -68 -77 -38 -34 -86 -88 -109 -118 -52 -71 -98 -120 -113 -120 -6 0 -41
-30 -77 -67 -36 -38 -60 -57 -53 -43 8 14 52 63 99 109 47 46 79 80 71 75 -12
-7 -12 -4 1 16 9 14 22 25 28 25 6 0 11 4 10 8 0 4 16 31 36 60 31 44 22 37
-57 -44 -134 -138 -206 -226 -240 -294 -34 -68 -36 -70 -43 -63 -10 9 58 127
107 186 45 56 56 82 20 49 -29 -27 -33 -20 -12 18 26 46 9 45 -29 -2 -37 -44
-41 -33 -7 17 26 39 66 123 66 139 0 6 -4 11 -10 11 -5 0 -7 7 -4 15 4 8 14
15 23 15 14 0 14 2 1 10 -13 8 -12 11 5 24 11 9 16 16 10 16 -6 0 -6 3 1 8 6
4 25 28 43 55 17 26 34 47 36 47 2 0 -1 -14 -7 -31 -18 -51 -2 -43 20 11 12
28 27 50 36 50 9 0 38 46 74 118 46 91 61 134 70 193 9 58 47 169 59 169 1 0
2 -24 2 -52z m1010 0 c5 -13 18 -66 29 -118 26 -122 37 -149 63 -159 21 -7 20
-9 -17 -31 -21 -14 -122 -79 -224 -146 -102 -66 -199 -129 -217 -139 -18 -10
-77 -63 -133 -117 -55 -54 -106 -98 -113 -98 -38 1 -56 49 -30 84 24 33 45 34
39 1 -5 -28 5 -32 25 -9 8 10 15 62 19 147 4 73 7 124 8 115 4 -38 42 -13 59
37 5 17 20 36 34 42 13 7 20 13 16 13 -4 0 -4 8 2 17 5 10 5 26 1 39 -7 17 -4
26 12 41 20 16 21 17 15 1 -4 -10 -2 -18 4 -18 6 0 13 8 16 18 4 17 97 84 173
125 19 10 69 54 110 96 41 43 81 79 88 79 7 1 16 -8 21 -20z m-1130 -199 c-31
-93 -68 -175 -69 -153 0 10 14 51 39 109 5 11 14 35 20 53 22 65 34 93 38 89
2 -2 -11 -46 -28 -98z m-120 -168 c-12 -29 -24 -50 -26 -47 -2 2 6 27 18 55
12 29 24 50 26 47 2 -2 -6 -27 -18 -55z m798 27 c-3 -8 -6 -5 -6 6 -1 11 2 17
5 13 3 -3 4 -12 1 -19z m-682 -419 c-19 -40 -35 -66 -35 -58 0 19 60 142 66
136 3 -2 -11 -37 -31 -78z m-44 -115 c-5 -16 -10 -21 -10 -12 -1 18 10 51 15
45 2 -1 -1 -16 -5 -33z m-133 -96 c-10 -28 -17 -57 -13 -66 3 -8 0 -32 -7 -53
-9 -31 -9 -42 1 -52 7 -7 11 -7 10 -2 -4 11 47 172 61 195 19 31 21 -2 6 -78
-9 -43 -17 -101 -17 -128 -1 -41 -2 -44 -8 -19 l-7 30 -8 -30 c-5 -16 -10 -73
-11 -126 -2 -80 -7 -106 -29 -155 -24 -51 -29 -57 -38 -41 -5 11 -8 32 -4 48
3 15 -1 48 -10 71 -16 47 -13 191 6 299 15 79 55 170 74 163 11 -4 10 -14 -6
-56z m119 40 c-3 -8 -6 -5 -6 6 -1 11 2 17 5 13 3 -3 4 -12 1 -19z m-10 -50
c-3 -7 -5 -2 -5 12 0 14 2 19 5 13 2 -7 2 -19 0 -25z m-237 -335 c0 -5 -8 -17
-17 -28 -14 -18 -15 -18 -9 -2 3 10 6 23 6 28 0 5 5 9 10 9 6 0 10 -3 10 -7z
m10 -100 c-11 -17 -11 -17 -6 0 3 10 6 24 7 30 0 9 2 9 5 0 3 -7 0 -20 -6 -30z
m-3123 -199 c-3 -3 -12 -4 -19 -1 -8 3 -5 6 6 6 11 1 17 -2 13 -5z m33 -23 c0
-9 -60 -24 -68 -17 -2 3 11 9 29 15 19 5 35 10 37 10 1 1 2 -3 2 -8z m-145
-21 c-3 -5 -12 -10 -18 -10 -7 0 -6 4 3 10 19 12 23 12 15 0z m55 -10 c-8 -5
-19 -10 -25 -10 -5 0 -3 5 5 10 8 5 20 10 25 10 6 0 3 -5 -5 -10z m-80 -55
c-7 -9 -15 -13 -18 -10 -3 2 1 11 8 20 7 9 15 13 18 10 3 -2 -1 -11 -8 -20z
m-65 -66 c-35 -60 -127 -263 -140 -307 -4 -13 -9 -21 -12 -18 -14 14 80 232
144 334 45 71 50 66 8 -9z m4316 -496 c13 -16 12 -17 -3 -4 -17 13 -22 21 -14
21 2 0 10 -8 17 -17z m58 -77 c-2 -2 -13 8 -23 22 l-19 27 24 -22 c12 -12 21
-24 18 -27z m-4562 -38 c-3 -7 -5 -2 -5 12 0 14 2 19 5 13 2 -7 2 -19 0 -25z
m23 -112 c0 -80 -16 -60 -23 29 -6 63 -5 68 8 51 9 -12 15 -43 15 -80z m-15
-293 c-10 -92 -16 -72 -8 23 4 43 9 70 11 60 2 -10 1 -48 -3 -83z m2943 -61
c6 -15 16 -65 22 -112 6 -47 18 -95 26 -107 l14 -23 36 21 c20 11 39 18 42 14
3 -3 0 -5 -6 -5 -7 0 -12 -4 -12 -10 0 -5 6 -7 13 -4 8 3 13 -3 13 -16 0 -11
-4 -20 -8 -20 -4 0 -8 -7 -8 -16 0 -8 4 -13 9 -9 5 3 12 1 16 -5 3 -5 1 -10
-5 -10 -7 0 -9 -7 -6 -16 4 -10 -1 -26 -11 -37 -17 -19 -17 -20 0 -14 11 4 17
1 17 -9 0 -11 -6 -14 -16 -10 -13 5 -15 -1 -11 -41 3 -27 10 -72 16 -102 8
-40 8 -57 0 -61 -6 -4 -11 -11 -11 -16 -1 -21 -42 -94 -47 -85 -4 7 -13 3 -24
-9 -9 -11 -27 -20 -40 -20 -33 0 -128 34 -179 64 -62 36 -145 116 -130 125 12
7 23 70 23 125 0 16 3 34 8 40 4 6 13 30 20 53 6 23 20 48 31 56 11 8 17 16
15 19 -8 8 16 58 25 53 4 -3 10 14 14 36 4 26 18 52 39 74 17 18 43 51 57 73
27 43 43 44 58 4z m-2999 -113 c-12 -52 -24 -88 -26 -82 -4 12 25 159 34 176
15 25 11 -12 -8 -94z m54 -98 c2 -95 0 -165 -4 -154 -12 34 -22 239 -14 300
11 77 13 59 18 -146z m-92 -98 c-12 -20 -14 -14 -5 12 4 9 9 14 11 11 3 -2 0
-13 -6 -23z m50 -84 c-9 -23 -10 -22 -10 11 -1 23 2 31 9 24 7 -7 7 -19 1 -35z
m53 -24 c-4 -8 -8 -15 -10 -15 -2 0 -4 7 -4 15 0 8 4 15 10 15 5 0 7 -7 4 -15z
m16 -47 c0 -13 3 -34 5 -48 5 -22 3 -21 -9 5 -18 35 -20 65 -6 65 6 0 10 -10
10 -22z m20 -99 c0 -6 -4 -7 -10 -4 -5 3 -10 11 -10 16 0 6 5 7 10 4 6 -3 10
-11 10 -16z m-120 -124 c0 -46 45 -234 69 -288 24 -55 24 -57 12 -57 -11 0
-64 137 -85 218 -16 60 -19 193 -5 170 5 -7 9 -26 9 -43z m3274 3 c4 -13 10
-95 13 -183 l6 -161 -26 -11 c-14 -7 -33 -22 -41 -35 -15 -24 -68 -179 -81
-238 -5 -22 -25 -52 -54 -81 -55 -54 -112 -164 -139 -269 -25 -92 -52 -251
-52 -299 0 -20 -5 -71 -12 -114 l-12 -78 -22 28 c-21 26 -56 79 -173 265 l-44
70 22 71 c12 40 27 79 32 87 5 8 25 47 44 85 88 180 171 313 245 390 60 63
141 175 209 287 45 75 50 90 39 107 -10 16 -8 27 7 60 21 47 30 51 39 19z
m-3097 -60 c-3 -8 -6 -5 -6 6 -1 11 2 17 5 13 3 -3 4 -12 1 -19z m7 -43 c-4
-8 -1 -15 5 -15 6 0 11 -16 10 -37 l0 -38 -16 38 c-13 33 -13 67 1 67 3 0 3
-7 0 -15z m-38 -372 c-6 -6 -46 72 -46 89 1 7 12 -9 26 -35 14 -27 23 -51 20
-54z m-45 -8 c8 -16 6 -15 -10 4 -12 13 -21 28 -21 35 0 12 14 -5 31 -39z
m4490 -41 c17 -8 29 -17 27 -20 -3 -2 -22 5 -43 16 -22 11 -34 20 -27 20 7 0
27 -7 43 -16z m-4314 -51 c23 -27 40 -50 37 -52 -2 -2 -5 -2 -6 0 -2 2 -23 26
-48 52 -24 26 -40 47 -35 47 6 0 29 -21 52 -47z m4284 -36 c-10 -9 -11 -8 -5
6 3 10 9 15 12 12 3 -3 0 -11 -7 -18z m-4291 -73 c47 -48 74 -79 60 -70 -39
25 -163 156 -148 156 2 0 42 -39 88 -86z m497 44 c-3 -8 -6 -5 -6 6 -1 11 2
17 5 13 3 -3 4 -12 1 -19z m-407 -23 c13 -14 21 -25 18 -25 -2 0 -15 11 -28
25 -13 14 -21 25 -18 25 2 0 15 -11 28 -25z m80 -65 c19 -16 31 -29 25 -29 -5
0 -26 13 -45 29 -19 16 -30 29 -25 29 6 0 26 -13 45 -29z m115 -85 c48 -17 79
-34 72 -41 -8 -8 -113 38 -132 58 -11 12 -13 17 -5 11 9 -7 38 -19 65 -28z
m-89 -36 c32 -7 64 -16 69 -22 7 -6 2 -7 -15 -3 -14 4 -59 10 -101 13 -103 8
-156 -15 -201 -87 -32 -52 -45 -60 -29 -18 15 41 63 90 106 109 47 22 89 23
171 8z m324 -179 c0 -15 -5 -12 -26 11 -19 22 -19 22 4 10 12 -6 22 -16 22
-21z m53 -43 c64 -55 141 -226 151 -337 l6 -65 -13 55 c-26 115 -126 319 -168
346 -8 5 -13 24 -6 24 2 0 16 -10 30 -23z m1830 -123 c7 -12 54 -84 106 -160
100 -147 107 -168 82 -249 -12 -38 -31 -195 -31 -256 0 -33 9 -65 31 -105 35
-68 42 -75 89 -101 33 -18 35 -23 38 -76 3 -53 6 -60 60 -120 l58 -63 12 -100
c7 -54 17 -119 22 -144 5 -25 17 -99 25 -165 31 -226 36 -260 50 -315 8 -30
24 -100 36 -155 12 -55 25 -104 28 -110 14 -19 65 -209 82 -300 13 -73 26
-139 59 -289 14 -64 20 -129 21 -230 1 -168 5 -201 59 -408 l23 -87 -26 -38
c-30 -44 -39 -85 -41 -191 -5 -188 -6 -193 -21 -198 -8 -3 -27 1 -42 9 -89 46
-148 79 -173 97 -15 11 -35 20 -43 20 -8 0 -26 9 -40 20 -14 11 -29 20 -35 20
-5 0 -17 9 -27 20 -10 11 -23 20 -30 20 -6 0 -24 14 -40 30 -16 17 -32 30 -35
30 -11 0 -294 290 -301 308 -4 9 -16 25 -28 36 -11 10 -45 68 -76 128 -43 86
-56 123 -61 175 l-7 66 29 -7 c16 -4 38 -15 49 -25 63 -56 265 -108 265 -68 0
7 -43 55 -95 107 -52 52 -95 98 -95 103 0 5 -16 25 -35 45 -39 41 -72 103
-105 199 -24 70 -34 263 -14 283 11 11 19 9 113 -32 25 -11 47 -16 53 -10 10
10 -14 73 -36 92 -9 7 -16 18 -16 25 0 6 -9 20 -20 30 -11 10 -20 23 -20 30 0
6 -13 24 -30 40 -16 16 -30 34 -30 39 0 14 -303 316 -316 316 -6 0 -19 9 -29
20 -10 11 -23 20 -30 20 -6 0 -29 18 -50 40 -21 22 -44 40 -50 40 -7 0 -20 9
-30 20 -10 11 -23 20 -29 20 -14 0 -115 105 -135 140 -41 71 -51 102 -51 160
0 59 4 71 54 167 23 44 65 73 91 62 38 -15 64 -9 98 21 19 17 40 30 46 30 6 0
11 5 11 10 0 6 6 10 14 10 24 0 121 95 144 142 12 24 28 68 36 98 16 60 33
101 108 260 28 58 56 121 64 140 17 45 54 185 54 206 0 9 18 36 40 60 22 24
40 49 40 55 0 7 7 21 17 31 15 17 17 17 35 1 10 -9 24 -27 31 -39z m-1678
-501 c-3 -18 -10 -33 -14 -33 -5 0 -5 19 0 43 4 23 9 62 10 87 3 44 3 43 6
-10 3 -30 2 -70 -2 -87z m1129 16 c23 -11 24 -13 12 -43 -24 -57 -58 -170 -62
-204 -6 -49 -19 -67 -49 -70 -20 -1 -28 4 -32 18 -3 11 -10 17 -16 13 -7 -4
-7 18 -1 68 5 41 9 99 9 129 0 66 6 77 48 89 44 13 62 13 91 0z m4372 -73 c79
-81 176 -227 200 -298 26 -80 27 -85 10 -58 l-15 25 -1 -29 c0 -16 5 -57 12
-91 13 -71 7 -105 -16 -83 -31 30 -68 59 -71 56 -3 -3 -10 -38 -14 -69 -1 -4
-10 -9 -21 -12 -17 -4 -20 -14 -20 -54 0 -71 -54 -276 -83 -315 -13 -18 -27
-40 -30 -50 -10 -29 -92 -128 -96 -116 -2 7 1 14 7 16 7 2 10 13 6 27 -3 12
-1 26 5 29 6 4 11 15 11 25 0 23 50 82 63 74 7 -4 8 0 2 13 -10 24 -7 147 5
194 5 19 10 71 11 115 1 65 -5 97 -29 170 -17 50 -31 86 -31 81 -1 -17 -21 9
-26 33 -2 13 -12 29 -22 36 -27 20 -34 0 -45 -133 -5 -70 -15 -126 -23 -139
-8 -12 -12 -28 -9 -36 3 -8 0 -18 -6 -22 -7 -4 -14 2 -17 14 -3 12 -9 21 -14
21 -5 0 -8 3 -7 8 1 4 -4 25 -11 48 -13 40 -11 199 3 274 4 19 7 50 7 68 1 17
5 34 10 37 5 3 13 24 19 47 19 67 62 149 84 158 50 20 86 5 152 -64z m-5401
24 c-9 -16 -18 -30 -21 -30 -2 0 2 14 11 30 9 17 18 30 21 30 2 0 -2 -13 -11
-30z m143 -152 c18 -26 32 -50 32 -55 0 -8 -38 34 -65 73 -18 24 -31 126 -19
151 5 12 10 -5 14 -52 5 -57 12 -79 38 -117z m585 -212 c-15 -19 -32 -35 -37
-35 -6 -1 5 15 24 34 43 45 50 45 13 1z m192 -21 c0 -22 4 -43 10 -47 5 -4 1
-16 -10 -28 -21 -23 -63 -23 -56 0 3 8 7 39 9 68 4 48 6 53 25 50 18 -2 22
-10 22 -43z m32 3 c-3 -8 -6 -5 -6 6 -1 11 2 17 5 13 3 -3 4 -12 1 -19z m4203
-377 c0 -16 -9 -39 -21 -52 -18 -21 -19 -21 -10 -3 5 11 7 30 4 42 -7 27 3 55
17 47 5 -3 10 -19 10 -34z m-4584 -257 c29 -57 57 -79 201 -163 55 -32 183
-122 252 -178 2 -1 1 -6 -2 -10 -4 -3 -17 3 -30 14 -34 31 -227 157 -279 183
-25 12 -73 48 -106 79 -55 52 -61 62 -77 128 -9 41 -13 78 -9 85 6 8 11 -4 16
-36 3 -26 19 -72 34 -102z m612 -542 c32 -61 52 -153 59 -271 5 -84 -3 -161
-18 -161 -5 0 -6 12 -2 28 22 83 -10 281 -61 380 -9 17 -16 36 -16 42 0 7 -20
39 -45 71 -25 33 -45 62 -45 66 0 18 101 -105 128 -155z m0 -516 c-43 -80 -93
-146 -110 -146 -5 0 6 21 26 48 20 26 52 75 72 110 50 88 61 78 12 -12z m-66
-188 c-7 -7 -12 -8 -12 -2 0 14 12 26 19 19 2 -3 -1 -11 -7 -17z m-22 -210 c0
-56 -2 -99 -4 -97 -14 15 -14 199 0 199 2 0 4 -46 4 -102z m375 -493 c60 -66
106 -117 101 -113 -104 87 -236 227 -236 251 0 7 5 5 13 -3 7 -8 62 -69 122
-135z m470 -325 c3 -6 -1 -7 -9 -4 -18 7 -21 14 -7 14 6 0 13 -4 16 -10z m40
-20 c3 -6 -1 -7 -9 -4 -18 7 -21 14 -7 14 6 0 13 -4 16 -10z"/>
<path d="M5380 14828 c0 -3 15 -15 33 -28 l32 -24 -16 24 c-14 21 -49 41 -49
28z"/>
<path d="M4859 14553 c-13 -16 -12 -17 4 -4 9 7 17 15 17 17 0 8 -8 3 -21 -13z"/>
<path d="M5126 13778 c-5 -10 -13 -15 -20 -11 -6 3 -8 3 -4 -2 4 -4 -6 -31
-23 -59 -35 -63 -39 -131 -11 -166 29 -35 106 -37 157 -3 48 33 95 74 95 85 0
9 -81 1 -123 -13 -25 -7 -33 -4 -58 20 -33 33 -36 51 -13 86 8 13 14 36 12 52
-3 23 -6 25 -12 11z"/>
<path d="M5104 13428 c-16 -10 -44 -21 -61 -24 -36 -7 -44 -20 -15 -26 17 -4
102 -4 311 0 57 1 101 5 97 9 -12 13 -156 44 -232 51 -59 6 -77 4 -100 -10z"/>
<path d="M5093 13287 c-11 -18 23 -27 110 -27 84 0 95 3 79 25 -9 13 -181 15
-189 2z"/>
<path d="M6135 14048 c-9 -29 -26 -65 -37 -81 -11 -15 -18 -30 -15 -33 9 -9
68 95 74 130 8 52 -2 44 -22 -16z"/>
<path d="M6361 13254 c0 -11 3 -14 6 -6 3 7 2 16 -1 19 -3 4 -6 -2 -5 -13z"/>
<path d="M4550 13390 c-7 -16 -18 -30 -24 -30 -6 0 -5 -4 3 -9 19 -12 -30 -99
-111 -198 -33 -40 -54 -73 -49 -73 6 0 11 3 11 8 0 4 10 13 23 21 20 12 20 11
-4 -15 -37 -41 -85 -114 -94 -144 -4 -14 -19 -44 -32 -67 -35 -60 -21 -53 29
15 23 31 63 82 87 112 l45 55 -44 -40 c-40 -37 -42 -38 -25 -10 10 17 29 46
42 65 12 19 23 39 23 43 0 5 15 30 33 56 37 51 79 135 97 194 14 47 7 59 -10
17z"/>
<path d="M4492 13313 c-10 -16 -25 -39 -32 -53 -11 -22 -11 -23 2 -10 19 19
61 90 54 90 -2 0 -13 -12 -24 -27z"/>
<path d="M4439 13083 c-13 -16 -12 -17 4 -4 9 7 17 15 17 17 0 8 -8 3 -21 -13z"/>
<path d="M4675 12787 c-26 -46 -30 -57 -17 -57 4 0 20 23 35 50 34 61 18 67
-18 7z"/>
<path d="M4594 12637 c-32 -36 -40 -54 -15 -32 21 18 46 55 38 55 -2 0 -12
-10 -23 -23z"/>
<path d="M3780 9800 c0 -5 5 -10 10 -10 6 0 10 5 10 10 0 6 -4 10 -10 10 -5 0
-10 -4 -10 -10z"/>
<path d="M4055 14500 c3 -5 8 -10 11 -10 2 0 4 5 4 10 0 6 -5 10 -11 10 -5 0
-7 -4 -4 -10z"/>
<path d="M4080 14480 c0 -5 7 -10 15 -10 8 0 15 5 15 10 0 6 -7 10 -15 10 -8
0 -15 -4 -15 -10z"/>
<path d="M4130 14395 c13 -14 26 -25 28 -25 3 0 -5 11 -18 25 -13 14 -26 25
-28 25 -3 0 5 -11 18 -25z"/>
<path d="M4280 14386 c0 -2 7 -6 15 -10 8 -3 15 -1 15 4 0 6 -7 10 -15 10 -8
0 -15 -2 -15 -4z"/>
<path d="M4221 13379 c-19 -42 -8 -46 12 -4 9 19 13 35 9 35 -4 0 -13 -14 -21
-31z"/>
<path d="M4183 13283 c-7 -15 -13 -35 -13 -44 0 -10 -4 -21 -10 -24 -5 -3 -10
-16 -9 -28 0 -12 11 6 25 42 25 64 30 103 7 54z"/>
<path d="M4133 13145 c-3 -9 -3 -18 -1 -21 3 -3 8 4 11 16 6 23 -1 27 -10 5z"/>
<path d="M4117 13093 c-4 -3 -7 -20 -6 -37 l1 -31 8 35 c9 36 8 45 -3 33z"/>
</g>
</svg>
