<?xml version="1.0" standalone="no"?>
<!DOCTYPE svg PUBLIC "-//W3C//DTD SVG 20010904//EN"
 "http://www.w3.org/TR/2001/REC-SVG-20010904/DTD/svg10.dtd">
<svg version="1.0" xmlns="http://www.w3.org/2000/svg"
 width="1024.000000pt" height="1536.000000pt" viewBox="0 0 1024.000000 1536.000000"
 preserveAspectRatio="xMidYMid meet">

<g transform="translate(0.000000,1536.000000) scale(0.100000,-0.100000)"
fill="#000000" stroke="none">
<path d="M6660 14957 c-185 -182 -296 -255 -675 -442 -144 -71 -268 -139 -293
-160 -46 -40 -61 -41 -41 -4 22 42 57 169 48 175 -5 3 -29 -6 -52 -21 -147
-91 -293 -175 -305 -175 -19 0 -9 155 20 303 11 60 17 111 14 114 -14 14 -243
-191 -312 -279 -25 -32 -49 -58 -54 -58 -5 0 -14 34 -21 75 -6 42 -15 78 -20
80 -19 13 -80 -107 -133 -265 -18 -52 -37 -94 -42 -93 -5 1 -13 15 -18 32 -11
37 -20 39 -38 8 -7 -13 -27 -44 -44 -70 l-31 -46 -26 47 c-37 68 -60 166 -52
222 15 106 -31 298 -112 473 -53 112 -58 103 -104 -187 -9 -59 -20 -90 -44
-125 -113 -163 -146 -216 -156 -249 -6 -20 -14 -95 -18 -167 -7 -113 -5 -149
16 -278 14 -82 22 -151 19 -154 -3 -4 -48 34 -98 83 -102 98 -104 98 -95 -5 7
-82 45 -282 62 -331 8 -24 14 -45 12 -46 -2 -2 -20 1 -40 7 -46 13 -59 5 -51
-29 10 -39 59 -133 83 -159 27 -28 26 -41 -4 -136 -24 -76 -25 -116 -3 -144
16 -21 37 -137 27 -155 -5 -9 -24 -21 -43 -28 -53 -17 -58 -30 -61 -148 -1
-59 -6 -139 -10 -178 l-7 -71 -90 -93 c-49 -52 -105 -120 -124 -152 -33 -54
-74 -88 -107 -88 -27 0 -203 -93 -311 -164 -109 -72 -231 -185 -341 -316 -106
-127 -211 -368 -254 -590 -24 -120 -39 -159 -99 -250 -57 -87 -59 -99 -26
-161 26 -47 46 -68 138 -142 l29 -24 -52 -119 c-29 -65 -60 -140 -69 -166 -15
-45 -15 -48 4 -69 10 -12 54 -39 97 -60 45 -23 77 -46 77 -54 0 -9 -14 -41
-31 -73 -25 -47 -30 -65 -26 -102 4 -39 0 -53 -31 -103 -30 -49 -35 -66 -34
-112 l1 -54 -81 -27 c-78 -26 -82 -26 -95 -9 -11 17 -16 17 -39 5 -14 -8 -35
-27 -46 -43 -11 -16 -50 -51 -87 -77 -59 -44 -125 -110 -194 -194 -24 -29 -25
-29 -58 -14 -71 33 -112 41 -185 35 -71 -5 -72 -5 -82 21 -6 15 -13 54 -15 87
-3 49 0 65 17 88 16 22 21 43 20 90 0 34 -3 71 -8 82 -5 15 10 47 64 129 39
59 80 126 91 148 l21 41 -21 21 c-75 76 -76 79 -76 220 0 119 3 138 29 209 16
43 51 113 78 155 45 68 49 78 37 97 -7 11 -27 44 -45 72 -88 145 -132 597
-105 1068 21 349 59 548 141 721 37 80 61 115 110 164 47 47 59 65 50 74 -8 8
-14 7 -23 -5 -15 -19 -37 -14 -37 9 0 14 2 14 9 3 5 -7 14 -10 21 -6 8 5 4 15
-14 34 -33 34 -71 119 -93 206 -13 54 -17 111 -17 250 0 165 2 193 32 335 67
317 175 599 314 824 84 136 235 308 350 398 43 34 75 65 72 70 -16 25 -328 1
-465 -37 -116 -31 -319 -117 -319 -135 0 -13 17 -13 25 0 4 6 11 7 17 4 6 -4
8 -3 5 3 -7 11 37 35 47 26 3 -3 0 -15 -6 -26 -8 -16 -7 -23 5 -32 13 -9 14
-14 4 -24 -9 -9 -9 -14 3 -21 12 -7 12 -12 -4 -29 -17 -19 -17 -20 2 -30 15
-8 26 -5 53 14 18 14 38 25 43 25 6 0 -7 -12 -29 -27 -56 -38 -102 -38 -96 0
2 12 -16 8 -29 -8 -11 -13 -10 -14 4 -9 22 8 20 -12 -2 -28 -10 -7 -22 -20
-27 -28 -5 -8 4 -4 20 8 20 16 36 21 55 17 18 -4 35 1 53 15 15 12 31 18 37
15 5 -3 10 -2 10 4 0 5 10 13 21 16 17 6 19 9 8 16 -10 6 -4 9 19 9 17 0 32
-5 32 -11 0 -6 -7 -9 -15 -5 -8 3 -15 0 -15 -7 0 -16 -55 -49 -65 -39 -5 4 -5
2 -1 -5 4 -7 -5 -19 -20 -30 -14 -10 -41 -31 -60 -46 -18 -16 -38 -26 -44 -22
-6 3 -7 0 -4 -9 3 -9 2 -16 -3 -16 -18 0 -181 -173 -243 -257 -19 -26 -47 -61
-62 -78 -43 -49 -137 -190 -175 -265 -19 -39 -39 -73 -44 -76 -5 -3 -7 -9 -4
-14 3 -4 -2 -13 -10 -20 -8 -7 -12 -17 -9 -22 4 -6 2 -13 -2 -17 -5 -3 -18
-26 -28 -51 -10 -25 -24 -58 -31 -75 -14 -34 -35 -96 -35 -107 -1 -4 -8 -24
-16 -44 -26 -61 -65 -205 -59 -215 4 -5 1 -9 -5 -9 -6 0 -10 -6 -9 -12 2 -7
-3 -40 -10 -73 -8 -33 -15 -67 -16 -75 -2 -8 -4 -15 -5 -15 -1 0 -4 -20 -6
-45 -3 -25 -6 -54 -7 -65 -1 -11 -9 -20 -17 -20 -8 0 -14 5 -13 12 2 7 -3 10
-11 7 -17 -6 -31 12 -16 21 5 3 10 11 10 17 0 7 -5 6 -14 -1 -10 -8 -16 -9
-21 -1 -3 5 1 10 11 10 14 0 15 2 3 18 -13 16 -13 16 7 0 22 -19 39 -24 30 -9
-3 4 1 17 9 27 8 10 14 24 15 29 0 6 -10 -3 -21 -20 l-21 -30 5 43 c5 38 4 41
-8 26 -7 -10 -10 -24 -8 -31 3 -8 2 -13 -3 -11 -5 1 -18 -3 -29 -9 -18 -10
-21 -9 -22 8 -1 10 2 21 8 24 17 11 9 23 -11 18 -14 -4 -20 0 -20 11 0 10 -4
14 -10 11 -5 -3 -10 2 -10 11 0 15 -2 16 -13 5 -10 -10 -9 -15 5 -25 13 -10
14 -16 6 -24 -17 -17 -20 -82 -4 -82 17 0 61 -38 53 -46 -3 -3 -15 4 -26 15
-12 12 -26 20 -33 18 -14 -2 -29 71 -16 79 4 3 8 10 8 17 0 8 -3 8 -11 0 -6
-6 -17 -9 -24 -7 -7 3 -16 0 -21 -7 -5 -9 -2 -10 10 -6 12 5 16 3 13 -5 -2 -7
0 -21 5 -31 8 -16 7 -18 -10 -13 -26 9 -38 -10 -15 -23 24 -14 7 -14 -19 0
-13 7 -17 14 -10 18 8 5 7 15 -3 34 -7 15 -10 27 -5 27 4 0 10 -3 13 -7 2 -5
2 -2 0 5 -1 7 2 22 7 33 7 13 7 19 0 19 -5 0 -10 -7 -10 -15 0 -8 -4 -15 -10
-15 -16 0 -12 18 9 39 24 24 46 9 30 -21 -6 -12 -6 -18 1 -18 5 0 10 7 10 16
0 8 4 13 9 10 5 -3 14 1 20 8 8 10 9 16 1 21 -5 3 -10 1 -10 -6 0 -8 -6 -6
-18 4 -20 19 -52 23 -52 7 0 -5 -4 -10 -8 -10 -4 0 -8 12 -7 27 0 22 -5 27
-30 29 -27 3 -28 2 -7 -6 26 -11 30 -32 5 -23 -37 13 -44 25 -26 38 10 7 26
11 36 9 16 -3 17 -1 6 14 -7 9 -14 18 -15 20 -1 2 -9 -4 -18 -13 -14 -15 -16
-15 -16 -1 0 9 5 16 11 16 6 0 8 9 4 20 -4 14 -2 20 6 18 7 -2 17 10 23 25 8
22 7 30 -4 37 -12 8 -12 10 4 10 15 0 16 3 6 15 -10 12 -10 15 1 15 12 0 12 2
1 9 -11 7 -11 11 1 22 8 8 14 26 13 39 -1 14 4 24 10 23 6 -1 11 5 11 13 0 8
-5 14 -10 14 -5 0 -4 6 2 13 6 8 8 17 4 21 -4 4 -2 10 4 14 7 4 8 13 4 20 -7
12 -40 -87 -88 -263 -25 -94 -63 -287 -78 -399 -18 -128 -15 -495 5 -635 12
-88 73 -343 159 -664 55 -207 100 -415 130 -607 28 -176 24 -526 -7 -645 -38
-146 -115 -286 -206 -375 -63 -61 -61 -74 21 -101 75 -25 117 -47 185 -98 l48
-35 -6 -95 c-6 -91 -5 -98 18 -132 21 -30 24 -44 20 -92 -3 -44 0 -65 17 -97
25 -49 26 -71 5 -116 -11 -23 -27 -37 -52 -45 -58 -19 -104 -52 -147 -107 -22
-27 -55 -60 -72 -72 -39 -27 -93 -130 -93 -177 0 -19 11 -59 25 -89 37 -80 33
-119 -15 -184 -36 -48 -40 -59 -40 -112 0 -52 4 -64 43 -119 65 -94 67 -97 67
-192 0 -128 24 -170 144 -248 48 -31 68 -39 106 -39 27 0 52 -6 58 -13 12 -14
18 -354 27 -1492 3 -368 7 -827 10 -1020 3 -192 7 -494 10 -670 2 -176 7 -716
11 -1200 l7 -880 -28 -64 c-18 -43 -25 -74 -21 -93 3 -15 9 -41 12 -56 12 -58
-41 -189 -121 -298 -6 -9 4 -45 34 -116 23 -57 68 -175 99 -263 30 -88 62
-169 71 -179 47 -55 173 -74 284 -42 80 23 71 8 172 291 26 72 67 174 92 227
l46 97 -34 39 c-76 90 -119 216 -93 278 8 18 14 44 14 56 0 26 -33 123 -48
141 -6 7 -12 179 -16 397 -9 622 -21 2833 -21 3915 l0 1000 40 5 c24 3 61 20
88 39 l46 34 56 -18 c72 -22 113 -16 173 28 26 18 61 39 77 46 45 17 196 7
275 -19 99 -34 192 -31 272 7 44 21 91 34 156 42 100 12 250 58 291 89 36 26
33 46 -6 50 -18 2 -33 7 -33 11 0 22 80 81 125 92 58 15 112 43 138 73 18 21
18 20 14 -36 -3 -32 -13 -68 -21 -80 -20 -29 -20 -77 0 -106 15 -21 14 -25
-24 -70 -78 -94 -125 -175 -191 -330 -93 -214 -162 -409 -230 -647 -13 -45
-36 -91 -62 -125 -104 -139 -111 -181 -39 -243 22 -19 40 -40 40 -48 0 -8 -14
-50 -31 -94 -17 -44 -40 -102 -50 -130 -28 -77 -116 -356 -124 -395 -4 -19
-18 -56 -31 -82 -38 -75 -45 -208 -11 -208 6 0 25 20 40 45 16 25 32 45 37 45
10 0 5 -323 -7 -381 -6 -28 -6 -72 0 -115 5 -38 10 -89 10 -114 0 -55 -27
-250 -49 -345 -31 -136 -13 -320 37 -374 17 -18 79 -165 79 -187 0 -2 28 -34
61 -71 34 -37 64 -76 68 -85 4 -10 3 -63 -2 -118 -9 -98 -9 -101 20 -163 17
-34 36 -87 43 -117 19 -83 55 -151 105 -203 87 -88 226 -438 225 -569 0 -14
-11 -40 -26 -57 -14 -17 -39 -68 -55 -113 -27 -73 -29 -88 -20 -120 7 -22 28
-51 51 -71 22 -19 40 -38 40 -43 0 -5 -27 -32 -59 -59 -36 -31 -68 -68 -81
-97 -13 -26 -38 -62 -57 -80 -19 -18 -45 -53 -58 -78 -28 -55 -92 -130 -110
-130 -7 0 -33 -24 -59 -54 -25 -29 -57 -57 -72 -60 -37 -10 -72 -35 -79 -57
-4 -10 -13 -19 -21 -19 -8 0 -48 -18 -88 -40 -67 -37 -79 -40 -144 -39 -47 1
-81 -4 -103 -15 -18 -9 -43 -16 -56 -16 -34 0 -137 -55 -161 -85 -11 -14 -48
-39 -81 -56 -40 -20 -92 -61 -153 -122 -76 -75 -101 -107 -132 -172 -66 -138
-80 -200 -56 -246 16 -29 46 -23 119 25 64 42 80 48 189 66 49 8 113 -2 112
-18 -1 -4 -7 -34 -15 -67 -26 -105 -16 -265 15 -265 6 0 38 29 73 63 111 114
177 143 246 108 46 -24 112 -27 193 -10 65 14 95 29 138 69 18 17 45 37 59 45
30 15 84 23 90 12 2 -4 -2 -50 -9 -103 -21 -156 -1 -293 46 -311 18 -7 51 21
71 61 25 47 102 124 136 135 18 5 66 12 107 16 41 4 90 12 110 19 52 18 131
78 165 126 81 114 129 146 245 165 62 10 125 41 160 79 111 120 114 126 125
261 11 127 41 241 82 308 20 33 57 101 82 152 25 51 69 117 97 148 28 31 67
91 88 133 21 42 51 94 67 114 33 41 54 100 70 199 10 62 22 91 39 91 5 0 33
-20 63 -45 31 -25 58 -45 62 -45 3 0 3 19 0 43 -10 68 -79 185 -171 290 -79
91 -86 103 -94 155 -4 31 -16 98 -25 147 l-17 90 27 110 c15 61 30 148 33 195
3 67 10 94 30 128 l25 44 -26 131 c-15 73 -29 152 -33 177 -8 58 -27 88 -77
125 -37 27 -44 39 -67 120 -28 96 -47 133 -93 179 -62 64 -75 125 -45 215 l11
34 31 -81 c18 -45 35 -85 39 -89 5 -4 18 6 31 21 l22 29 18 -39 c10 -21 33
-68 50 -104 18 -36 48 -102 66 -147 18 -46 38 -83 45 -83 7 0 16 15 22 33 l9
32 49 -95 c69 -138 95 -165 95 -101 0 16 8 31 20 39 18 11 21 22 19 91 -1 43
2 84 6 91 4 7 11 77 15 157 7 128 11 149 32 181 13 20 32 53 41 73 9 20 23 42
31 48 13 11 18 4 32 -46 22 -77 31 -88 56 -66 21 19 22 19 55 -42 47 -83 81
-179 89 -250 8 -66 16 -84 60 -145 20 -28 55 -85 78 -128 23 -42 46 -77 51
-77 6 0 15 25 21 55 23 111 64 246 84 270 43 53 53 84 58 175 4 72 10 99 29
133 14 23 31 42 38 42 7 0 23 -32 35 -71 24 -72 73 -139 103 -139 21 0 51 52
76 132 11 38 27 80 34 94 14 26 14 26 41 -42 15 -38 38 -80 50 -94 37 -41 66
-86 113 -178 70 -136 85 -181 94 -272 4 -47 17 -107 28 -134 12 -26 21 -71 22
-99 0 -29 8 -81 17 -116 17 -63 17 -66 -6 -133 l-23 -68 56 -168 c57 -169 90
-241 124 -264 21 -15 175 -264 214 -348 60 -126 79 -193 84 -292 7 -112 -8
-219 -44 -327 -24 -71 -37 -201 -21 -216 3 -4 32 -17 65 -30 l58 -24 2 -63 c1
-35 3 -99 4 -144 2 -73 -1 -84 -24 -120 -17 -24 -27 -52 -27 -74 0 -37 -6 -45
-145 -223 -150 -191 -200 -301 -198 -437 1 -75 12 -107 46 -144 16 -17 27 -44
31 -79 4 -28 17 -89 28 -135 36 -143 72 -158 116 -46 26 64 63 118 91 133 10
6 46 15 80 20 76 12 130 52 172 126 27 47 33 53 80 63 28 7 55 10 60 6 5 -3 9
-21 9 -41 0 -49 52 -142 98 -174 20 -15 64 -33 96 -40 l58 -14 43 -92 c78
-167 106 -188 145 -106 12 25 30 80 41 120 22 89 22 89 62 109 18 9 44 28 59
42 24 22 34 46 67 161 4 13 17 31 28 38 20 14 24 10 66 -56 40 -61 54 -73 109
-100 49 -25 76 -31 125 -31 34 0 74 5 88 12 23 10 29 8 61 -23 20 -19 56 -64
79 -100 24 -37 48 -70 54 -73 17 -11 49 52 61 120 16 96 14 259 -6 323 -20 67
-23 84 -29 140 -2 25 -10 58 -16 75 -20 48 -113 169 -142 185 -15 8 -27 17
-27 21 0 4 -29 40 -65 81 -61 70 -102 149 -89 171 3 5 29 6 60 2 126 -15 535
82 568 135 4 5 28 17 54 25 35 12 71 39 136 100 60 58 93 82 105 79 29 -8 56
38 100 170 54 163 85 240 96 243 6 2 23 -17 38 -41 18 -29 33 -42 43 -38 10 4
12 0 7 -13 -4 -12 -3 -15 5 -10 17 10 15 163 -2 239 -25 109 -45 230 -51 307
-3 41 -8 97 -11 123 l-6 49 63 -46 c35 -25 68 -46 75 -46 6 0 14 12 17 27 6
31 -37 124 -111 238 -24 39 -50 79 -57 90 -7 11 -21 29 -32 40 -34 37 -90 120
-103 155 -7 19 -26 61 -42 94 -32 63 -31 75 5 59 97 -44 120 -53 136 -53 36 0
31 46 -10 99 -48 61 -279 297 -339 345 -51 42 -75 71 -111 137 -25 46 -43 85
-38 87 4 2 24 -4 46 -13 52 -23 128 -34 166 -25 l32 8 -156 155 c-117 116
-181 171 -253 217 -69 45 -108 78 -139 119 -57 75 -91 131 -83 138 3 3 41 -6
83 -21 168 -59 178 -59 151 -3 -38 78 -307 345 -404 401 -23 14 -115 129 -132
166 -1 4 37 -2 85 -11 108 -22 183 -24 183 -6 0 18 -48 66 -167 165 -57 47
-103 90 -103 96 0 7 21 33 48 58 45 44 50 46 114 50 80 5 107 21 158 96 19 29
53 64 74 79 21 16 60 59 87 96 26 37 68 84 92 102 58 45 74 92 81 250 3 66 12
156 22 200 9 44 18 132 19 195 2 63 4 120 4 127 1 6 16 16 34 22 47 16 85 56
93 97 3 19 4 70 0 112 -4 55 -2 93 9 132 8 30 15 72 15 93 0 95 40 246 196
732 59 188 82 247 105 270 55 58 72 142 49 242 -9 40 -7 48 44 145 67 129 88
192 84 257 l-3 51 -25 -23 c-50 -46 -141 -117 -150 -117 -17 0 -11 87 20 300
32 222 35 275 19 333 -14 51 -38 48 -68 -9 -25 -47 -125 -144 -148 -144 -7 0
-13 9 -13 21 0 28 -83 233 -113 277 -13 21 -34 80 -47 132 -12 52 -27 103 -32
113 -5 11 -10 56 -9 102 0 63 -5 91 -20 119 -11 20 -17 41 -14 46 3 6 27 22
53 37 64 36 90 61 114 106 l19 39 -64 106 c-36 59 -72 121 -81 139 -18 37 -21
33 64 91 68 46 101 100 90 147 -4 18 -40 78 -79 133 -67 94 -74 108 -102 217
-102 396 -255 663 -495 864 -129 108 -163 131 -287 195 -98 50 -247 103 -398
141 l-67 17 -7 57 c-9 71 -34 121 -81 159 -47 39 -101 52 -217 52 -122 0 -191
-21 -366 -111 -152 -78 -129 -79 -224 11 -82 76 -78 82 24 42 75 -30 92 -34
99 -22 12 19 -38 111 -100 187 -102 121 -160 220 -144 244 5 8 55 6 157 -7 33
-4 47 -2 47 6 0 15 -80 130 -127 183 -18 20 -33 45 -33 55 0 11 27 38 68 68
79 57 142 113 142 124 0 18 -62 20 -156 6 -146 -22 -164 -23 -170 -15 -8 13
38 38 94 50 30 6 56 18 59 26 8 21 -42 69 -119 114 -37 22 -70 44 -73 49 -11
17 7 36 115 123 217 174 375 377 294 377 -9 0 -40 -13 -68 -29 -68 -39 -328
-141 -357 -141 -13 0 -36 8 -50 18 -81 54 -109 76 -109 88 0 15 50 63 230 219
74 65 138 126 142 137 4 10 28 47 53 82 55 78 137 241 159 318 43 152 61 279
37 278 -3 0 -53 -47 -111 -103z m-4223 -249 c-3 -8 -6 -5 -6 6 -1 11 2 17 5
13 3 -3 4 -12 1 -19z m77 7 c-4 -8 -8 -15 -10 -15 -2 0 -4 7 -4 15 0 8 4 15
10 15 5 0 7 -7 4 -15z m-124 -20 c19 -23 8 -25 -14 -4 -11 11 -15 19 -9 19 6
0 16 -7 23 -15z m247 0 c0 -8 -4 -12 -9 -9 -4 3 -8 9 -8 15 0 5 4 9 8 9 5 0 9
-7 9 -15z m-287 -9 c0 -8 -7 -17 -16 -20 -15 -6 -15 -4 -3 11 13 17 13 17 -12
1 -18 -11 -30 -13 -40 -6 -12 8 -12 9 1 5 8 -2 21 2 28 10 18 17 42 17 42 -1z
m-90 -46 c6 9 10 10 10 3 0 -19 -19 -26 -35 -13 -8 6 -19 9 -25 5 -5 -3 -10
-2 -10 4 0 17 25 18 37 2 11 -14 14 -14 23 -1z m-76 -21 c-6 -11 -24 -2 -24
11 0 5 7 7 15 4 8 -4 12 -10 9 -15z m239 -4 c-3 -9 -8 -14 -10 -11 -3 3 -2 9
2 15 9 16 15 13 8 -4z m-167 -13 c-10 -2 -22 0 -28 6 -6 6 0 7 19 4 21 -5 23
-7 9 -10z m-40 -3 c3 -6 1 -16 -6 -22 -10 -10 -12 -8 -6 8 6 19 5 19 -8 3 -15
-20 -36 -24 -36 -7 0 5 4 8 9 5 5 -3 11 1 15 9 6 18 22 20 32 4z m239 -17
c-10 -9 -15 -11 -11 -4 4 6 2 12 -3 12 -6 0 -11 -7 -11 -15 0 -8 -4 -15 -10
-15 -5 0 -10 4 -10 9 0 14 28 33 40 26 5 -3 10 -1 10 6 0 7 3 9 7 5 4 -3 -1
-14 -12 -24z m-191 -17 c-4 -8 -8 -15 -10 -15 -2 0 -4 7 -4 15 0 8 4 15 10 15
5 0 7 -7 4 -15z m146 -16 c0 -5 -12 -9 -26 -9 -17 0 -28 -6 -31 -20 -6 -22
-11 -24 -31 -11 -10 6 -4 14 22 29 20 12 36 27 36 33 0 8 4 8 15 -1 8 -7 15
-16 15 -21z m-170 11 c0 -5 -2 -10 -4 -10 -3 0 -8 5 -11 10 -3 6 -1 10 4 10 6
0 11 -4 11 -10z m43 -35 c-6 -17 -23 -20 -23 -4 0 6 -5 7 -12 2 -7 -4 -25 -8
-40 -9 -22 0 -25 2 -16 13 7 9 24 12 50 9 26 -3 36 -2 32 6 -4 7 -3 8 4 4 6
-4 9 -13 5 -21z m2440 -390 c-3 -9 -8 -14 -10 -11 -3 3 -2 9 2 15 9 16 15 13
8 -4z m997 -35 c0 -5 8 -10 17 -10 9 0 14 -3 10 -6 -8 -8 -47 5 -47 17 0 5 5
9 10 9 6 0 10 -4 10 -10z m870 -134 c0 -3 -4 -8 -10 -11 -5 -3 -10 -1 -10 4 0
6 5 11 10 11 6 0 10 -2 10 -4z m-940 -16 c0 -5 -5 -10 -11 -10 -5 0 -7 5 -4
10 3 6 8 10 11 10 2 0 4 -4 4 -10z m826 -57 c-15 -12 -32 -23 -39 -23 -7 1 -1
7 13 15 14 7 26 18 26 24 3 21 4 22 16 15 8 -5 2 -15 -16 -31z m-916 -13 c0
-5 -2 -10 -4 -10 -3 0 -8 5 -11 10 -3 6 -1 10 4 10 6 0 11 -4 11 -10z m-155
-10 c3 -5 1 -10 -4 -10 -6 0 -11 5 -11 10 0 6 2 10 4 10 3 0 8 -4 11 -10z
m116 -23 c-10 -9 -11 -8 -5 6 3 10 9 15 12 12 3 -3 0 -11 -7 -18z m-178 -82
c-3 -9 -8 -14 -10 -11 -3 3 -2 9 2 15 9 16 15 13 8 -4z m4 -57 c-3 -8 -6 -5
-6 6 -1 11 2 17 5 13 3 -3 4 -12 1 -19z m-750 -20 c-3 -7 -5 -2 -5 12 0 14 2
19 5 13 2 -7 2 -19 0 -25z m713 18 c0 -2 -8 -10 -17 -17 -16 -13 -17 -12 -4 4
13 16 21 21 21 13z m-375 -76 c3 -5 1 -10 -4 -10 -6 0 -11 5 -11 10 0 6 2 10
4 10 3 0 8 -4 11 -10z m-30 -20 c-3 -5 -11 -10 -16 -10 -6 0 -7 5 -4 10 3 6
11 10 16 10 6 0 7 -4 4 -10z m255 -14 c0 -3 -4 -8 -10 -11 -5 -3 -10 -1 -10 4
0 6 5 11 10 11 6 0 10 -2 10 -4z m-370 -100 c0 -2 -7 -7 -16 -10 -8 -3 -12 -2
-9 4 6 10 25 14 25 6z m125 -24 c-3 -3 -11 0 -18 7 -9 10 -8 11 6 5 10 -3 15
-9 12 -12z m-45 -12 c0 -5 -5 -10 -11 -10 -5 0 -7 5 -4 10 3 6 8 10 11 10 2 0
4 -4 4 -10z m200 0 c0 -5 -5 -10 -11 -10 -5 0 -7 5 -4 10 3 6 8 10 11 10 2 0
4 -4 4 -10z m-210 -24 c0 -2 -7 -6 -15 -10 -8 -3 -15 -1 -15 4 0 6 7 10 15 10
8 0 15 -2 15 -4z m59 -22 c-6 -7 -17 -10 -25 -7 -23 8 -16 21 11 21 20 0 23
-3 14 -14z m153 -19 c-8 -16 -9 -16 -15 -1 -4 10 -3 15 3 11 6 -3 10 -1 10 6
0 7 3 10 6 6 3 -3 2 -13 -4 -22z m-366 -7 c5 -7 3 -8 -6 -3 -9 5 -10 2 -6 -13
4 -11 3 -23 -2 -25 -6 -5 -9 39 -3 51 3 5 10 1 17 -10z m199 -7 c3 -5 1 -12
-5 -16 -5 -3 -10 1 -10 9 0 18 6 21 15 7z m32 -13 c-3 -8 -6 -5 -6 6 -1 11 2
17 5 13 3 -3 4 -12 1 -19z m-133 -26 c3 -5 -1 -9 -9 -9 -8 0 -12 4 -9 9 3 4 7
8 9 8 2 0 6 -4 9 -8z m146 -27 c0 -5 -5 -3 -10 5 -5 8 -10 20 -10 25 0 6 5 3
10 -5 5 -8 10 -19 10 -25z m1684 20 c-10 -8 -23 -15 -28 -15 -6 0 -1 7 10 15
10 8 23 15 28 15 6 0 1 -7 -10 -15z m-1953 -28 c-10 -9 -11 -8 -5 6 3 10 9 15
12 12 3 -3 0 -11 -7 -18z m1909 19 c0 -3 -4 -8 -10 -11 -5 -3 -10 -1 -10 4 0
6 5 11 10 11 6 0 10 -2 10 -4z m-1994 -81 c-13 -29 -25 -24 -19 9 3 15 10 23
18 20 10 -4 10 -11 1 -29z m567 -27 c4 -10 8 -9 16 2 9 13 12 12 25 -5 18 -24
20 -35 5 -35 -6 0 -9 -7 -5 -15 3 -8 -2 -19 -12 -24 -12 -7 -13 -10 -3 -11 11
0 11 -3 1 -15 -7 -9 -19 -14 -27 -11 -7 3 -13 2 -13 -3 0 -5 -11 -11 -25 -13
-13 -3 -22 -1 -19 3 3 5 11 9 18 9 12 0 14 11 19 113 1 20 13 23 20 5z m552
-58 c3 -5 1 -10 -4 -10 -6 0 -11 5 -11 10 0 6 2 10 4 10 3 0 8 -4 11 -10z
m-4700 -39 c-3 -6 -11 -11 -16 -11 -5 0 -4 6 3 14 14 16 24 13 13 -3z m4312
-87 c-3 -3 -12 -4 -19 -1 -8 3 -5 6 6 6 11 1 17 -2 13 -5z m-4307 -80 c0 -3
-4 -3 -9 0 -5 3 -11 -1 -15 -9 -3 -9 0 -15 8 -15 7 0 19 -7 26 -15 9 -10 9
-15 1 -15 -6 0 -11 5 -11 10 0 6 -9 10 -20 10 -14 0 -20 7 -20 23 0 13 -6 29
-12 36 -8 8 -1 7 20 -3 17 -9 32 -19 32 -22z m3395 26 c-3 -5 -12 -10 -18 -10
-7 0 -6 4 3 10 19 12 23 12 15 0z m-3435 -80 c0 -5 -7 -10 -16 -10 -8 0 -12 5
-9 10 3 6 10 10 16 10 5 0 9 -4 9 -10z m212 -40 c-7 -12 -8 -21 -2 -25 6 -3
10 -12 10 -18 0 -7 -4 -6 -10 3 -5 8 -10 11 -10 5 -1 -5 -5 0 -11 13 -11 30 7
70 24 53 9 -9 8 -16 -1 -31z m-174 11 c-7 -11 -16 -18 -20 -15 -4 3 -2 11 5
19 18 21 29 18 15 -4z m-38 -15 c0 -3 -4 -8 -10 -11 -5 -3 -10 -1 -10 4 0 6 5
11 10 11 6 0 10 -2 10 -4z m61 -33 c-12 -20 -14 -14 -5 12 4 9 9 14 11 11 3
-2 0 -13 -6 -23z m189 -17 c0 -3 -4 -8 -10 -11 -5 -3 -10 -1 -10 4 0 6 5 11
10 11 6 0 10 -2 10 -4z m-230 -36 c14 -16 163 -107 193 -117 9 -3 17 -14 17
-24 0 -19 -2 -18 -30 3 -23 17 -33 19 -42 10 -15 -15 -28 -16 -28 -2 0 6 5 9
11 8 6 -2 13 2 15 8 3 6 -20 23 -51 38 -30 16 -55 33 -55 38 0 5 -4 7 -10 3
-5 -3 -7 -13 -4 -23 2 -9 -1 -7 -7 6 -10 19 -35 27 -70 24 -3 -1 -6 6 -6 14 0
8 6 14 14 14 7 0 13 4 13 10 0 9 30 2 40 -10z m70 -5 c0 -12 -19 -12 -23 0 -4
9 -1 12 9 8 7 -3 14 -7 14 -8z m40 -5 c0 -5 -4 -10 -10 -10 -5 0 -10 5 -10 10
0 6 5 10 10 10 6 0 10 -4 10 -10z m165 -9 c-3 -6 3 -15 14 -20 14 -8 21 -8 25
2 3 6 4 -7 4 -31 -1 -24 -5 -45 -8 -47 -4 -2 -5 -23 -3 -46 2 -27 -1 -46 -9
-50 -10 -7 -10 -11 0 -21 6 -6 12 -17 12 -22 0 -6 -5 -4 -10 4 -8 13 -10 13
-10 -2 0 -9 5 -20 10 -23 16 -10 12 -32 -7 -40 -14 -5 -15 -3 -6 6 9 9 8 17
-4 35 -8 13 -12 28 -8 34 3 5 1 10 -4 10 -6 0 -11 5 -11 11 0 5 5 7 10 4 6 -3
10 -2 10 4 0 5 -5 13 -10 16 -6 4 -9 14 -8 23 2 10 -7 21 -19 27 -26 11 -32
31 -7 21 8 -3 13 -2 10 3 -3 5 1 11 9 15 8 3 14 2 14 -2 -3 -19 2 -22 16 -8
22 21 19 41 -10 62 -18 13 -21 21 -13 31 12 15 22 18 13 4z m3225 -15 c0 -3
-4 -8 -10 -11 -5 -3 -10 -1 -10 4 0 6 5 11 10 11 6 0 10 -2 10 -4z m-3549 -29
c-10 -9 -11 -8 -5 6 3 10 9 15 12 12 3 -3 0 -11 -7 -18z m39 13 c0 -5 -5 -10
-11 -10 -5 0 -7 5 -4 10 3 6 8 10 11 10 2 0 4 -4 4 -10z m3422 -22 c-7 -7 -12
-8 -12 -2 0 14 12 26 19 19 2 -3 -1 -11 -7 -17z m-3442 -8 c0 -5 -5 -10 -11
-10 -5 0 -7 5 -4 10 3 6 8 10 11 10 2 0 4 -4 4 -10z m230 6 c0 -2 -7 -7 -16
-10 -8 -3 -12 -2 -9 4 6 10 25 14 25 6z m90 -17 c0 -6 -4 -7 -10 -4 -5 3 -10
11 -10 16 0 6 5 7 10 4 6 -3 10 -11 10 -16z m3084 6 c-4 -8 -11 -15 -16 -15
-6 0 -5 6 2 15 7 8 14 15 16 15 2 0 1 -7 -2 -15z m-3379 -53 c-3 -3 -11 0 -18
7 -9 10 -8 11 6 5 10 -3 15 -9 12 -12z m105 -12 c0 -5 -2 -10 -4 -10 -3 0 -8
5 -11 10 -3 6 -1 10 4 10 6 0 11 -4 11 -10z m116 -38 c-6 -5 -55 31 -56 41 0
4 13 -2 30 -14 16 -13 28 -24 26 -27z m-138 3 c-3 -3 -9 2 -12 12 -6 14 -5 15
5 6 7 -7 10 -15 7 -18z m-118 -5 c0 -5 -2 -10 -4 -10 -3 0 -8 5 -11 10 -3 6
-1 10 4 10 6 0 11 -4 11 -10z m180 -75 c-7 -9 -15 -13 -19 -10 -3 3 1 10 9 15
21 14 24 12 10 -5z m-183 -27 c-3 -8 -6 -5 -6 6 -1 11 2 17 5 13 3 -3 4 -12 1
-19z m43 18 c0 -2 -7 -7 -16 -10 -8 -3 -12 -2 -9 4 6 10 25 14 25 6z m5559
-304 c-107 -111 -210 -248 -274 -367 -53 -97 -85 -150 -84 -140 0 6 19 47 43
92 32 63 40 86 33 100 -8 14 -7 16 3 6 10 -9 24 5 67 64 30 42 52 82 49 90 -3
8 -2 12 2 9 4 -2 28 19 52 47 51 59 209 217 217 217 3 0 -46 -53 -108 -118z
m-5289 98 c0 -5 -2 -10 -4 -10 -3 0 -8 5 -11 10 -3 6 -1 10 4 10 6 0 11 -4 11
-10z m2618 -40 c-7 -10 -14 -17 -17 -15 -4 4 18 35 25 35 2 0 -1 -9 -8 -20z
m-2570 -15 c0 -13 -4 -22 -9 -20 -9 6 -8 45 2 45 4 0 7 -11 7 -25z m5 -110
c-10 -8 -19 -9 -21 -4 -2 5 -11 9 -20 10 -10 1 -6 4 8 8 36 11 55 2 33 -14z
m14 -87 c-3 -8 -6 -5 -6 6 -1 11 2 17 5 13 3 -3 4 -12 1 -19z m2418 -18 c-4
-12 -9 -19 -12 -17 -3 3 -2 15 2 27 4 12 9 19 12 17 3 -3 2 -15 -2 -27z m-22
-52 c-11 -17 -43 -20 -36 -2 2 7 11 10 19 7 8 -3 14 1 14 8 0 7 3 10 6 6 3 -3
2 -11 -3 -19z m3403 -3 c-3 -8 0 -15 6 -15 6 0 9 -3 5 -6 -10 -11 -26 6 -20
21 3 8 7 15 10 15 3 0 3 -7 -1 -15z m-6156 -17 c0 -6 -6 -5 -15 2 -8 7 -15 14
-15 16 0 2 7 1 15 -2 8 -4 15 -11 15 -16z m5770 -23 c-17 -25 -35 -45 -41 -45
-5 0 7 20 28 45 20 25 39 45 41 45 1 0 -11 -20 -28 -45z m308 -20 c-3 -3 -9 2
-12 12 -6 14 -5 15 5 6 7 -7 10 -15 7 -18z m356 -1 c3 -8 2 -12 -4 -9 -6 3
-10 10 -10 16 0 14 7 11 14 -7z m-204 -8 c0 -3 -4 -8 -10 -11 -5 -3 -10 -1
-10 4 0 6 5 11 10 11 6 0 10 -2 10 -4z m-3518 -28 c-7 -7 -12 -8 -12 -2 0 14
12 26 19 19 2 -3 -1 -11 -7 -17z m2868 12 c0 -5 -5 -10 -11 -10 -5 0 -7 5 -4
10 3 6 8 10 11 10 2 0 4 -4 4 -10z m469 -37 c-4 -12 -5 -23 -1 -26 4 -2 1 -2
-6 -1 -7 2 -12 -4 -10 -13 2 -12 -4 -18 -20 -19 -31 -2 -41 -14 -11 -14 13 0
33 -2 44 -4 11 -2 14 -1 8 1 -7 3 -13 9 -13 15 0 5 7 7 16 4 9 -4 13 -2 8 5
-4 8 1 9 16 4 20 -6 21 -4 15 17 -4 12 -13 26 -19 30 -17 12 0 9 28 -3 14 -7
23 -16 20 -20 -3 -5 1 -6 9 -3 8 3 18 -6 25 -21 13 -27 27 -32 35 -12 4 9 8 8
16 -3 9 -13 11 -13 11 3 0 9 -5 17 -11 17 -8 0 -8 4 1 15 6 8 8 20 4 27 -6 10
-5 10 8 0 14 -11 18 -10 26 4 6 11 11 13 16 5 4 -6 2 -11 -3 -11 -6 0 -11 -5
-11 -11 0 -5 5 -7 10 -4 16 10 24 -23 10 -40 -9 -10 -9 -15 -1 -15 6 0 11 5
11 10 0 6 5 10 12 10 6 0 3 -9 -7 -20 -14 -16 -20 -17 -26 -8 -10 15 -41 0
-47 -23 -2 -9 2 -8 11 4 12 14 16 15 26 4 6 -8 8 -17 4 -20 -3 -4 0 -13 7 -22
7 -8 10 -21 7 -29 -4 -10 0 -12 16 -8 12 3 24 9 27 13 3 5 16 10 28 12 12 2
28 9 34 15 7 7 23 12 36 12 21 0 22 2 12 15 -7 8 -9 15 -4 15 19 0 32 -16 31
-35 -2 -16 3 -19 25 -17 19 2 30 -3 38 -18 15 -27 7 -36 -13 -15 -17 16 -27
19 -27 7 0 -15 56 -42 66 -32 7 7 17 5 30 -5 18 -13 18 -14 1 -15 -10 0 -16
-4 -12 -9 3 -5 -4 -12 -15 -16 -20 -6 -28 -25 -10 -25 6 0 6 -9 0 -25 -5 -14
-7 -25 -4 -25 4 0 1 -7 -6 -15 -11 -13 -10 -14 4 -9 14 6 16 2 11 -22 -5 -22
-4 -25 4 -14 6 8 11 22 11 31 0 17 28 34 39 24 3 -3 0 -15 -7 -25 -10 -16 -9
-18 3 -14 8 4 15 1 15 -6 0 -6 4 -9 8 -6 10 6 40 -56 34 -72 -2 -7 -7 -10 -11
-8 -4 3 -13 0 -21 -6 -13 -8 -12 -9 2 -5 16 6 35 -20 23 -31 -3 -3 -5 0 -5 7
0 7 -5 9 -10 6 -6 -4 -8 -10 -5 -15 3 -5 1 -11 -4 -14 -5 -4 -12 2 -16 13 -4
13 -12 17 -25 14 -12 -3 -20 0 -20 6 0 7 5 9 10 6 6 -3 10 -1 10 4 0 18 -24
12 -43 -9 -19 -22 -22 -35 -8 -25 6 3 15 -3 21 -12 11 -17 11 -17 6 0 -7 24
28 23 53 -2 18 -18 18 -19 -14 -50 -18 -17 -43 -31 -54 -31 -22 0 -28 14 -11
25 6 3 10 12 9 18 0 8 -3 7 -6 -2 -5 -11 -7 -11 -15 0 -8 11 -9 10 -5 -3 3 -9
-1 -22 -9 -29 -12 -10 -12 -14 -2 -20 8 -5 2 -8 -16 -6 -16 1 -31 -3 -33 -10
-3 -7 4 -10 19 -7 21 4 21 4 3 -4 -11 -5 -25 -7 -31 -5 -7 2 -15 0 -19 -6 -3
-6 -11 -11 -16 -11 -6 0 -8 4 -5 8 2 4 -13 8 -35 7 -32 -1 -39 2 -34 14 3 9
-8 2 -23 -15 -16 -17 -36 -33 -45 -37 -19 -7 -22 -23 -7 -32 6 -3 10 0 10 8 0
10 8 14 23 11 12 -2 17 -2 10 2 -10 4 -10 10 0 25 14 22 32 26 24 5 -4 -10 -1
-13 7 -10 7 3 13 -2 13 -11 0 -8 -7 -15 -16 -15 -11 -1 -9 -4 7 -13 18 -10 20
-15 10 -26 -11 -11 -9 -11 9 0 18 11 20 16 10 28 -9 11 -9 13 0 8 6 -4 13 -4
16 0 2 5 2 3 1 -4 -4 -17 13 -26 19 -11 3 8 6 6 6 -4 1 -10 -9 -23 -21 -30
-22 -12 -27 -13 -56 -16 -7 -1 -10 -7 -6 -13 4 -8 9 -7 15 2 4 7 11 10 14 7 4
-4 -3 -17 -15 -30 -17 -17 -21 -19 -17 -5 4 11 1 17 -8 17 -7 0 -17 -9 -20
-20 -3 -11 -11 -20 -16 -20 -14 0 -11 11 11 48 18 29 18 32 2 32 -15 0 -15 2
-2 11 13 9 13 10 0 6 -8 -2 -16 -9 -16 -15 -1 -7 -2 -16 -3 -22 0 -5 -8 -7
-17 -3 -11 4 -12 9 -5 16 16 16 14 25 -10 38 -12 6 -19 7 -16 2 3 -4 -11 -9
-31 -9 -21 -1 -28 0 -16 3 19 4 18 6 -12 38 -41 44 -62 45 -55 3 0 -5 -3 -8
-9 -8 -15 0 -12 27 5 44 9 9 11 17 5 21 -5 3 -8 19 -6 36 3 28 2 29 -17 16
-11 -7 -26 -31 -32 -53 -6 -21 -13 -34 -16 -27 -2 6 -11 13 -19 15 -8 2 -18
10 -21 18 -5 11 -10 8 -19 -12 -7 -16 -20 -28 -28 -28 -12 0 -10 6 7 22 21 19
22 23 8 33 -11 7 -13 16 -6 26 7 11 9 10 9 -6 0 -16 2 -17 9 -5 6 8 7 18 5 22
-3 4 0 8 5 8 6 0 11 -4 11 -10 0 -5 6 -10 14 -10 8 0 16 -4 18 -10 2 -6 9 -6
18 0 13 8 12 11 -5 23 -10 8 -24 13 -30 10 -18 -6 -38 24 -32 49 3 13 1 32 -3
43 l-9 20 0 -20 c-1 -15 -3 -17 -10 -6 -5 8 -14 10 -22 5 -9 -5 -7 2 4 20 18
27 18 27 -1 17 -18 -10 -19 -8 -15 23 2 19 0 37 -6 41 -6 3 -11 0 -11 -7 0 -9
-3 -9 -10 2 -9 13 -11 13 -20 0 -8 -13 -10 -12 -10 3 0 9 -6 17 -12 17 -8 1
-6 6 4 14 10 7 15 15 12 18 -3 4 -1 9 5 13 6 3 11 2 11 -3 0 -6 7 -12 15 -16
12 -4 13 -2 6 13 -15 28 -39 43 -53 35 -10 -6 -9 -3 1 9 11 14 11 20 1 32 -9
10 -9 15 -1 15 6 0 11 -5 11 -10 0 -7 8 -7 23 1 22 12 22 12 4 -9 -20 -22 -16
-42 10 -42 13 0 13 3 3 15 -7 8 -8 15 -2 15 5 0 15 -6 21 -14 9 -11 8 -15 -5
-20 -14 -5 -15 -9 -4 -19 10 -9 13 -9 17 1 3 6 12 12 21 12 13 0 11 5 -8 20
-14 10 -21 22 -17 26 4 4 17 -2 30 -14 21 -20 23 -20 23 -2 0 10 -4 16 -8 14
-6 -4 -30 12 -63 44 -16 14 -29 16 -20 2 3 -5 2 -10 -3 -10 -20 0 -21 29 -1
35 10 4 19 11 19 17 0 7 -4 7 -13 -1 -8 -6 -17 -8 -20 -5 -3 4 -9 -5 -13 -20
l-6 -26 -19 24 c-10 13 -19 30 -18 38 0 7 4 3 10 -10 11 -30 31 -19 20 11 -4
12 -6 28 -4 34 3 7 -2 16 -11 19 -23 9 -20 23 4 17 11 -3 28 1 37 8 15 12 16
12 10 -3 -3 -10 -2 -18 3 -18 13 0 13 27 0 35 -6 4 -17 1 -25 -5 -8 -7 -15 -9
-15 -5 0 9 31 34 43 35 5 0 5 -4 2 -10 -8 -13 -2 -13 29 1 14 7 23 16 20 20
-3 5 2 9 10 9 22 0 20 -30 -1 -31 -10 0 -13 -3 -6 -5 7 -3 9 -12 6 -21 -4 -11
-2 -14 5 -9 7 4 12 13 12 20 0 7 9 21 20 31 11 10 17 22 14 26 -3 5 0 9 5 9 6
0 11 -7 11 -16 0 -9 6 -14 13 -11 6 2 11 18 11 35 -2 24 1 28 11 19 8 -8 10
-19 4 -34z m-338 4 c-10 -9 -11 -8 -5 6 3 10 9 15 12 12 3 -3 0 -11 -7 -18z
m234 3 c-3 -5 -12 -10 -18 -10 -7 0 -6 4 3 10 19 12 23 12 15 0z m439 -6 c3
-8 2 -12 -4 -9 -6 3 -10 10 -10 16 0 14 7 11 14 -7z m204 -8 c-7 -8 -15 -12
-17 -11 -5 6 10 25 20 25 5 0 4 -6 -3 -14z m-672 -23 c-7 -7 -26 7 -26 19 0 6
6 6 15 -2 9 -7 13 -15 11 -17z m-3219 -5 c-3 -8 -6 -5 -6 6 -1 11 2 17 5 13 3
-3 4 -12 1 -19z m2991 0 c-19 -33 -58 -81 -58 -71 0 10 59 93 66 93 2 0 -1
-10 -8 -22z m703 8 c11 6 12 5 2 -8 -7 -8 -10 -18 -6 -21 3 -4 1 -7 -6 -7 -7
0 -9 -5 -5 -12 4 -7 3 -8 -5 -4 -7 5 -9 16 -5 28 4 14 2 18 -5 14 -7 -5 -8 -1
-4 9 4 12 8 13 13 5 5 -8 13 -9 21 -4z m-6004 -28 c-3 -8 -6 -5 -6 6 -1 11 2
17 5 13 3 -3 4 -12 1 -19z m6213 6 c0 -8 -19 -13 -24 -6 -3 5 1 9 9 9 8 0 15
-2 15 -3z m-1705 -14 c-3 -5 -16 -15 -28 -21 -21 -10 -21 -9 2 10 25 23 36 27
26 11z m-4495 -20 c0 -5 -2 -10 -4 -10 -3 0 -8 5 -11 10 -3 6 -1 10 4 10 6 0
11 -4 11 -10z m6195 -8 c-3 -3 -11 0 -18 7 -9 10 -8 11 6 5 10 -3 15 -9 12
-12z m-252 -16 c9 -7 17 -17 17 -22 0 -4 -5 -3 -12 4 -17 17 -31 15 -24 -4 3
-8 2 -12 -3 -9 -5 3 -12 1 -16 -5 -3 -5 -10 -10 -16 -10 -5 0 0 9 11 20 12 12
18 25 15 30 -9 14 7 12 28 -4z m317 0 c0 -3 -4 -8 -10 -11 -5 -3 -10 -1 -10 4
0 6 5 11 10 11 6 0 10 -2 10 -4z m-74 -43 c-7 -7 -26 7 -26 19 0 6 6 6 15 -2
9 -7 13 -15 11 -17z m-1816 12 c0 -2 -10 -9 -22 -15 -22 -11 -22 -10 -4 4 21
17 26 19 26 11z m840 -14 c-10 -20 -30 -37 -30 -27 0 6 33 46 38 46 1 0 -2 -9
-8 -19z m925 9 c3 -5 1 -10 -4 -10 -6 0 -11 5 -11 10 0 6 2 10 4 10 3 0 8 -4
11 -10z m145 -4 c0 -3 -4 -8 -10 -11 -5 -3 -10 -1 -10 4 0 6 5 11 10 11 6 0
10 -2 10 -4z m-1961 -20 c-11 -11 -139 -64 -139 -58 0 4 28 19 63 34 59 25 86
33 76 24z m1081 -6 c0 -5 -5 -10 -11 -10 -5 0 -7 5 -4 10 3 6 8 10 11 10 2 0
4 -4 4 -10z m750 0 c0 -5 -5 -10 -11 -10 -5 0 -7 5 -4 10 3 6 8 10 11 10 2 0
4 -4 4 -10z m180 6 c0 -3 -4 -8 -10 -11 -5 -3 -10 -1 -10 4 0 6 5 11 10 11 6
0 10 -2 10 -4z m-1158 -53 c-22 -41 -72 -163 -98 -240 -16 -46 -32 -83 -36
-83 -8 0 -2 17 57 175 20 55 41 104 46 110 5 5 9 16 9 25 0 16 20 43 28 36 2
-2 -1 -12 -6 -23z m-367 0 c-4 -10 -16 -40 -27 -68 -14 -37 -18 -42 -14 -18 6
38 32 103 42 103 3 0 3 -8 -1 -17z m609 -14 c-29 -12 -36 -10 -22 5 7 7 19 11
27 8 11 -4 10 -7 -5 -13z m-1273 -14 c-18 -8 -36 -15 -40 -15 -13 1 45 29 59
29 8 0 0 -6 -19 -14z m629 11 c0 -3 -4 -8 -10 -11 -5 -3 -10 -1 -10 4 0 6 5
11 10 11 6 0 10 -2 10 -4z m1420 -23 c1 -16 2 -16 15 1 8 11 15 15 15 9 0 -14
-28 -43 -41 -43 -5 0 -8 -5 -6 -11 1 -6 -3 -14 -10 -16 -15 -5 -13 58 2 69 16
12 25 9 25 -9z m74 -32 c-2 -3 -12 3 -22 13 -16 17 -16 18 5 5 12 -7 20 -15
17 -18z m-2209 10 c-15 -15 -155 -73 -167 -69 -5 2 14 14 44 26 29 13 67 29
83 37 36 17 53 19 40 6z m1385 -17 c0 -2 -9 0 -20 6 -11 6 -20 13 -20 16 0 2
9 0 20 -6 11 -6 20 -13 20 -16z m-3193 -6 c-3 -8 -6 -5 -6 6 -1 11 2 17 5 13
3 -3 4 -12 1 -19z m3967 -14 c5 -14 4 -15 -9 -4 -17 14 -19 20 -6 20 5 0 12
-7 15 -16z m66 3 c-14 -8 -27 -12 -30 -10 -7 6 23 23 40 23 8 0 4 -6 -10 -13z
m-862 -42 c-2 -1 -14 -8 -28 -15 l-25 -13 20 20 c11 11 24 18 28 16 5 -3 7 -6
5 -8z m828 -12 c-4 -9 -1 -13 6 -10 7 2 13 10 12 18 -1 9 9 14 27 14 22 0 25
-3 16 -14 -10 -12 -9 -14 5 -8 10 3 20 1 24 -5 4 -7 10 -6 16 3 7 11 8 9 4 -5
-5 -13 -2 -17 9 -12 8 3 15 1 15 -4 0 -17 -38 -11 -45 8 -6 16 -7 16 -17 -1
-9 -18 -10 -18 -24 0 -14 16 -14 15 -9 -14 4 -19 2 -34 -6 -39 -8 -4 -9 -3 -5
4 4 7 0 12 -11 13 -16 0 -17 1 -1 7 19 8 11 27 -11 27 -8 0 -15 10 -16 22 -1
12 2 20 7 17 5 -4 7 -13 4 -21z m-815 -30 c-8 -15 -10 -15 -11 -2 0 17 10 32
18 25 2 -3 -1 -13 -7 -23z m-3194 -30 c-3 -10 -5 -4 -5 12 0 17 2 24 5 18 2
-7 2 -21 0 -30z m1508 27 c-11 -5 -27 -9 -35 -9 -9 0 -8 4 5 9 11 5 27 9 35 9
9 0 8 -4 -5 -9z m-80 -20 c-3 -5 -14 -10 -23 -9 -14 0 -13 2 3 9 27 11 27 11
20 0z m1064 -46 c-6 -21 -15 -43 -19 -48 -8 -8 -3 16 16 83 3 8 6 12 9 9 2 -2
0 -22 -6 -44z m652 19 c-12 -20 -14 -14 -5 12 4 9 9 14 11 11 3 -2 0 -13 -6
-23z m951 5 c-3 -12 -1 -19 4 -15 6 3 11 -8 12 -24 2 -20 -2 -29 -13 -29 -8 0
-15 8 -15 17 0 14 -4 12 -17 -7 -9 -14 -21 -28 -27 -32 -6 -4 -7 -10 -3 -14
10 -11 -12 -34 -28 -28 -17 7 -57 -46 -52 -68 3 -10 1 -18 -4 -18 -6 0 -4 -6
3 -14 7 -8 17 -12 22 -9 4 3 2 9 -5 14 -11 7 -11 9 1 9 12 0 12 2 1 9 -9 6
-10 11 -2 15 6 4 9 10 7 14 -8 14 20 28 44 21 l25 -6 -27 -8 c-28 -7 -39 -35
-15 -35 8 0 7 -4 -3 -11 -11 -7 -12 -12 -3 -15 7 -3 10 -11 7 -19 -3 -7 0 -15
8 -18 7 -2 4 -2 -7 0 -11 2 -33 6 -49 9 -33 5 -50 24 -36 38 6 6 10 14 10 20
0 5 -8 -1 -19 -12 -10 -12 -25 -22 -32 -23 -10 0 -11 -2 -1 -6 6 -2 12 -9 12
-14 0 -5 -9 -4 -19 3 -19 12 -19 12 0 29 10 9 19 23 19 32 0 8 7 18 16 21 15
6 15 4 4 -11 -8 -10 11 7 42 37 43 44 52 58 44 70 -9 13 -9 13 6 2 15 -12 21
-8 47 28 16 23 27 48 24 56 -3 8 1 14 10 14 11 0 13 -6 9 -22z m-2713 8 c-10
-10 -79 -24 -79 -16 0 8 26 16 64 19 11 0 17 -1 15 -3z m-109 -28 c-14 -6 -34
-14 -45 -19 -79 -32 -264 -81 -283 -74 -7 3 -10 10 -7 16 4 6 13 8 20 5 16 -6
146 23 141 32 -2 4 10 7 27 8 18 0 50 9 72 20 22 10 53 20 70 21 30 1 30 1 5
-9z m2756 -7 c0 -11 -4 -17 -8 -15 -4 3 -8 12 -8 20 0 8 4 14 8 14 4 0 8 -9 8
-19z m119 -1 c3 -6 -1 -7 -9 -4 -18 7 -21 14 -7 14 6 0 13 -4 16 -10z m-3070
-10 c-3 -5 -11 -10 -16 -10 -6 0 -7 5 -4 10 3 6 11 10 16 10 6 0 7 -4 4 -10z
m2250 -20 c-3 -5 -11 -10 -16 -10 -6 0 -7 5 -4 10 3 6 11 10 16 10 6 0 7 -4 4
-10z m764 -19 c9 -6 10 -11 2 -15 -6 -4 -11 -2 -11 4 0 6 -4 8 -10 5 -5 -3
-10 -1 -10 4 0 13 10 14 29 2z m-3179 -11 c8 -5 11 -10 5 -10 -5 0 -17 5 -25
10 -8 5 -10 10 -5 10 6 0 17 -5 25 -10z m1090 -4 c0 -3 -4 -8 -10 -11 -5 -3
-10 -1 -10 4 0 6 5 11 10 11 6 0 10 -2 10 -4z m449 -77 c-6 -30 -15 -58 -19
-63 -5 -5 -3 18 5 50 8 32 14 63 15 68 0 5 2 7 5 4 3 -3 0 -29 -6 -59z m1667
40 c8 -14 -10 -11 -32 6 -18 13 -18 14 4 8 12 -3 25 -9 28 -14z m-30 -13 c10
-8 16 -17 12 -21 -3 -4 -16 3 -27 14 -24 24 -15 28 15 7z m154 4 c0 -5 -5 -10
-11 -10 -5 0 -7 5 -4 10 3 6 8 10 11 10 2 0 4 -4 4 -10z m-3310 -97 c-11 -17
-11 -17 -6 0 3 10 7 37 8 60 l1 42 4 -42 c2 -24 -1 -51 -7 -60z m3200 83 c0
-3 -4 -8 -10 -11 -5 -3 -10 -1 -10 4 0 6 5 11 10 11 6 0 10 -2 10 -4z m-2270
-16 c0 -5 -8 -10 -17 -10 -15 0 -16 2 -3 10 19 12 20 12 20 0z m1580 -20 c0
-5 -5 -10 -11 -10 -5 0 -7 5 -4 10 3 6 8 10 11 10 2 0 4 -4 4 -10z m605 0 c-3
-5 1 -10 9 -10 9 0 16 -2 16 -4 0 -2 3 -13 6 -23 5 -17 5 -17 -6 0 -6 9 -16
15 -21 12 -5 -4 -7 -10 -5 -14 3 -4 -1 -8 -9 -8 -18 0 -20 13 -2 21 9 5 9 7
-1 12 -13 6 -7 24 9 24 6 0 7 -4 4 -10z m-2227 -6 c-4 -3 -12 -7 -20 -8 -16
-4 -58 -23 -78 -36 -19 -13 -92 -43 -106 -44 -6 -1 -26 -9 -45 -18 -19 -10
-67 -30 -106 -45 -48 -17 -73 -32 -73 -42 0 -13 -2 -13 -9 -3 -7 11 -16 11
-52 1 -24 -7 -49 -16 -54 -20 -16 -12 -99 -39 -104 -34 -2 3 13 12 35 20 21 9
50 22 64 29 14 8 52 21 85 30 65 19 311 116 384 152 42 21 93 33 79 18z m1560
-30 c18 -20 -1 -24 -20 -4 -12 11 -14 17 -5 17 7 0 18 -6 25 -13z m35 -22
c-10 -10 -20 -17 -22 -16 -6 5 20 34 30 34 5 0 1 -8 -8 -18z m-1299 -14 c-3
-7 -17 -22 -32 -33 l-27 -20 25 32 c25 32 44 43 34 21z m311 -10 c-2 -7 -9
-39 -15 -71 -7 -32 -14 -57 -16 -54 -8 7 19 137 27 137 5 0 7 -6 4 -12z m1431
-7 c0 -11 -4 -17 -8 -15 -4 3 -8 12 -8 20 0 8 4 14 8 14 4 0 8 -9 8 -19z m51
-13 c-3 -8 -6 -5 -6 6 -1 11 2 17 5 13 3 -3 4 -12 1 -19z m-2967 3 c0 -6 -4
-12 -8 -15 -5 -3 -9 1 -9 9 0 8 4 15 9 15 4 0 8 -4 8 -9z m3032 -14 c4 -20 1
-23 -19 -19 -12 2 -20 8 -17 13 3 5 10 7 15 4 5 -4 9 1 9 9 0 24 7 19 12 -7z
m128 13 c0 -5 -4 -10 -10 -10 -5 0 -10 5 -10 10 0 6 5 10 10 10 6 0 10 -4 10
-10z m-215 -10 c3 -5 1 -10 -4 -10 -6 0 -11 5 -11 10 0 6 2 10 4 10 3 0 8 -4
11 -10z m-2075 -4 c0 -2 -7 -6 -15 -10 -8 -3 -15 -1 -15 4 0 6 7 10 15 10 8 0
15 -2 15 -4z m2000 -18 c0 -16 -3 -19 -11 -11 -6 6 -8 16 -5 22 11 17 16 13
16 -11z m-2070 -27 c-1 -13 -3 -13 -15 3 -19 26 -19 42 0 26 8 -7 15 -20 15
-29z m94 14 c-10 -8 -25 -12 -31 -10 -7 2 -13 0 -13 -5 0 -6 9 -10 20 -10 17
0 19 -2 8 -14 -10 -11 -16 -11 -27 -2 -11 8 -13 8 -8 -1 5 -7 -1 -17 -13 -23
-12 -6 -20 -17 -17 -23 2 -7 -2 -18 -10 -25 -11 -11 -13 -10 -9 12 2 14 -1 27
-7 29 -8 2 -6 12 6 30 10 16 23 24 32 21 8 -4 15 -2 15 4 0 6 -6 12 -12 15 -7
2 -10 7 -6 11 3 4 15 3 26 -3 14 -7 24 -7 38 4 25 18 33 9 8 -10z m1564 0 c-3
-3 -9 2 -12 12 -6 14 -5 15 5 6 7 -7 10 -15 7 -18z m467 15 c3 -6 -1 -7 -9 -4
-18 7 -21 14 -7 14 6 0 13 -4 16 -10z m255 -55 c0 -5 -5 -3 -10 5 -5 8 -10 20
-10 25 0 6 5 3 10 -5 5 -8 10 -19 10 -25z m-2400 16 c0 -5 -7 -12 -16 -15 -22
-8 -26 -8 -19 4 4 7 -2 9 -19 4 -14 -3 -26 -2 -26 2 0 5 18 10 40 12 22 1 40
-2 40 -7z m2002 -8 c-6 -2 -10 -9 -6 -14 3 -5 0 -9 -5 -9 -12 0 -14 13 -4 23
3 4 11 7 17 6 6 0 5 -3 -2 -6z m-2052 -23 c0 -4 -9 -10 -20 -13 -13 -3 -18 -1
-13 6 4 7 0 8 -11 4 -9 -4 -15 -3 -12 2 7 10 56 11 56 1z m37 -8 c-10 -10 -17
-23 -17 -29 0 -6 -7 -16 -15 -23 -22 -18 -46 4 -26 23 11 10 13 9 8 -5 -10
-28 -1 -21 22 17 11 19 26 35 32 35 8 0 6 -7 -4 -18z m2263 14 c0 -3 -4 -8
-10 -11 -5 -3 -10 -1 -10 4 0 6 5 11 10 11 6 0 10 -2 10 -4z m-2523 -12 c-3
-3 -12 -4 -19 -1 -8 3 -5 6 6 6 11 1 17 -2 13 -5z m2256 -17 c-5 -8 -8 -7 -11
1 -2 7 -9 9 -14 6 -7 -4 -8 -2 -4 4 4 6 13 9 21 6 8 -4 12 -11 8 -17z m422 13
c3 -5 1 -10 -4 -10 -6 0 -11 5 -11 10 0 6 2 10 4 10 3 0 8 -4 11 -10z m-2586
-19 c-31 -12 -61 -40 -55 -50 4 -7 1 -8 -8 -5 -9 4 -16 18 -16 33 0 17 3 22 8
13 10 -15 38 -7 46 14 3 8 12 11 22 7 15 -5 15 -8 3 -12z m301 9 c0 -5 -2 -10
-4 -10 -3 0 -8 5 -11 10 -3 6 -1 10 4 10 6 0 11 -4 11 -10z m1131 -7 c13 -16
12 -17 -3 -4 -17 13 -22 21 -14 21 2 0 10 -8 17 -17z m680 -9 c23 -25 23 -26
2 -13 -13 7 -25 19 -27 26 -8 19 -2 16 25 -13z m-2251 6 c0 -5 -8 -10 -17 -10
-15 0 -16 2 -3 10 19 12 20 12 20 0z m320 6 c0 -3 -4 -8 -10 -11 -5 -3 -10 -1
-10 4 0 6 5 11 10 11 6 0 10 -2 10 -4z m170 -16 c-11 -11 -23 -20 -27 -20 -3
0 2 9 12 20 10 11 22 20 27 20 4 0 -1 -9 -12 -20z m2710 -20 c11 -21 20 -45
19 -52 0 -10 -49 78 -49 89 0 12 13 -3 30 -37z m-2989 -8 c1 -17 3 -20 6 -10
4 16 6 16 28 2 15 -10 24 -11 27 -4 4 13 35 3 41 -14 3 -7 -4 -13 -15 -13 -30
-3 -34 -11 -19 -36 13 -20 13 -21 -2 -8 -21 17 -22 7 -1 -24 14 -22 15 -25 1
-25 -8 0 -18 6 -20 13 -3 6 -5 -1 -4 -16 1 -22 5 -27 20 -23 18 4 18 3 2 -14
-12 -14 -13 -20 -4 -26 8 -4 10 -3 5 4 -5 9 3 11 28 7 21 -2 36 0 36 6 0 6 4
8 9 4 12 -7 30 25 24 43 -8 21 5 42 22 36 19 -8 20 -24 0 -24 -8 0 -15 -4 -15
-10 0 -6 9 -6 26 0 32 12 34 12 34 -1 0 -6 7 -17 15 -26 18 -18 16 -22 -14
-28 -12 -2 -19 0 -16 6 4 5 11 7 16 4 5 -4 9 -1 9 5 0 7 -7 10 -15 6 -8 -3
-18 2 -23 11 -6 11 -11 12 -16 4 -4 -6 -1 -14 7 -17 22 -8 8 -84 -15 -84 -6 0
-5 -8 3 -17 11 -15 11 -16 -1 -6 -10 9 -17 10 -27 2 -15 -13 -18 -59 -3 -59 6
0 10 -5 10 -12 0 -6 -9 -3 -20 7 -22 20 -19 47 6 76 8 9 11 19 7 24 -5 4 -2 5
6 0 9 -5 12 -3 9 6 -3 8 -13 13 -23 11 -11 -2 -15 1 -10 10 3 7 -1 4 -9 -6
-14 -18 -21 -15 -17 7 1 9 -11 9 -27 -2 -11 -7 -11 -9 2 -14 8 -3 14 -15 13
-26 -1 -21 -8 -25 -39 -22 -10 1 -18 -3 -18 -9 0 -6 5 -8 12 -4 6 4 8 3 4 -4
-3 -6 2 -15 11 -21 16 -9 16 -10 -4 -11 -13 0 -23 -4 -23 -10 0 -5 6 -7 14 -4
20 8 29 -12 13 -28 -16 -16 -18 -78 -3 -78 6 0 4 -4 -4 -9 -16 -11 -33 -4 -25
10 4 5 2 9 -4 9 -15 0 -23 -18 -9 -22 15 -5 3 -38 -14 -37 -10 0 -10 2 -1 5
17 7 -17 76 -34 70 -21 -8 -15 8 9 23 21 13 21 14 3 27 -21 16 -37 10 -29 -11
4 -8 -1 -18 -10 -21 -9 -3 -16 -12 -16 -20 0 -7 -15 -16 -35 -20 -19 -3 -40
-13 -47 -22 -12 -13 -10 -14 10 -3 33 17 30 -13 -4 -36 -21 -14 -25 -22 -20
-47 l6 -31 -20 25 c-10 14 -15 27 -9 28 5 2 14 13 20 24 8 15 8 19 0 14 -6 -4
-14 0 -17 8 -3 9 -10 13 -15 10 -5 -3 -9 0 -9 5 0 6 7 11 15 11 8 0 15 4 15 9
0 4 -12 6 -26 3 -18 -3 -23 -9 -19 -21 5 -13 4 -14 -6 -3 -14 13 -33 17 -25 4
3 -5 -1 -9 -9 -9 -8 0 -11 5 -8 10 4 6 -1 8 -11 4 -11 -4 -15 -3 -11 4 4 6 13
8 20 5 19 -7 27 5 13 21 -8 11 -8 17 2 26 9 9 11 9 6 0 -11 -20 11 -23 28 -4
17 19 7 39 -13 26 -15 -8 -25 15 -12 28 6 6 11 18 11 26 0 11 -4 10 -15 -5
-14 -18 -14 -18 -10 4 2 14 -1 22 -11 22 -8 0 -14 4 -14 9 0 5 -9 7 -20 4 -11
-3 -20 -1 -20 5 0 6 -9 8 -20 5 -11 -3 -20 0 -20 6 0 14 37 14 46 0 4 -8 9 -8
17 0 7 7 14 7 23 0 8 -6 20 -6 38 2 26 12 35 29 16 29 -5 0 -10 -4 -10 -8 0
-4 -12 -8 -27 -7 -16 0 -26 5 -24 10 1 6 8 9 13 7 6 -2 8 8 6 23 -4 19 -2 25
8 21 20 -8 40 22 25 37 -7 7 -12 8 -11 2 2 -5 2 -17 1 -25 -1 -11 -4 -10 -13
4 -9 15 -7 22 8 33 10 7 13 13 7 13 -7 0 -15 -4 -18 -10 -11 -17 -25 -11 -18
8 6 15 5 15 -10 3 -9 -7 -14 -18 -10 -25 3 -6 3 -8 -2 -4 -4 4 -17 3 -28 -3
-14 -8 -18 -8 -13 0 12 19 -9 12 -27 -9 -17 -20 -16 -20 8 -16 13 3 29 7 35
11 5 3 10 3 10 -1 0 -12 -34 -33 -53 -34 -26 0 -65 -32 -59 -49 3 -10 10 -8
23 10 10 13 21 20 25 16 10 -10 -56 -67 -78 -67 -12 0 -18 7 -18 23 1 20 2 21
14 5 17 -23 25 -23 23 2 -1 18 -10 24 -29 21 -16 -2 -7 23 29 83 21 33 36 65
35 71 -2 5 6 1 17 -9 12 -11 21 -14 21 -8 0 7 5 12 11 12 8 0 8 -4 0 -14 -7
-8 -8 -17 -3 -20 12 -7 82 25 82 38 0 6 -5 5 -12 -2 -15 -15 -38 -16 -38 -2 0
6 3 9 8 8 4 0 15 2 25 6 23 11 57 -2 38 -13 -8 -5 -9 -11 -3 -15 5 -3 17 6 27
20 12 18 13 25 3 23 -20 -3 -49 12 -42 22 3 5 10 9 15 9 6 0 7 -4 4 -10 -8
-14 8 -13 22 1 9 9 16 8 27 -3 8 -9 12 -18 9 -22 -4 -3 1 -6 9 -6 9 0 19 7 22
16 4 10 12 14 22 10 11 -4 15 -2 11 7 -3 9 7 18 29 26 19 7 34 17 34 24 0 8 3
8 12 -1 14 -14 32 -16 23 -2 -4 6 1 7 11 3 13 -5 15 -2 9 17 -5 15 -4 20 4 16
6 -4 12 -19 12 -34z m789 28 c0 -5 -5 -10 -11 -10 -5 0 -7 5 -4 10 3 6 8 10
11 10 2 0 4 -4 4 -10z m-960 -10 c0 -5 -5 -10 -11 -10 -5 0 -7 5 -4 10 3 6 8
10 11 10 2 0 4 -4 4 -10z m368 -15 c-3 -3 -9 2 -12 12 -6 14 -5 15 5 6 7 -7
10 -15 7 -18z m36 12 c-3 -8 5 -18 17 -23 19 -9 20 -11 5 -23 -14 -12 -16 -12
-11 2 4 10 -1 17 -14 22 -30 9 -28 22 6 34 1 1 0 -5 -3 -12z m531 -25 c-8 -8
-25 10 -25 26 0 13 2 13 14 -4 8 -10 13 -21 11 -22z m-405 24 c0 -2 -7 -7 -16
-10 -8 -3 -12 -2 -9 4 6 10 25 14 25 6z m914 -5 c-11 -8 -12 -34 -1 -42 5 -4
-3 -9 -17 -11 -14 -3 -23 -1 -20 4 3 5 0 15 -6 23 -16 19 -6 33 26 33 14 0 22
-3 18 -7z m1171 -9 c-3 -3 -11 0 -18 7 -9 10 -8 11 6 5 10 -3 15 -9 12 -12z
m310 8 c-3 -5 -12 -10 -18 -10 -7 0 -6 4 3 10 19 12 23 12 15 0z m-3238 -6
c-3 -3 -12 -4 -19 -1 -8 3 -5 6 6 6 11 1 17 -2 13 -5z m285 -16 c-7 -7 -16 -6
-29 2 -16 10 -16 11 0 6 9 -3 17 -1 17 5 0 6 5 7 11 3 7 -4 7 -10 1 -16z
m-322 8 c0 -2 -7 -7 -16 -10 -8 -3 -12 -2 -9 4 6 10 25 14 25 6z m895 -6 c-3
-5 -12 -10 -18 -10 -7 0 -6 4 3 10 19 12 23 12 15 0z m295 5 c0 -2 -13 -11
-30 -20 -16 -9 -30 -12 -30 -7 0 4 12 13 28 19 15 6 28 11 30 12 1 1 2 -1 2
-4z m1965 -6 c10 -15 2 -19 -23 -12 -12 3 -19 9 -16 14 7 12 31 11 39 -2z m89
-5 c3 -8 2 -12 -4 -9 -6 3 -10 10 -10 16 0 14 7 11 14 -7z m-3324 -4 c0 -5 -5
-10 -11 -10 -5 0 -7 5 -4 10 3 6 8 10 11 10 2 0 4 -4 4 -10z m3209 -16 c22 -9
22 -10 5 -24 -11 -9 -15 -10 -10 -2 4 6 2 12 -3 12 -6 0 -11 -8 -12 -17 0 -15
-2 -15 -8 2 -5 11 -7 23 -4 28 6 10 -9 9 -27 -3 -13 -8 -12 -10 3 -10 10 0 15
-5 12 -11 -5 -7 -14 -4 -28 8 -20 18 -20 17 -15 -4 4 -13 2 -23 -3 -23 -9 0
-11 5 -13 32 -1 12 66 39 74 29 3 -4 16 -11 29 -17z m-3290 -13 c-13 -11 -26
-17 -29 -14 -6 6 30 33 43 33 5 0 -1 -9 -14 -19z m506 1 c-3 -3 -11 0 -18 7
-9 10 -8 11 6 5 10 -3 15 -9 12 -12z m390 0 c-3 -3 -11 0 -18 7 -9 10 -8 11 6
5 10 -3 15 -9 12 -12z m74 -6 c8 -10 8 -16 -2 -24 -10 -9 -13 -6 -13 13 0 29
0 29 15 11z m45 -1 c-4 -8 -11 -15 -16 -15 -6 0 -5 6 2 15 7 8 14 15 16 15 2
0 1 -7 -2 -15z m561 5 c3 -5 2 -10 -4 -10 -5 0 -13 5 -16 10 -3 6 -2 10 4 10
5 0 13 -4 16 -10z m-2005 -10 c0 -5 -5 -10 -11 -10 -5 0 -7 5 -4 10 3 6 8 10
11 10 2 0 4 -4 4 -10z m1240 -15 c8 -11 10 -17 5 -12 -4 4 -17 -1 -28 -10 -15
-14 -18 -14 -13 -3 3 8 9 23 12 33 4 10 7 16 8 15 1 -2 8 -12 16 -23z m30 15
c0 -5 -2 -10 -4 -10 -3 0 -8 5 -11 10 -3 6 -1 10 4 10 6 0 11 -4 11 -10z
m2328 -2 c18 -18 14 -27 -10 -21 -19 4 -20 3 -8 -6 19 -14 5 -14 -21 -1 -11 6
-18 7 -17 3 3 -9 -5 -13 -24 -13 -11 0 50 48 63 50 3 0 10 -5 17 -12z m-2078
-2 c0 -11 -19 -15 -25 -6 -3 5 1 10 9 10 9 0 16 -2 16 -4z m546 -19 c2 -15 0
-15 -22 0 -30 19 -30 24 -2 20 12 -2 22 -11 24 -20z m1464 19 c0 -3 -4 -8 -10
-11 -5 -3 -10 -1 -10 4 0 6 5 11 10 11 6 0 10 -2 10 -4z m-2800 -16 c0 -5 -2
-10 -4 -10 -3 0 -8 5 -11 10 -3 6 -1 10 4 10 6 0 11 -4 11 -10z m630 -11 c0
-4 -7 -5 -17 -2 -12 5 -14 3 -8 -7 5 -8 4 -11 -3 -6 -16 9 -3 36 14 29 8 -3
14 -9 14 -14z m2134 6 c3 -8 0 -15 -6 -15 -7 0 -7 -5 2 -14 6 -8 18 -12 27 -9
12 5 11 1 -3 -15 -10 -12 -23 -22 -30 -22 -6 0 -19 -9 -29 -20 -10 -11 -13
-20 -8 -20 6 0 16 7 23 15 7 8 17 15 22 15 6 0 4 -7 -3 -17 -13 -15 -12 -15
10 -4 14 8 26 9 30 3 3 -5 14 -8 24 -6 26 4 21 -5 -10 -18 l-28 -11 33 -9 c21
-6 38 -5 45 1 14 11 265 95 317 106 20 4 31 4 27 -1 -5 -5 -12 -9 -15 -10 -22
-2 -171 -52 -252 -84 -123 -49 -313 -139 -368 -174 -48 -30 -72 -26 -33 5 20
16 20 19 5 19 -30 0 -7 12 33 17 21 3 43 10 48 15 7 8 6 9 -2 4 -7 -4 -13 -2
-13 4 0 6 10 8 25 4 19 -5 25 -2 25 10 0 10 5 13 17 9 10 -4 14 -2 10 4 -4 6
0 14 9 17 8 3 12 2 9 -4 -7 -12 -3 -12 19 -4 9 3 14 10 11 14 -3 5 5 6 17 3
16 -3 19 -2 10 5 -10 7 -10 11 2 21 19 16 3 36 -28 38 -19 2 -19 1 -3 -8 9 -6
17 -14 17 -20 0 -5 -9 -4 -20 3 -11 7 -20 19 -20 26 0 9 -6 12 -15 8 -8 -3
-15 -1 -15 4 0 6 7 10 15 10 8 0 15 4 15 9 0 5 6 16 14 24 13 13 7 14 -50 13
-35 -1 -64 1 -64 4 0 3 19 14 43 23 23 10 53 24 67 31 33 19 37 19 44 1z
m-3137 -44 c-9 -22 -19 -50 -21 -63 -11 -46 -29 -114 -36 -133 -15 -37 -21
-58 -42 -149 -21 -94 -24 -107 -32 -165 -8 -56 -19 -50 -12 8 7 51 15 89 50
226 43 173 94 330 104 321 2 -3 -3 -23 -11 -45z m3319 42 c-10 -11 -37 -12
-30 -2 3 5 12 9 21 9 9 0 13 -3 9 -7z m488 -5 c-6 -9 -44 -6 -44 3 0 4 11 6
24 5 13 0 22 -4 20 -8z m-2714 -33 c0 -5 -5 -3 -10 5 -5 8 -10 20 -10 25 0 6
5 3 10 -5 5 -8 10 -19 10 -25z m686 -13 c-8 -7 -56 30 -51 39 3 4 17 -1 30
-13 14 -12 23 -23 21 -26z m1961 42 c-8 -8 -140 -34 -145 -29 -5 5 8 10 58 23
39 10 95 13 87 6z m-2723 -28 c-8 -20 -24 -21 -24 0 0 8 5 12 10 9 6 -3 10 -1
10 6 0 7 2 10 5 7 3 -3 3 -13 -1 -22z m2228 2 c-7 -7 -12 -8 -12 -2 0 14 12
26 19 19 2 -3 -1 -11 -7 -17z m-2186 -26 c-9 -8 -26 10 -26 26 1 15 2 15 15
-2 8 -11 13 -21 11 -24z m2154 14 c-9 -12 -7 -15 12 -14 13 1 29 6 36 11 7 5
12 6 12 0 0 -25 -97 -49 -117 -29 -10 9 9 27 23 22 8 -3 14 1 14 9 0 8 7 15
16 15 13 0 14 -3 4 -14z m137 8 c-3 -3 -12 -4 -19 -1 -8 3 -5 6 6 6 11 1 17
-2 13 -5z m-2493 -20 c3 -8 2 -12 -4 -9 -6 3 -10 10 -10 16 0 14 7 11 14 -7z
m2566 6 c0 -5 -2 -10 -4 -10 -3 0 -8 5 -11 10 -3 6 -1 10 4 10 6 0 11 -4 11
-10z m-1610 -10 c0 -5 -4 -10 -10 -10 -5 0 -10 5 -10 10 0 6 5 10 10 10 6 0
10 -4 10 -10z m1191 -20 c6 0 7 5 4 10 -7 12 22 12 50 0 17 -7 17 -9 3 -9 -10
-1 -18 -5 -18 -11 0 -5 -5 -10 -11 -10 -5 0 -7 5 -3 12 5 8 2 9 -10 5 -10 -4
-26 -2 -37 3 -14 8 -19 7 -19 -3 0 -7 -12 -24 -26 -38 -26 -24 -26 -24 -15 -1
6 12 16 22 21 22 6 0 10 8 10 18 0 27 10 33 27 17 8 -8 19 -15 24 -15z m-2104
14 c-3 -3 -12 -4 -19 -1 -8 3 -5 6 6 6 11 1 17 -2 13 -5z m297 -9 c-7 -16 -24
-21 -24 -6 0 8 7 13 27 20 1 1 0 -6 -3 -14z m679 -28 c31 -25 18 -28 -18 -5
-19 13 -35 27 -35 31 0 8 24 -4 53 -26z m-1403 19 c0 -2 -7 -7 -16 -10 -8 -3
-12 -2 -9 4 6 10 25 14 25 6z m590 -10 c0 -21 -20 -30 -33 -17 -9 9 -8 14 3
21 21 14 30 12 30 -4z m173 -3 c-7 -2 -19 -2 -25 0 -7 3 -2 5 12 5 14 0 19 -2
13 -5z m1670 -5 c-4 -7 -8 -17 -8 -22 0 -5 -20 -17 -45 -27 l-45 -19 35 30
c19 16 40 33 45 39 14 14 28 13 18 -1z m-1793 -12 c0 -3 -4 -8 -10 -11 -5 -3
-10 -1 -10 4 0 6 5 11 10 11 6 0 10 -2 10 -4z m1930 0 c0 -2 -8 -10 -17 -17
-16 -13 -17 -12 -4 4 13 16 21 21 21 13z m-2609 -20 c5 3 9 0 9 -5 0 -6 -7
-11 -15 -11 -8 0 -15 8 -14 18 0 10 3 12 6 4 2 -6 9 -10 14 -6z m1544 -52 c36
-33 44 -44 20 -25 -69 52 -100 80 -90 81 6 0 37 -25 70 -56z m1100 26 c8 -12
-23 -6 -37 8 -8 8 -5 9 11 5 12 -3 24 -9 26 -13z m-85 6 c0 -3 -4 -8 -10 -11
-5 -3 -10 -1 -10 4 0 6 5 11 10 11 6 0 10 -2 10 -4z m-1890 -10 c0 -3 -4 -8
-10 -11 -5 -3 -10 -1 -10 4 0 6 5 11 10 11 6 0 10 -2 10 -4z m1933 -22 c-7
-19 -10 -18 -16 5 -3 13 -1 18 9 14 7 -2 10 -11 7 -19z m-28 -4 c3 -5 -1 -10
-9 -10 -9 0 -16 5 -16 10 0 6 4 10 9 10 6 0 13 -4 16 -10z m-2141 -25 c-3 -14
-2 -25 4 -25 5 0 12 -9 15 -19 3 -15 1 -18 -11 -14 -11 5 -14 2 -9 -10 5 -13
1 -17 -21 -17 -19 0 -23 3 -13 9 7 5 10 14 7 20 -4 6 -3 11 1 11 5 0 10 9 11
20 4 43 6 50 14 50 5 0 6 -11 2 -25z m266 15 c0 -5 -5 -10 -11 -10 -5 0 -7 5
-4 10 3 6 8 10 11 10 2 0 4 -4 4 -10z m1320 -45 c33 -15 33 -16 6 -10 -35 7
-86 42 -86 57 0 7 10 2 23 -10 12 -11 38 -28 57 -37z m-2202 25 c-7 -11 -15
-15 -17 -9 -2 6 3 15 10 20 20 12 21 11 7 -11z m2491 -9 c-13 -11 -28 -20 -34
-20 -5 0 3 11 20 24 16 13 31 22 34 20 2 -3 -7 -13 -20 -24z m231 7 c0 -5 -8
-4 -19 1 -10 6 -22 7 -26 3 -5 -4 -5 -2 -2 5 8 13 47 6 47 -9z m-1971 -1 c-2
-1 -13 -9 -24 -17 -19 -14 -19 -14 -6 3 7 9 18 17 24 17 6 0 8 -1 6 -3z m38
-12 c0 -8 -4 -12 -9 -9 -5 3 -6 10 -3 15 9 13 12 11 12 -6z m620 -7 c-3 -8 -6
-5 -6 6 -1 11 2 17 5 13 3 -3 4 -12 1 -19z m-1357 2 c0 -5 -5 -10 -11 -10 -5
0 -7 5 -4 10 3 6 8 10 11 10 2 0 4 -4 4 -10z m91 -39 c21 -9 27 -17 20 -24 -7
-7 -15 -7 -24 2 -15 12 -47 5 -47 -10 0 -5 -4 -9 -9 -9 -6 0 -9 9 -8 20 1 15
6 18 22 14 18 -6 18 -5 5 11 -13 16 -15 16 -32 -5 -15 -18 -18 -19 -18 -5 0 9
10 25 23 35 21 18 23 18 30 2 4 -10 22 -24 38 -31z m64 39 c-3 -6 1 -17 9 -26
9 -8 16 -21 16 -27 0 -7 -7 -4 -14 5 -7 10 -16 15 -19 11 -4 -3 -7 3 -7 14 0
11 3 23 7 26 10 10 15 8 8 -3z m2090 -40 c2 -4 -7 -5 -20 -2 -14 2 -27 8 -30
12 -2 4 7 5 20 2 14 -2 27 -8 30 -12z m-2275 -5 c0 -8 -4 -15 -10 -15 -5 0 -7
7 -4 15 4 8 8 15 10 15 2 0 4 -7 4 -15z m640 -24 c0 -14 -29 -21 -36 -9 -4 6
-3 8 4 4 6 -3 13 -2 17 4 8 12 15 13 15 1z m30 -1 c0 -5 -5 -10 -11 -10 -5 0
-7 5 -4 10 3 6 8 10 11 10 2 0 4 -4 4 -10z m325 0 c-3 -5 -14 -10 -23 -9 -14
0 -13 2 3 9 27 11 27 11 20 0z m395 -32 c0 -49 -5 -47 -13 5 -3 20 -2 37 4 37
5 0 9 -19 9 -42z m-1400 22 c0 -5 -4 -10 -10 -10 -5 0 -10 5 -10 10 0 6 5 10
10 10 6 0 10 -4 10 -10z m598 -15 c-3 -3 -9 2 -12 12 -6 14 -5 15 5 6 7 -7 10
-15 7 -18z m2025 -8 c-3 -5 -9 -3 -14 4 -4 7 -5 17 -2 22 3 5 9 3 14 -4 4 -7
5 -17 2 -22z m-2477 8 c-3 -23 -12 -26 -13 -5 -1 11 2 20 7 20 4 0 7 -7 6 -15z
m29 -29 c2 -17 -4 -27 -21 -35 -15 -6 -24 -7 -24 -1 0 6 7 10 15 10 14 0 20
18 15 50 -1 8 1 12 5 8 4 -4 9 -18 10 -32z m2425 27 c0 -8 -61 -63 -71 -63 -4
0 -31 -20 -60 -45 -29 -25 -55 -43 -57 -40 -5 5 23 35 32 35 4 0 22 15 41 33
73 69 115 99 115 80z m-2140 -7 c0 -2 -7 -6 -15 -10 -8 -3 -15 -1 -15 4 0 6 7
10 15 10 8 0 15 -2 15 -4z m220 -11 c11 -13 10 -14 -4 -9 -9 3 -16 10 -16 15
0 13 6 11 20 -6z m165 5 c-3 -5 -11 -10 -16 -10 -6 0 -7 5 -4 10 3 6 11 10 16
10 6 0 7 -4 4 -10z m-734 -23 c-10 -9 -11 -8 -5 6 3 10 9 15 12 12 3 -3 0 -11
-7 -18z m663 17 c19 -7 22 -34 4 -34 -7 0 -27 -14 -45 -30 -33 -31 -55 -41
-33 -15 6 8 9 19 5 25 -3 5 2 10 12 10 10 0 27 7 38 16 17 13 18 16 5 24 -17
11 -9 13 14 4z m-284 -18 c0 -3 -4 -8 -10 -11 -5 -3 -10 -1 -10 4 0 6 5 11 10
11 6 0 10 -2 10 -4z m118 -9 c4 7 13 9 20 4 10 -6 10 -11 -2 -21 -13 -10 -20
-9 -41 4 -30 20 -34 32 -5 14 16 -10 22 -10 28 -1z m-384 -16 c3 -5 -1 -11 -9
-14 -9 -4 -12 -1 -8 9 6 16 10 17 17 5z m28 -41 c-5 -13 -3 -13 10 -2 9 7 15
22 13 33 -4 22 8 25 24 5 9 -11 8 -15 -5 -20 -9 -3 -14 -12 -11 -20 4 -10 -1
-13 -19 -11 -13 1 -27 -2 -30 -6 -3 -5 0 -9 6 -9 6 0 8 -5 4 -11 -4 -7 -10 -7
-16 -1 -5 5 -4 25 4 50 9 31 14 37 19 24 3 -9 4 -24 1 -32z m316 19 c3 -11 2
-11 -7 1 -9 13 -11 12 -11 -5 0 -16 -2 -17 -9 -5 -6 8 -7 18 -4 23 7 12 26 3
31 -14z m122 4 c0 -5 -8 -17 -17 -28 -14 -18 -15 -18 -9 -2 3 10 6 23 6 28 0
5 5 9 10 9 6 0 10 -3 10 -7z m572 -15 c-7 -7 -12 -8 -12 -2 0 14 12 26 19 19
2 -3 -1 -11 -7 -17z m-782 -8 c0 -5 -4 -10 -10 -10 -5 0 -10 5 -10 10 0 6 5
10 10 10 6 0 10 -4 10 -10z m-270 -15 c0 -8 -4 -15 -10 -15 -5 0 -7 7 -4 15 4
8 8 15 10 15 2 0 4 -7 4 -15z m710 5 c0 -5 -4 -10 -10 -10 -5 0 -10 5 -10 10
0 6 5 10 10 10 6 0 10 -4 10 -10z m-410 -8 c0 -4 -5 -13 -11 -19 -13 -13 -39
-6 -39 9 0 6 6 5 15 -2 12 -10 15 -10 15 4 0 9 5 16 10 16 6 0 10 -4 10 -8z
m140 5 c0 -2 -9 -14 -20 -27 -22 -26 -27 -20 -8 10 11 17 28 27 28 17z m-299
-30 c-10 -9 -11 -8 -5 6 3 10 9 15 12 12 3 -3 0 -11 -7 -18z m1069 -10 c0 -5
-4 -5 -10 -2 -5 3 -10 14 -10 23 0 15 2 15 10 2 5 -8 10 -19 10 -23z m-1120
19 c0 -3 -4 -8 -10 -11 -5 -3 -10 -1 -10 4 0 6 5 11 10 11 6 0 10 -2 10 -4z
m-109 -24 c-5 -10 -18 -25 -28 -33 -12 -10 -11 -5 6 19 24 35 38 43 22 14z
m332 -6 c3 -8 1 -17 -6 -19 -9 -3 -8 -10 2 -28 13 -22 13 -23 -3 -10 -10 8
-15 23 -13 33 6 21 3 22 -26 7 -19 -9 -18 -7 3 10 30 25 36 26 43 7z m1877 5
c0 -5 -7 -12 -16 -15 -14 -5 -15 -4 -4 9 14 17 20 19 20 6z m-2274 -47 c-11
-7 -22 -12 -25 -9 -2 3 4 12 15 19 10 8 21 12 24 9 3 -2 -4 -11 -14 -19z m724
16 c0 -5 -2 -10 -4 -10 -3 0 -8 5 -11 10 -3 6 -1 10 4 10 6 0 11 -4 11 -10z
m2210 -2 c0 -11 -28 -10 -35 1 -3 6 4 9 15 8 11 -1 20 -5 20 -9z m125 -6 c-28
-10 -66 -28 -85 -40 l-35 -24 35 32 c42 38 65 49 105 49 25 0 22 -2 -20 -17z
m-6448 -24 c-3 -7 -5 -2 -5 12 0 14 2 19 5 13 2 -7 2 -19 0 -25z m6288 12 c3
-6 -1 -7 -9 -4 -18 7 -21 14 -7 14 6 0 13 -4 16 -10z m30 -10 c3 -5 1 -10 -4
-10 -6 0 -11 5 -11 10 0 6 2 10 4 10 3 0 8 -4 11 -10z m-75 -34 c0 -2 -7 -7
-16 -10 -8 -3 -12 -2 -9 4 6 10 25 14 25 6z m-1960 -21 c-7 -8 -17 -15 -23
-15 -6 0 -2 7 9 15 25 19 30 19 14 0z m-1423 -27 c-3 -8 -6 -5 -6 6 -1 11 2
17 5 13 3 -3 4 -12 1 -19z m3590 6 c-3 -3 -12 -4 -19 -1 -8 3 -5 6 6 6 11 1
17 -2 13 -5z m102 -18 c-2 -2 -15 -7 -29 -10 l-25 -7 25 15 c21 12 42 14 29 2z
m-439 -6 c0 -5 -5 -10 -11 -10 -5 0 -8 -4 -4 -9 3 -5 1 -12 -5 -16 -11 -7 -13
5 -4 29 7 18 24 22 24 6z m-1891 -4 c-2 -2 -15 -9 -29 -15 -24 -11 -24 -11 -6
3 16 13 49 24 35 12z m-1303 -107 c25 -33 44 -62 42 -64 -2 -2 -22 19 -43 46
-22 28 -46 57 -52 64 -7 8 -13 24 -12 37 l0 23 10 -23 c5 -13 30 -50 55 -83z
m3541 81 c-48 -26 -61 -26 -22 0 17 11 37 20 45 20 8 0 -2 -9 -23 -20z m-6704
-20 c3 -11 1 -20 -4 -20 -5 0 -9 3 -10 8 0 4 -2 15 -4 25 -4 23 11 12 18 -13z
m172 -12 c-2 -18 -4 -35 -5 -38 -1 -3 -2 -8 -1 -12 0 -5 -3 -8 -9 -8 -5 0 -10
-6 -10 -13 0 -16 -38 -49 -49 -42 -11 6 -41 -38 -41 -60 0 -24 -19 -18 -32 10
-9 21 -8 28 4 38 9 6 18 21 20 31 3 19 57 57 70 50 4 -3 10 1 14 7 4 8 3 9 -4
5 -7 -4 -12 -2 -12 4 0 7 8 9 20 5 13 -4 21 -2 22 7 0 7 2 18 3 23 2 6 3 13 4
18 0 4 3 7 5 7 2 0 2 -15 1 -32z m6461 -3 c-11 -8 -25 -15 -30 -15 -6 1 0 7
14 15 32 19 40 18 16 0z m-1781 -50 c-32 -30 -60 -53 -63 -50 -3 3 -3 6 -1 8
2 1 27 24 56 50 73 66 79 59 8 -8z m-1751 3 c-1 -18 -5 -45 -9 -60 -5 -19 -2
-29 12 -38 15 -10 15 -11 1 -6 -13 4 -19 -3 -24 -29 -3 -19 -11 -35 -16 -35
-6 0 -8 10 -4 23 4 12 12 57 18 100 12 78 25 104 22 45z m-3094 17 c0 -9 -62
-67 -67 -62 -8 9 7 28 18 22 5 -4 9 -1 9 5 0 13 22 39 33 40 4 0 7 -2 7 -5z
m90 1 c0 -3 -4 -8 -10 -11 -5 -3 -10 -1 -10 4 0 6 5 11 10 11 6 0 10 -2 10 -4z
m6410 -30 c0 -2 -7 -7 -16 -10 -8 -3 -12 -2 -9 4 6 10 25 14 25 6z m-6343 -40
c-7 -14 -17 -22 -26 -18 -11 4 -11 7 3 17 9 7 16 18 16 24 0 7 4 10 9 7 5 -4
4 -16 -2 -30z m4294 11 c-10 -9 -11 -8 -5 6 3 10 9 15 12 12 3 -3 0 -11 -7
-18z m1969 -15 c0 -5 -17 -16 -37 -26 -41 -19 -39 -13 4 15 34 21 33 21 33 11z
m-6480 -32 c-7 -4 -9 -13 -5 -20 5 -9 4 -11 -3 -6 -7 4 -12 2 -12 -4 0 -6 -4
-8 -10 -5 -15 9 -12 19 12 45 15 16 23 19 26 11 3 -8 -1 -17 -8 -21z m4823 15
c-3 -9 -8 -14 -10 -11 -3 3 -2 9 2 15 9 16 15 13 8 -4z m-1533 -33 c0 -15 -2
-15 -10 -2 -13 20 -13 33 0 25 6 -3 10 -14 10 -23z m-3241 -20 c-20 -14 -20
-14 1 -32 24 -20 26 -36 6 -43 -10 -4 -13 -1 -9 9 3 7 0 14 -7 14 -6 0 -8 4
-5 10 3 5 0 7 -8 4 -8 -3 -18 -1 -22 5 -3 6 -1 11 4 11 6 0 10 3 9 8 -5 13 37
49 44 38 4 -6 -2 -16 -13 -24z m135 16 c-3 -13 -13 -27 -20 -31 -8 -4 -14 -12
-14 -17 0 -16 -55 -91 -58 -80 -2 6 2 18 9 26 10 12 10 15 -1 12 -7 -2 -15 4
-17 12 -4 12 -3 12 5 2 7 -11 17 -5 46 25 20 21 39 46 42 56 3 9 8 17 10 17 3
0 2 -10 -2 -22z m-229 -45 c-2 -16 -4 -30 -4 -32 -1 -3 -6 0 -12 6 -8 8 -7 17
3 32 17 27 17 27 13 -6z m120 17 c-3 -5 -10 -10 -16 -10 -5 0 -9 5 -9 10 0 6
7 10 16 10 8 0 12 -4 9 -10z m405 -24 c0 -3 -4 -8 -10 -11 -5 -3 -10 -1 -10 4
0 6 5 11 10 11 6 0 10 -2 10 -4z m-470 -21 c8 -9 9 -15 2 -15 -6 0 -14 5 -17
10 -4 6 -11 7 -17 4 -7 -4 -8 -2 -4 4 10 16 21 15 36 -3z m3377 -11 c13 -14
22 -28 20 -30 -2 -2 -16 10 -32 26 -16 17 -25 30 -21 30 5 0 20 -12 33 -26z
m-3457 6 c0 -5 6 -10 14 -10 8 0 18 -4 21 -10 4 -6 -1 -7 -11 -3 -13 5 -16 2
-11 -9 4 -12 1 -14 -13 -11 -12 3 -22 -3 -30 -16 -6 -12 -15 -19 -21 -16 -5 4
-9 1 -9 -4 0 -6 -5 -11 -10 -11 -6 0 5 22 22 50 32 48 48 61 48 40z m3190 -17
c-3 -47 -2 -48 53 -48 28 1 57 -2 62 -6 6 -3 17 -6 25 -7 21 0 98 -30 80 -31
-8 0 -40 6 -70 14 -30 8 -75 15 -100 15 -63 0 -74 10 -66 54 8 42 18 48 16 9z
m-2660 -39 c-22 -26 -28 -15 -11 22 14 31 16 33 19 15 2 -12 -2 -29 -8 -37z
m-417 -11 c-36 -23 -32 -24 27 -7 14 4 20 1 20 -10 0 -9 -10 -15 -27 -15 -16
-1 -35 -2 -43 -2 -8 -1 -19 0 -25 1 -5 1 -20 2 -32 1 -17 -1 -21 -5 -16 -18 4
-11 3 -14 -5 -9 -7 4 -12 13 -12 21 0 13 8 17 63 29 15 4 27 11 27 16 0 6 9
10 21 10 11 0 17 4 14 10 -3 6 1 7 10 4 13 -5 8 -12 -22 -31z m-137 -29 c-11
-8 -29 -14 -40 -14 -16 0 -12 5 14 18 39 20 55 18 26 -4z m3733 15 c48 -17 32
-20 -19 -4 -25 7 -38 14 -29 14 9 1 30 -4 48 -10z m-3268 -40 c-29 -23 -55
-38 -59 -34 -4 4 -2 10 5 12 7 2 28 18 49 34 20 16 41 29 47 29 5 0 -14 -19
-42 -41z m3394 -7 c-3 -3 -11 0 -18 7 -9 10 -8 11 6 5 10 -3 15 -9 12 -12z
m-308 -8 c-3 -3 -12 -4 -19 -1 -8 3 -5 6 6 6 11 1 17 -2 13 -5z m348 -12 c-3
-3 -11 0 -18 7 -9 10 -8 11 6 5 10 -3 15 -9 12 -12z m-235 -6 c0 -11 -19 -15
-25 -6 -3 5 1 10 9 10 9 0 16 -2 16 -4z m281 -14 c-7 -2 -18 1 -23 6 -8 8 -4
9 13 5 13 -4 18 -8 10 -11z m-226 -12 c8 -13 -5 -13 -25 0 -13 8 -13 10 2 10
9 0 20 -4 23 -10z m40 -10 c3 -5 1 -10 -4 -10 -6 0 -11 5 -11 10 0 6 2 10 4
10 3 0 8 -4 11 -10z m280 -20 c3 -5 1 -10 -4 -10 -6 0 -11 5 -11 10 0 6 2 10
4 10 3 0 8 -4 11 -10z m-20 -50 c3 -5 1 -10 -4 -10 -6 0 -11 5 -11 10 0 6 2
10 4 10 3 0 8 -4 11 -10z m-70 -20 c3 -5 2 -10 -4 -10 -5 0 -13 5 -16 10 -3 6
-2 10 4 10 5 0 13 -4 16 -10z m89 -45 c11 -8 15 -15 10 -15 -6 0 -19 7 -30 15
-10 8 -14 14 -9 14 6 0 19 -6 29 -14z m51 -35 c3 -6 -1 -7 -9 -4 -18 7 -21 14
-7 14 6 0 13 -4 16 -10z m55 -31 c17 -13 18 -17 5 -10 -33 17 -51 31 -40 31 6
0 21 -10 35 -21z m2007 -99 c52 -34 63 -46 77 -87 31 -93 87 -153 142 -153 14
0 31 -14 47 -38 14 -22 45 -48 73 -63 l49 -25 2 -95 c2 -78 -2 -106 -22 -167
-14 -41 -25 -95 -25 -125 0 -71 -12 -107 -48 -143 -37 -38 -46 -94 -37 -241 8
-129 15 -151 61 -182 50 -34 51 -37 95 -231 25 -115 24 -166 -5 -231 -14 -30
-29 -91 -35 -137 -6 -46 -13 -87 -16 -92 -3 -5 -10 -32 -15 -60 -9 -48 -8 -54
15 -82 14 -16 25 -33 25 -37 0 -13 -31 -36 -95 -71 -33 -18 -81 -51 -106 -72
-66 -54 -84 -51 -99 15 -19 79 -65 221 -142 437 -123 344 -142 388 -206 468
-30 38 -33 46 -23 68 17 38 13 74 -13 130 -32 68 -45 181 -39 343 l5 133 -51
48 c-44 42 -51 53 -51 86 0 53 8 61 67 79 65 19 99 58 108 123 4 26 16 73 26
106 10 32 24 86 31 120 9 44 23 74 49 106 20 25 45 60 55 78 10 17 23 32 29
32 5 0 38 -18 72 -40z m-2940 -92 c-3 -8 -6 -5 -6 6 -1 11 2 17 5 13 3 -3 4
-12 1 -19z m803 -272 c0 -2 -8 -10 -17 -17 -16 -13 -17 -12 -4 4 13 16 21 21
21 13z m3170 -246 c-8 -5 -19 -10 -25 -10 -5 0 -3 5 5 10 8 5 20 10 25 10 6 0
3 -5 -5 -10z m-91 -34 c-2 -2 -29 -14 -59 -26 -30 -12 -50 -17 -45 -11 6 6 28
17 50 25 41 15 62 19 54 12z m-3832 -63 c-3 -10 -5 -2 -5 17 0 19 2 27 5 18 2
-10 2 -26 0 -35z m-629 20 c-2 -9 -8 -18 -15 -20 -7 -3 -9 3 -6 16 6 25 26 28
21 4z m4295 -18 c16 4 14 1 -6 -10 -35 -20 -37 -18 -29 20 6 27 7 27 10 7 3
-18 8 -22 25 -17z m-6661 -7 c-7 -7 -12 -8 -12 -2 0 14 12 26 19 19 2 -3 -1
-11 -7 -17z m3006 -53 c-3 -3 -9 2 -12 12 -6 14 -5 15 5 6 7 -7 10 -15 7 -18z
m4027 -83 c-3 -3 -11 0 -18 7 -9 10 -8 11 6 5 10 -3 15 -9 12 -12z m-209 -18
c-3 -9 -6 -20 -6 -25 0 -5 -7 -9 -15 -9 -8 0 -15 7 -15 15 0 8 7 15 16 15 8 0
12 5 9 10 -3 6 -1 10 5 10 7 0 9 -7 6 -16z m-3986 -158 c0 -2 -7 -7 -16 -10
-8 -3 -12 -2 -9 4 6 10 25 14 25 6z m486 -53 c-4 -4 -19 -8 -34 -10 -23 -2
-24 -1 -7 7 24 11 51 13 41 3z m-138 -10 c-10 -2 -26 -2 -35 0 -10 3 -2 5 17
5 19 0 27 -2 18 -5z m1260 -18 c-3 -3 -9 2 -12 12 -6 14 -5 15 5 6 7 -7 10
-15 7 -18z m-1473 -376 c4 -12 2 -26 -5 -33 -9 -8 -11 -6 -8 9 2 12 -4 25 -17
32 -20 12 -20 12 2 13 13 0 24 -8 28 -21z m3665 -389 c0 -5 -2 -10 -4 -10 -3
0 -8 5 -11 10 -3 6 -1 10 4 10 6 0 11 -4 11 -10z m157 -27 c-8 -7 -37 9 -31
19 3 5 12 4 20 -3 8 -6 13 -14 11 -16z m-181 -100 c-11 -11 -17 4 -9 23 7 18
8 18 11 1 2 -10 1 -21 -2 -24z m-9 -45 c-3 -7 -5 -2 -5 12 0 14 2 19 5 13 2
-7 2 -19 0 -25z m23 -28 c0 -5 -4 -10 -10 -10 -5 0 -10 5 -10 10 0 6 5 10 10
10 6 0 10 -4 10 -10z m61 -36 c17 -8 28 -18 25 -21 -3 -3 -20 4 -38 16 -39 24
-30 28 13 5z m135 -54 c35 -18 36 -19 9 -14 -16 4 -37 13 -45 20 -20 19 -10
18 36 -6z m-1796 -450 c0 -5 -5 -10 -11 -10 -5 0 -7 5 -4 10 3 6 8 10 11 10 2
0 4 -4 4 -10z m30 -55 c0 -8 -4 -15 -10 -15 -5 0 -10 7 -10 15 0 8 5 15 10 15
6 0 10 -7 10 -15z m1025 -375 c-10 -11 -20 -18 -23 -15 -7 6 18 35 31 35 5 0
2 -9 -8 -20z m-375 -2940 c0 -5 -4 -10 -10 -10 -5 0 -10 5 -10 10 0 6 5 10 10
10 6 0 10 -4 10 -10z m-33 -16 c-3 -3 -12 -4 -19 -1 -8 3 -5 6 6 6 11 1 17 -2
13 -5z m909 -224 c16 -14 42 -51 58 -83 16 -32 55 -87 87 -121 50 -54 64 -79
104 -182 71 -181 74 -234 25 -349 -5 -11 -12 -30 -15 -42 -5 -18 -22 -27 -74
-43 -123 -38 -119 -40 -163 75 -21 55 -42 126 -48 159 -5 32 -21 81 -36 109
-25 48 -26 58 -27 211 0 139 13 271 30 298 5 10 20 2 59 -32z m-706 -492 c0
-17 -3 -28 -7 -24 -11 11 -12 67 -2 60 5 -3 9 -19 9 -36z m30 -207 c0 -6 -4
-13 -10 -16 -5 -3 -10 1 -10 9 0 9 5 16 10 16 6 0 10 -4 10 -9z m0 -56 c-7 -9
-15 -13 -17 -11 -7 7 7 26 19 26 6 0 6 -6 -2 -15z m-5650 -677 c0 -5 -11 -8
-24 -8 -14 0 -27 3 -29 8 -3 4 8 7 24 7 16 0 29 -3 29 -7z"/>
<path d="M5153 13178 c-2 -18 0 -20 7 -8 12 18 13 30 2 30 -4 0 -9 -10 -9 -22z"/>
<path d="M6970 11805 c-11 -13 -10 -14 4 -9 9 3 16 10 16 15 0 13 -6 11 -20
-6z"/>
<path d="M7216 11795 c4 -8 10 -12 15 -9 11 6 2 24 -11 24 -5 0 -7 -7 -4 -15z"/>
<path d="M7093 11786 c4 -10 1 -16 -8 -16 -7 0 -16 -4 -19 -9 -7 -11 13 -9 32
2 6 5 17 5 22 2 17 -11 11 0 -12 19 -18 15 -20 16 -15 2z"/>
<path d="M6880 11749 c0 -5 5 -7 10 -4 6 3 10 8 10 11 0 2 -4 4 -10 4 -5 0
-10 -5 -10 -11z"/>
<path d="M6905 11740 c-3 -5 -2 -10 4 -10 5 0 13 5 16 10 3 6 2 10 -4 10 -5 0
-13 -4 -16 -10z"/>
<path d="M7120 11735 c0 -8 4 -15 10 -15 5 0 7 7 4 15 -4 8 -8 15 -10 15 -2 0
-4 -7 -4 -15z"/>
<path d="M7153 11743 c4 -5 -5 -26 -19 -46 -14 -21 -19 -34 -11 -31 8 3 20 17
26 31 9 21 14 23 26 13 12 -10 15 -9 15 3 0 9 -10 21 -21 28 -12 6 -19 7 -16
2z"/>
<path d="M7000 11731 c0 -6 4 -13 10 -16 6 -3 7 1 4 9 -7 18 -14 21 -14 7z"/>
<path d="M7037 11721 c-3 -12 -1 -21 3 -21 15 0 23 21 12 32 -6 6 -11 2 -15
-11z"/>
<path d="M7079 11726 c9 -11 9 -15 -1 -19 -7 -3 -3 -4 9 -4 17 1 20 4 12 19
-5 10 -15 18 -21 18 -7 0 -7 -4 1 -14z"/>
<path d="M6861 11717 c-1 -21 21 -18 27 4 3 12 2 12 -6 0 -8 -11 -10 -11 -15
0 -4 10 -6 8 -6 -4z"/>
<path d="M7369 11703 c-1 -5 -1 -12 0 -16 1 -4 -6 -7 -15 -5 -9 2 -23 -7 -31
-20 -15 -21 -14 -22 2 -16 11 5 16 4 12 -3 -3 -5 1 -19 9 -31 15 -22 15 -22
36 -2 12 11 32 20 45 20 13 0 23 4 23 9 0 4 -12 6 -27 3 -24 -4 -26 -2 -13 9
8 8 13 13 11 12 -7 -4 -31 19 -31 29 0 5 5 6 12 2 7 -4 8 -3 4 4 -8 13 -35 16
-37 5z m1 -44 c0 23 15 10 16 -14 1 -14 -2 -22 -7 -19 -5 3 -9 0 -9 -5 0 -6
-5 -11 -11 -11 -6 0 -9 6 -6 13 2 6 0 21 -6 32 -9 18 -9 19 6 6 11 -9 17 -10
17 -2z"/>
<path d="M7058 11669 c-12 -13 -14 -19 -5 -19 7 0 18 9 25 20 15 25 3 25 -20
-1z"/>
<path d="M7218 11683 c7 -3 16 -2 19 1 4 3 -2 6 -13 5 -11 0 -14 -3 -6 -6z"/>
<path d="M7080 11649 c0 -5 5 -7 10 -4 6 3 10 8 10 11 0 2 -4 4 -10 4 -5 0
-10 -5 -10 -11z"/>
<path d="M7183 11642 c-8 -5 -9 -13 -3 -22 7 -12 10 -12 16 3 8 21 3 29 -13
19z"/>
<path d="M7070 11626 c0 -2 7 -9 15 -16 13 -11 14 -10 9 4 -5 14 -24 23 -24
12z"/>
<path d="M7466 11623 c-11 -11 -6 -24 7 -17 6 4 4 -2 -6 -13 -16 -18 -16 -21
-2 -33 13 -11 14 -10 9 5 -5 13 -4 16 4 11 8 -5 12 1 12 18 0 25 -12 40 -24
29z"/>
<path d="M7500 11610 c0 -5 5 -10 10 -10 6 0 10 5 10 10 0 6 -4 10 -10 10 -5
0 -10 -4 -10 -10z"/>
<path d="M7023 11599 c5 -17 -34 -65 -68 -85 -19 -10 -19 -11 0 -11 11 0 27 9
36 19 10 10 21 18 25 17 21 -3 26 2 14 16 -10 12 -9 15 4 15 9 0 19 7 22 15 4
8 11 12 17 8 6 -4 7 -1 2 7 -6 10 -11 9 -21 -4 -11 -16 -13 -16 -24 1 -9 13
-10 14 -7 2z"/>
<path d="M7386 11601 c-3 -5 3 -11 14 -14 20 -5 28 -27 10 -27 -5 0 -10 -4
-10 -9 0 -5 10 -7 23 -4 12 3 18 1 12 -4 -15 -12 -38 -43 -33 -43 3 0 17 11
31 24 l25 23 -23 26 c-13 13 -21 28 -18 31 4 3 -1 6 -10 6 -9 0 -18 -4 -21 -9z"/>
<path d="M7200 11591 c0 -6 5 -13 10 -16 6 -3 10 1 10 9 0 9 -4 16 -10 16 -5
0 -10 -4 -10 -9z"/>
<path d="M6981 11581 c-8 -5 -9 -11 -3 -15 5 -3 15 1 22 9 14 16 3 20 -19 6z"/>
<path d="M7266 11578 c3 -4 9 -8 15 -8 5 0 9 4 9 8 0 5 -7 9 -15 9 -8 0 -12
-4 -9 -9z"/>
<path d="M7375 11570 c-3 -5 -1 -10 4 -10 6 0 11 5 11 10 0 6 -2 10 -4 10 -3
0 -8 -4 -11 -10z"/>
<path d="M6948 11543 c-10 -2 -18 -9 -18 -14 0 -13 13 -11 36 6 19 14 14 17
-18 8z"/>
<path d="M7043 11513 c0 -7 4 -13 9 -13 5 0 6 -5 2 -12 -4 -7 -3 -8 5 -4 6 4
8 12 5 18 -4 6 0 14 7 19 10 6 8 8 -7 7 -11 -1 -21 -8 -21 -15z"/>
<path d="M6901 11506 c-7 -8 -8 -17 -3 -20 6 -3 12 3 15 14 6 24 4 25 -12 6z"/>
<path d="M6994 11505 c-17 -13 -17 -14 -2 -15 9 0 20 -5 24 -12 4 -7 3 -8 -5
-4 -18 12 -91 16 -91 5 0 -5 8 -9 18 -9 14 0 15 -2 2 -10 -12 -8 -9 -10 13
-10 16 0 26 4 22 10 -3 6 -2 10 3 10 18 0 21 -29 4 -39 -12 -7 -13 -10 -3 -11
11 0 11 -3 0 -17 -8 -10 0 -6 18 7 18 14 30 31 28 38 -3 6 0 12 5 12 15 0 12
36 -3 49 -10 8 -19 7 -33 -4z"/>
<path d="M6845 11500 c-3 -5 1 -10 10 -10 9 0 13 5 10 10 -3 6 -8 10 -10 10
-2 0 -7 -4 -10 -10z"/>
<path d="M7088 11473 c7 -3 16 -2 19 1 4 3 -2 6 -13 5 -11 0 -14 -3 -6 -6z"/>
<path d="M7043 11445 c0 -13 8 -15 34 -12 37 5 58 17 27 15 -11 -1 -28 2 -40
5 -15 5 -21 3 -21 -8z"/>
<path d="M7295 11450 c-4 -7 -1 -18 7 -26 13 -13 15 -12 13 5 -1 11 -4 23 -7
26 -3 4 -9 1 -13 -5z"/>
<path d="M7556 11435 c-3 -9 -10 -13 -16 -10 -6 4 -7 -1 -3 -12 6 -16 5 -16
-10 -4 -10 8 -17 9 -17 3 0 -6 9 -14 20 -17 24 -8 87 4 74 14 -5 3 -9 13 -9
21 0 21 -31 25 -39 5z m24 -15 c0 -13 -5 -18 -15 -14 -11 5 -12 9 -2 20 16 18
17 17 17 -6z"/>
<path d="M7030 11410 c12 -8 11 -10 -7 -10 -13 0 -23 -4 -23 -8 0 -12 34 -11
42 2 8 13 1 26 -15 26 -7 0 -6 -4 3 -10z"/>
<path d="M7100 11403 c0 -7 -5 -13 -11 -13 -5 0 -7 -5 -3 -12 4 -6 -1 -17 -11
-24 -10 -8 -15 -17 -11 -21 4 -4 11 -2 15 6 5 7 12 12 17 12 5 0 9 9 9 22 0
12 5 21 12 20 6 -1 13 3 16 10 3 7 -3 13 -14 13 -11 0 -19 -6 -19 -13z"/>
<path d="M7344 11412 c-8 -5 -5 -13 7 -26 17 -17 19 -18 19 -3 0 9 -5 17 -11
17 -5 0 -7 5 -4 10 7 12 4 12 -11 2z"/>
<path d="M7457 11395 c3 -8 9 -12 14 -9 12 7 11 11 -5 17 -10 4 -13 1 -9 -8z"/>
<path d="M7164 11378 c-4 -7 -3 -8 4 -4 7 4 12 1 12 -8 0 -8 7 -13 15 -12 21
3 31 16 12 16 -9 0 -17 5 -17 10 0 14 -17 13 -26 -2z"/>
<path d="M7277 11375 c-4 -8 -3 -16 1 -19 4 -3 9 4 9 15 2 23 -3 25 -10 4z"/>
<path d="M7400 11387 c0 -4 8 -19 17 -34 17 -25 17 -25 -5 -19 -13 4 -22 3
-22 -3 0 -22 20 -20 47 4 19 18 23 25 11 23 -9 -2 -24 6 -32 17 -9 11 -16 16
-16 12z"/>
<path d="M7000 11340 c-6 -11 -7 -20 -3 -20 5 0 14 9 21 20 7 11 8 20 2 20 -5
0 -14 -9 -20 -20z"/>
<path d="M7118 11333 c-21 -9 -38 -20 -38 -24 0 -14 18 -11 22 3 4 10 10 10
31 1 18 -8 27 -9 27 -2 0 6 5 7 11 3 6 -3 15 0 20 7 5 8 3 17 -4 21 -16 10
-25 9 -69 -9z"/>
<path d="M7210 11329 c0 -5 5 -7 10 -4 6 3 10 8 10 11 0 2 -4 4 -10 4 -5 0
-10 -5 -10 -11z"/>
<path d="M7255 11314 c-21 -22 -19 -31 3 -11 14 13 21 14 30 5 8 -8 12 -8 12
-1 0 19 -29 23 -45 7z"/>
<path d="M7182 11287 c-24 -25 -28 -37 -12 -37 6 0 10 7 10 15 0 8 4 15 9 15
5 0 11 7 15 15 7 21 3 19 -22 -8z"/>
<path d="M7558 11302 c-10 -2 -18 -9 -18 -15 0 -7 -5 -6 -11 3 -9 13 -10 13
-6 -1 3 -9 0 -22 -6 -28 -22 -22 9 -10 37 15 30 27 31 33 4 26z"/>
<path d="M7114 11266 c1 -17 9 -32 17 -34 11 -3 11 -1 -1 7 -13 10 -13 11 0
11 10 0 11 3 4 8 -6 4 -14 14 -17 22 -3 8 -5 2 -3 -14z"/>
<path d="M7434 11255 c-16 -12 -16 -14 -3 -15 9 0 22 7 29 15 16 19 0 19 -26
0z"/>
<path d="M7083 11245 c0 -8 6 -16 13 -19 7 -3 10 2 7 15 -6 22 -20 26 -20 4z"/>
<path d="M7190 11250 c0 -5 4 -10 9 -10 6 0 13 5 16 10 3 6 -1 10 -9 10 -9 0
-16 -4 -16 -10z"/>
<path d="M6975 11240 c3 -5 8 -10 11 -10 2 0 4 5 4 10 0 6 -5 10 -11 10 -5 0
-7 -4 -4 -10z"/>
<path d="M7336 11234 c-5 -14 -4 -15 9 -4 17 14 19 20 6 20 -5 0 -12 -7 -15
-16z"/>
<path d="M7155 11232 c6 -4 16 -20 23 -36 11 -24 15 -27 23 -15 6 10 9 10 9 1
0 -7 -7 -15 -15 -18 -18 -7 -20 -24 -2 -24 16 0 40 38 31 51 -3 6 -12 8 -20 5
-9 -4 -18 4 -24 19 -5 14 -15 25 -22 25 -8 0 -9 -3 -3 -8z"/>
<path d="M7360 11220 c0 -5 5 -10 10 -10 6 0 10 5 10 10 0 6 -4 10 -10 10 -5
0 -10 -4 -10 -10z"/>
<path d="M7136 11212 c-3 -6 -1 -14 5 -17 14 -9 20 -2 10 14 -6 8 -11 9 -15 3z"/>
<path d="M7146 11161 c-3 -5 1 -11 9 -15 8 -3 15 -1 15 4 0 13 -18 22 -24 11z"/>
<path d="M7630 11279 c0 -5 5 -7 10 -4 6 3 10 8 10 11 0 2 -4 4 -10 4 -5 0
-10 -5 -10 -11z"/>
<path d="M5370 11015 c-7 -9 -11 -18 -8 -20 3 -3 11 1 18 10 7 9 11 18 8 20
-3 3 -11 -1 -18 -10z"/>
<path d="M5256 10902 c-3 -5 1 -9 9 -9 8 0 12 4 9 9 -3 4 -7 8 -9 8 -2 0 -6
-4 -9 -8z"/>
<path d="M5215 10889 c-4 -6 -4 -13 -1 -16 3 -4 6 -1 6 6 0 7 5 9 12 5 7 -4 8
-3 4 4 -9 15 -13 15 -21 1z"/>
<path d="M4839 10803 c-1 -5 -1 -11 0 -15 0 -5 -5 -8 -13 -8 -8 0 -13 -6 -12
-12 0 -7 -3 -14 -9 -16 -22 -7 -45 -36 -36 -45 13 -13 31 1 24 18 -4 11 -1 13
11 9 11 -4 19 2 25 19 5 13 17 27 26 31 9 3 13 10 10 16 -7 12 -24 13 -26 3z"/>
<path d="M5235 10790 c-3 -5 -2 -10 4 -10 5 0 13 5 16 10 3 6 2 10 -4 10 -5 0
-13 -4 -16 -10z"/>
<path d="M5016 10781 c-4 -5 3 -7 14 -4 23 6 26 13 6 13 -8 0 -17 -4 -20 -9z"/>
<path d="M5046 10753 c-6 -14 -5 -15 5 -6 7 7 10 15 7 18 -3 3 -9 -2 -12 -12z"/>
<path d="M5150 10756 c0 -8 -6 -17 -12 -19 -7 -3 -4 -6 7 -6 11 -1 28 8 38 19
16 19 16 20 -8 20 -15 0 -25 -6 -25 -14z"/>
<path d="M5390 10756 c-9 -12 -8 -15 9 -13 12 1 21 7 21 14 0 17 -15 16 -30
-1z"/>
<path d="M5280 10703 c13 -20 40 -21 40 -1 0 5 -5 6 -10 3 -6 -4 -18 -1 -27 7
-15 12 -15 11 -3 -9z"/>
<path d="M5132 10614 c2 -13 -2 -18 -13 -16 -23 3 -17 -40 7 -49 20 -8 20 -8
-9 -14 -9 -2 -15 1 -11 6 3 5 -2 9 -11 9 -9 0 -13 -5 -9 -11 3 -6 0 -16 -7
-21 -11 -8 -10 -8 4 -4 10 3 24 6 31 6 21 0 70 47 57 54 -6 4 -11 2 -11 -3 0
-6 -4 -11 -10 -11 -5 0 -7 13 -4 29 4 17 1 32 -6 36 -7 4 -10 1 -8 -11z"/>
<path d="M5236 10595 c3 -8 10 -12 15 -9 13 8 11 -10 -3 -26 -11 -12 -10 -12
5 -1 22 17 22 28 -3 41 -16 9 -18 8 -14 -5z"/>
<path d="M5260 10535 c0 -8 4 -15 10 -15 5 0 7 7 4 15 -4 8 -8 15 -10 15 -2 0
-4 -7 -4 -15z"/>
<path d="M7580 10833 c0 -12 -3 -14 -8 -7 -4 7 -15 8 -29 3 -28 -10 -31 -23
-3 -14 11 3 20 3 20 -2 0 -4 13 -8 29 -9 26 -1 28 1 15 13 -8 8 -12 19 -9 24
4 5 1 9 -4 9 -6 0 -11 -8 -11 -17z"/>
<path d="M5515 10750 c-3 -5 -1 -10 4 -10 6 0 11 5 11 10 0 6 -2 10 -4 10 -3
0 -8 -4 -11 -10z"/>
<path d="M1330 10060 c0 -5 -8 -6 -17 -3 -16 6 -16 5 -4 -10 10 -13 17 -15 27
-6 16 13 18 29 4 29 -5 0 -10 -4 -10 -10z"/>
<path d="M1283 10009 c-14 -35 -10 -37 11 -5 9 14 12 27 8 30 -5 3 -13 -8 -19
-25z"/>
<path d="M2040 14580 c0 -5 6 -10 13 -10 8 0 8 -3 1 -8 -16 -11 -25 -42 -12
-42 6 0 8 -3 5 -6 -4 -4 -13 -1 -21 5 -8 7 -17 8 -20 3 -6 -10 16 -22 40 -22
9 0 14 7 12 18 -2 11 2 25 9 33 10 12 8 17 -8 27 -11 7 -19 8 -19 2z"/>
<path d="M2107 14574 c-3 -3 -3 -12 -1 -19 4 -8 -4 -15 -18 -18 -21 -4 -21 -4
3 -6 19 -1 28 5 32 19 5 20 -5 35 -16 24z"/>
<path d="M1910 14510 c-9 -6 -10 -10 -3 -10 6 0 15 5 18 10 8 12 4 12 -15 0z"/>
<path d="M1970 14500 c0 -5 5 -10 10 -10 6 0 10 5 10 10 0 6 -4 10 -10 10 -5
0 -10 -4 -10 -10z"/>
<path d="M1865 14480 c-3 -5 -1 -10 4 -10 6 0 11 5 11 10 0 6 -2 10 -4 10 -3
0 -8 -4 -11 -10z"/>
<path d="M1962 14435 c-25 -29 -29 -43 -7 -25 8 6 19 9 24 5 7 -4 8 0 4 10 -3
10 0 21 8 26 8 5 9 9 3 9 -6 0 -20 -11 -32 -25z"/>
<path d="M1861 14423 c-10 -26 -10 -27 4 -9 8 11 15 23 15 28 0 15 -7 8 -19
-19z"/>
<path d="M1739 14393 c-13 -16 -12 -17 4 -4 16 13 21 21 13 21 -2 0 -10 -8
-17 -17z"/>
<path d="M2000 14399 c0 -5 5 -7 10 -4 6 3 10 8 10 11 0 2 -4 4 -10 4 -5 0
-10 -5 -10 -11z"/>
<path d="M2117 14393 c3 -7 10 -13 15 -13 6 0 5 -7 -2 -15 -11 -13 -10 -14 2
-10 21 8 18 51 -3 51 -10 0 -15 -6 -12 -13z"/>
<path d="M1970 14380 c0 -5 9 -10 19 -10 30 0 34 -17 7 -22 -15 -3 -31 2 -41
11 -14 15 -15 13 -4 -17 10 -30 29 -44 29 -22 0 13 19 9 40 -10 11 -10 14 -19
7 -27 -16 -21 1 -15 25 9 12 12 15 19 7 16 -9 -4 -20 2 -27 13 -8 12 -8 19 -2
19 5 0 10 -4 10 -10 0 -5 4 -10 9 -10 23 0 2 37 -29 52 -41 20 -50 22 -50 8z"/>
<path d="M1840 14370 c-8 -5 -23 -11 -32 -14 -10 -3 -18 -13 -18 -21 0 -9 -7
-23 -15 -31 -25 -25 -17 -35 8 -11 13 12 21 27 19 33 -2 7 1 15 7 19 6 3 11 1
11 -6 0 -7 9 -3 21 10 23 24 23 33 -1 21z"/>
<path d="M1875 14370 c3 -5 10 -10 16 -10 5 0 9 5 9 10 0 6 -7 10 -16 10 -8 0
-12 -4 -9 -10z"/>
<path d="M2048 14373 c7 -3 16 -2 19 1 4 3 -2 6 -13 5 -11 0 -14 -3 -6 -6z"/>
<path d="M1636 14305 c-38 -36 -68 -67 -65 -69 2 -2 36 27 74 65 88 87 82 90
-9 4z"/>
<path d="M1923 14347 c7 -19 -3 -23 -18 -7 -6 6 -10 0 -10 -15 0 -26 9 -33 20
-15 3 5 12 7 20 4 10 -4 12 0 8 15 -3 12 -10 24 -16 28 -6 4 -8 0 -4 -10z"/>
<path d="M2070 14350 c0 -5 5 -10 11 -10 5 0 7 5 4 10 -3 6 -8 10 -11 10 -2 0
-4 -4 -4 -10z"/>
<path d="M1855 14340 c-3 -6 1 -7 9 -4 18 7 21 14 7 14 -6 0 -13 -4 -16 -10z"/>
<path d="M1803 14263 c-7 -2 -13 -12 -13 -21 1 -16 2 -16 14 0 7 10 17 14 21
10 5 -4 5 -1 1 6 -4 6 -8 12 -9 11 -1 0 -8 -3 -14 -6z"/>
<path d="M1751 14251 c-8 -6 -9 -11 -3 -15 6 -3 14 -1 17 5 9 14 2 20 -14 10z"/>
<path d="M1925 14230 c3 -5 8 -10 11 -10 2 0 4 5 4 10 0 6 -5 10 -11 10 -5 0
-7 -4 -4 -10z"/>
<path d="M1713 14214 c-4 -10 0 -20 10 -26 10 -5 17 -14 17 -19 0 -6 -5 -7
-11 -4 -6 4 -5 -2 2 -13 15 -24 39 -18 39 9 0 10 5 19 10 19 6 0 10 -8 10 -17
0 -15 2 -16 9 -3 12 18 4 31 -17 29 -39 -3 -54 1 -49 16 4 8 2 17 -4 20 -5 4
-12 -1 -16 -11z m47 -54 c0 -5 -5 -10 -11 -10 -5 0 -7 5 -4 10 3 6 8 10 11 10
2 0 4 -4 4 -10z"/>
<path d="M1750 14210 c0 -5 5 -10 10 -10 6 0 10 5 10 10 0 6 -4 10 -10 10 -5
0 -10 -4 -10 -10z"/>
<path d="M1611 14193 c7 -10 15 -20 16 -22 2 -2 3 3 3 11 0 9 -7 19 -16 22
-15 6 -15 4 -3 -11z"/>
<path d="M1853 14195 c0 -8 4 -12 9 -9 5 3 6 10 3 15 -9 13 -12 11 -12 -6z"/>
<path d="M1575 14180 c-3 -5 -1 -10 4 -10 6 0 11 5 11 10 0 6 -2 10 -4 10 -3
0 -8 -4 -11 -10z"/>
<path d="M1494 14158 l-19 -23 23 19 c12 11 22 21 22 23 0 8 -8 2 -26 -19z"/>
<path d="M1650 14174 c0 -6 8 -19 19 -28 17 -16 19 -16 25 0 4 12 2 15 -9 11
-8 -4 -19 1 -24 11 -6 9 -11 12 -11 6z"/>
<path d="M1901 14148 c-14 -23 -14 -23 8 -4 22 20 25 26 13 26 -4 0 -13 -10
-21 -22z"/>
<path d="M1766 14113 c-4 -9 -1 -21 5 -27 9 -8 10 -8 5 2 -4 7 -2 19 4 27 7 9
8 15 2 15 -5 0 -13 -8 -16 -17z"/>
<path d="M1443 14098 c-26 -30 -42 -59 -17 -33 27 29 47 55 42 55 -2 0 -14
-10 -25 -22z"/>
<path d="M1700 14111 c0 -13 39 -21 47 -9 3 6 1 8 -5 4 -6 -3 -13 -2 -17 4 -8
12 -25 13 -25 1z"/>
<path d="M1803 14095 c-3 -9 -3 -18 -1 -21 3 -3 8 4 11 16 6 23 -1 27 -10 5z"/>
<path d="M1851 14088 c-14 -23 -14 -23 8 -4 22 20 25 26 13 26 -4 0 -13 -10
-21 -22z"/>
<path d="M1635 14090 c3 -5 8 -10 11 -10 2 0 4 5 4 10 0 6 -5 10 -11 10 -5 0
-7 -4 -4 -10z"/>
<path d="M1660 14069 c0 -5 5 -7 10 -4 6 3 10 8 10 11 0 2 -4 4 -10 4 -5 0
-10 -5 -10 -11z"/>
<path d="M1711 14056 c-9 -11 -9 -16 1 -22 7 -4 10 -4 6 1 -4 4 -3 14 3 22 6
7 9 13 6 13 -2 0 -10 -6 -16 -14z"/>
<path d="M1745 14060 c-3 -5 -1 -10 4 -10 6 0 11 5 11 10 0 6 -2 10 -4 10 -3
0 -8 -4 -11 -10z"/>
<path d="M1784 14045 c-3 -8 -4 -20 -2 -27 3 -7 7 -1 10 15 6 29 1 36 -8 12z"/>
<path d="M1356 13985 c-9 -14 -24 -37 -33 -52 l-17 -28 22 19 c12 11 22 24 22
29 0 6 7 19 17 29 9 10 14 20 11 23 -3 3 -13 -6 -22 -20z"/>
<path d="M1747 13979 c7 -7 15 -10 18 -7 3 3 -2 9 -12 12 -14 6 -15 5 -6 -5z"/>
<path d="M1470 13888 c0 -4 9 -8 20 -8 11 0 20 4 20 8 0 4 -9 8 -20 8 -11 0
-20 -4 -20 -8z"/>
<path d="M1440 13871 c0 -5 7 -12 16 -15 14 -5 15 -4 4 9 -14 17 -20 19 -20 6z"/>
<path d="M1596 13798 c3 -5 10 -6 15 -3 13 9 11 12 -6 12 -8 0 -12 -4 -9 -9z"/>
<path d="M1400 13781 c0 -6 4 -13 10 -16 6 -3 7 1 4 9 -7 18 -14 21 -14 7z"/>
<path d="M1563 13675 c0 -8 4 -12 9 -9 5 3 6 10 3 15 -9 13 -12 11 -12 -6z"/>
<path d="M1344 13611 c5 -8 0 -14 -13 -18 -12 -3 -21 -9 -21 -14 0 -15 16 -10
34 10 13 14 14 21 5 27 -8 5 -10 3 -5 -5z"/>
<path d="M1330 13560 c-14 -10 -22 -21 -19 -24 3 -3 16 5 29 19 28 30 24 32
-10 5z"/>
<path d="M1438 13573 c7 -3 16 -2 19 1 4 3 -2 6 -13 5 -11 0 -14 -3 -6 -6z"/>
<path d="M1126 13553 c-6 -14 -5 -15 5 -6 7 7 10 15 7 18 -3 3 -9 -2 -12 -12z"/>
<path d="M1410 13540 c0 -3 5 -11 12 -18 6 -6 9 -15 5 -19 -4 -3 -13 1 -20 10
-11 16 -12 15 -12 -7 0 -13 5 -22 11 -19 6 2 17 -3 24 -12 7 -8 17 -15 23 -15
6 0 2 6 -8 14 -18 13 -18 14 3 36 12 13 22 29 22 34 0 6 -5 4 -10 -4 -6 -9
-10 -10 -10 -3 0 6 -9 11 -20 10 -11 -1 -20 -4 -20 -7z"/>
<path d="M1111 13520 c-1 -3 -10 -29 -22 -59 -16 -44 -17 -52 -5 -42 19 16 22
1 4 -17 -8 -8 -8 -12 -1 -12 16 0 25 30 14 44 -7 8 -5 22 5 41 8 15 13 33 10
39 -2 6 -5 9 -5 6z"/>
<path d="M1270 13506 c0 -2 7 -9 15 -16 9 -7 15 -8 15 -2 0 5 -7 12 -15 16 -8
3 -15 4 -15 2z"/>
<path d="M1136 13483 c-6 -14 -5 -15 5 -6 7 7 10 15 7 18 -3 3 -9 -2 -12 -12z"/>
<path d="M1186 13464 c1 -20 6 -39 9 -42 4 -4 5 4 3 18 -2 18 2 25 14 25 10 0
25 9 35 20 11 11 12 14 3 8 -16 -12 -37 -12 -56 -1 -8 5 -10 -4 -8 -28z"/>
<path d="M1265 13469 c-4 -6 -5 -12 -2 -15 2 -3 7 2 10 11 7 17 1 20 -8 4z"/>
<path d="M1160 13440 c0 -5 5 -10 11 -10 5 0 7 5 4 10 -3 6 -8 10 -11 10 -2 0
-4 -4 -4 -10z"/>
<path d="M1273 13434 c-3 -8 -12 -13 -19 -10 -8 3 -14 1 -14 -4 0 -18 29 -10
40 10 6 11 8 20 5 20 -3 0 -8 -7 -12 -16z"/>
<path d="M1317 13425 c3 -8 9 -12 14 -9 12 7 11 11 -5 17 -10 4 -13 1 -9 -8z"/>
<path d="M1155 13410 c-3 -5 -2 -10 4 -10 6 0 8 -7 5 -15 -4 -8 -10 -13 -14
-10 -5 3 -6 -4 -3 -15 3 -11 12 -20 20 -20 8 0 11 -5 8 -10 -4 -6 -11 -7 -17
-4 -6 4 -14 0 -19 -7 -4 -7 -11 -10 -15 -6 -4 3 -2 13 4 20 9 10 9 18 -1 30
-10 15 -12 11 -14 -23 -2 -25 2 -40 9 -40 6 0 9 -3 6 -6 -4 -3 -15 -1 -25 4
-15 8 -18 6 -19 -14 -1 -15 2 -22 10 -18 6 3 3 -1 -6 -9 -16 -13 -16 -15 5
-37 12 -12 16 -20 9 -16 -7 5 -16 -2 -21 -17 -6 -14 -16 -27 -23 -29 -10 -4
-10 -8 -1 -20 9 -10 9 -18 2 -25 -8 -8 -5 -14 10 -22 19 -11 21 -9 21 16 0 20
3 24 11 16 9 -9 8 -18 -3 -35 -14 -22 -14 -24 8 -41 12 -9 31 -17 42 -17 16 0
19 -6 16 -35 -2 -31 -1 -33 13 -20 8 8 22 15 30 15 14 0 14 3 -2 20 -10 11
-13 20 -7 20 6 0 13 -6 15 -12 3 -7 6 -4 6 7 1 14 4 16 13 7 16 -16 -8 -63
-28 -55 -10 4 -12 0 -8 -11 5 -12 10 -13 25 -5 21 11 26 0 7 -19 -9 -9 -8 -15
8 -26 19 -15 19 -15 -1 -30 -15 -12 -16 -15 -5 -16 19 0 43 37 34 52 -4 7 -3
8 4 4 7 -4 12 -2 12 4 0 6 5 8 10 5 6 -3 10 1 10 9 0 9 -7 13 -20 11 -18 -4
-19 -3 -2 33 9 20 22 41 27 45 6 5 0 6 -12 2 -18 -5 -20 -3 -16 15 4 14 8 18
13 10 5 -8 10 -6 15 7 14 34 9 61 -15 83 -21 18 -22 21 -5 15 17 -5 17 -3 -4
19 -22 23 -49 27 -35 5 3 -5 10 -7 15 -4 5 4 9 1 9 -4 0 -16 -26 -13 -40 4 -7
9 -19 14 -26 11 -6 -2 -15 -2 -18 2 -12 11 -40 11 -48 -1 -4 -6 -9 -9 -12 -7
-2 3 2 14 10 25 13 17 16 18 24 5 7 -11 10 -11 10 -2 0 9 5 10 19 2 25 -13 54
-13 46 0 -4 6 -3 10 2 9 25 -4 35 1 24 15 -17 20 -3 48 21 40 15 -4 19 -2 15
7 -2 8 -10 13 -16 12 -6 -2 -11 2 -11 7 0 6 4 10 9 10 5 0 8 10 7 23 0 14 -7
23 -18 23 -11 0 -14 -5 -9 -14 10 -19 2 -59 -15 -73 -10 -8 -14 -8 -14 0 0 7
-11 9 -31 6 -19 -4 -28 -2 -24 5 3 5 2 10 -3 10 -6 0 -9 -10 -8 -23 1 -23 25
-33 36 -16 3 4 12 4 20 -1 10 -6 11 -10 3 -10 -7 0 -10 -7 -7 -15 8 -19 -10
-20 -28 -2 -7 8 -18 12 -24 10 -7 -2 -14 9 -16 26 -3 24 0 32 19 40 15 7 22 7
18 1 -4 -6 6 -10 24 -10 17 0 31 5 31 11 0 6 -9 8 -20 4 -11 -4 -21 -2 -21 4
-1 6 -2 16 -3 22 0 7 -10 15 -21 20 -11 4 -15 8 -10 8 13 1 17 39 5 46 -5 3
-11 1 -15 -5z m-22 -145 c4 -8 2 -17 -4 -20 -5 -4 -7 -11 -4 -16 3 -5 -1 -6
-9 -3 -18 7 -21 24 -5 24 6 0 9 7 5 15 -3 8 -1 15 3 15 5 0 11 -7 14 -15z m88
-101 c9 -8 23 -12 32 -9 21 9 30 -10 11 -26 -13 -10 -17 -10 -24 1 -7 11 -11
11 -24 1 -13 -11 -16 -11 -16 0 -1 8 -11 1 -24 -15 -16 -19 -28 -26 -37 -20
-11 6 -11 3 1 -12 8 -10 11 -16 6 -12 -5 4 -18 2 -30 -4 -20 -11 -20 -10 -5
13 9 13 23 24 30 24 20 0 28 15 23 42 -4 23 -4 24 21 7 14 -9 28 -14 31 -11 3
3 -7 12 -23 20 -33 17 -60 12 -43 -8 16 -19 -15 -42 -35 -25 -16 13 -10 35 6
24 5 -3 7 -10 4 -15 -4 -5 -1 -9 5 -9 8 0 10 9 6 24 -4 15 -1 26 7 30 18 7 59
-3 78 -20z m79 -49 c0 -8 -4 -15 -10 -15 -5 0 -10 7 -10 15 0 8 5 15 10 15 6
0 10 -7 10 -15z m-85 -5 c10 8 15 8 20 -1 10 -15 -12 -28 -39 -23 -14 3 -16 2
-6 -3 20 -11 25 -43 6 -43 -10 0 -13 6 -9 17 5 12 2 15 -10 10 -16 -6 -16 -4
-1 26 10 18 19 27 22 19 3 -9 7 -10 17 -2z m67 -31 c-9 -4 -21 -4 -27 -1 -5 3
-4 7 3 10 7 2 9 8 6 14 -3 5 3 4 15 -4 19 -12 19 -13 3 -19z m-20 -38 c-6 -14
-7 -14 -10 2 -2 9 -8 17 -13 17 -5 0 -9 5 -9 10 0 6 7 6 19 -2 12 -7 17 -18
13 -27z m-102 4 c0 -2 -9 -3 -19 -2 -11 0 -18 5 -15 9 4 6 34 0 34 -7z"/>
<path d="M1194 13399 c-3 -5 -1 -9 5 -9 6 0 7 -7 4 -17 -4 -11 -3 -14 5 -9 7
4 15 0 20 -11 4 -10 12 -19 18 -20 9 -2 9 4 1 22 -7 13 -15 21 -19 19 -5 -3
-8 -1 -8 5 0 5 8 11 18 13 12 3 8 6 -11 10 -15 3 -30 1 -33 -3z"/>
<path d="M1434 13395 c-18 -14 -18 -14 4 -8 12 3 22 9 22 14 0 12 -3 11 -26
-6z"/>
<path d="M1205 13340 c-3 -5 -1 -10 4 -10 6 0 11 5 11 10 0 6 -2 10 -4 10 -3
0 -8 -4 -11 -10z"/>
<path d="M1350 13322 c0 -7 -7 -12 -16 -12 -8 0 -12 -5 -8 -11 4 -7 11 -6 22
5 9 8 13 19 9 22 -4 4 -7 2 -7 -4z"/>
<path d="M1050 13269 c0 -5 5 -7 10 -4 6 3 10 8 10 11 0 2 -4 4 -10 4 -5 0
-10 -5 -10 -11z"/>
<path d="M1303 13258 c-11 -12 -8 -17 12 -28 14 -7 25 -18 25 -23 0 -6 -5 -6
-12 0 -23 17 -50 24 -41 10 4 -6 8 -15 8 -19 0 -3 4 -10 8 -15 5 -4 8 -3 7 2
-5 22 1 27 15 15 17 -14 17 -14 20 18 1 12 -3 22 -11 22 -7 0 -14 7 -16 17 -3
14 -4 14 -15 1z"/>
<path d="M1395 13240 c-3 -5 -1 -10 4 -10 6 0 11 5 11 10 0 6 -2 10 -4 10 -3
0 -8 -4 -11 -10z"/>
<path d="M1053 13214 c0 -8 6 -14 14 -14 7 0 13 4 13 9 0 5 -6 11 -13 14 -8 3
-14 -1 -14 -9z"/>
<path d="M1360 13190 c0 -5 5 -10 11 -10 5 0 7 5 4 10 -3 6 -8 10 -11 10 -2 0
-4 -4 -4 -10z"/>
<path d="M1055 13180 c-3 -5 -1 -10 4 -10 6 0 11 5 11 10 0 6 -2 10 -4 10 -3
0 -8 -4 -11 -10z"/>
<path d="M1331 13114 c0 -11 3 -14 6 -6 3 7 2 16 -1 19 -3 4 -6 -2 -5 -13z"/>
<path d="M1026 13073 c6 -4 14 -15 17 -23 5 -11 6 -9 4 4 -1 11 -9 21 -17 23
-10 3 -11 2 -4 -4z"/>
<path d="M1060 13003 c0 -18 5 -22 24 -21 14 1 22 6 20 10 -3 4 0 8 7 8 7 0 9
3 6 6 -4 4 -13 1 -21 -5 -11 -10 -17 -8 -25 6 -9 16 -10 16 -11 -4z"/>
<path d="M1125 12991 c-3 -5 -1 -12 5 -16 5 -3 10 1 10 9 0 18 -6 21 -15 7z"/>
<path d="M1321 12934 c0 -11 3 -14 6 -6 3 7 2 16 -1 19 -3 4 -6 -2 -5 -13z"/>
<path d="M1085 12850 c3 -5 11 -10 16 -10 6 0 7 5 4 10 -3 6 -11 10 -16 10 -6
0 -7 -4 -4 -10z"/>
</g>
</svg>
