<?xml version="1.0" standalone="no"?>
<!DOCTYPE svg PUBLIC "-//W3C//DTD SVG 20010904//EN"
 "http://www.w3.org/TR/2001/REC-SVG-20010904/DTD/svg10.dtd">
<svg version="1.0" xmlns="http://www.w3.org/2000/svg"
 width="1024.000000pt" height="1536.000000pt" viewBox="0 0 1024.000000 1536.000000"
 preserveAspectRatio="xMidYMid meet">

<g transform="translate(0.000000,1536.000000) scale(0.100000,-0.100000)"
fill="#000000" stroke="none">
<path d="M5050 14987 c-30 -18 -91 -46 -135 -61 -329 -116 -576 -366 -668
-676 -30 -99 -55 -226 -58 -290 -4 -70 -15 -90 -94 -166 -72 -70 -135 -162
-135 -197 0 -27 34 -88 70 -124 34 -35 105 -73 136 -73 10 0 24 -4 31 -8 6 -4
30 -72 52 -152 44 -155 95 -311 138 -418 21 -53 23 -67 12 -71 -8 -2 -31 -23
-51 -45 l-38 -41 0 -111 0 -112 -35 -30 c-19 -17 -51 -34 -72 -37 -21 -4 -66
-16 -100 -27 -59 -20 -64 -20 -81 -5 -21 20 -95 23 -139 6 -15 -5 -37 -21 -48
-35 -16 -19 -46 -31 -145 -54 -241 -59 -423 -132 -564 -230 -136 -94 -286
-270 -366 -430 -50 -101 -86 -214 -162 -508 -6 -24 -21 -59 -34 -77 -49 -72
-41 -104 40 -160 31 -21 56 -44 56 -52 0 -7 -10 -41 -21 -75 -20 -58 -33 -86
-92 -204 -30 -60 -18 -99 44 -147 33 -25 49 -44 49 -60 -1 -35 -25 -124 -63
-234 -45 -127 -60 -157 -106 -208 -83 -94 -91 -107 -91 -156 0 -26 5 -69 11
-96 13 -55 5 -77 -69 -189 -21 -32 -42 -67 -45 -77 -4 -10 -27 -47 -52 -81
-25 -35 -48 -78 -51 -95 -4 -17 -11 -28 -17 -24 -7 4 -8 -9 -4 -40 5 -32 3
-47 -4 -47 -8 0 -10 19 -6 58 3 40 -7 128 -34 292 -21 129 -43 275 -49 324 -6
49 -13 92 -15 96 -2 3 -15 89 -30 190 -27 192 -28 202 -45 310 -6 36 -29 196
-51 355 -36 265 -106 755 -145 1015 -8 58 -29 186 -44 285 -16 99 -48 308 -70
465 -47 326 -112 722 -135 825 -41 177 -109 373 -206 592 -33 72 -59 135 -59
140 0 5 -10 23 -23 41 -22 29 -24 30 -41 14 -20 -20 -59 -143 -81 -257 -44
-222 -55 -403 -35 -580 29 -254 44 -371 75 -600 19 -137 43 -322 55 -410 20
-152 53 -372 85 -570 25 -154 111 -745 165 -1130 12 -82 25 -177 30 -210 53
-353 167 -1393 153 -1405 -4 -5 -69 -25 -143 -45 -74 -20 -176 -48 -225 -61
-73 -20 -96 -23 -119 -14 -41 15 -63 4 -87 -42 -16 -31 -19 -51 -15 -81 7 -42
29 -91 54 -119 24 -28 26 -28 309 51 104 28 123 29 99 5 -19 -18 -29 -119 -21
-188 7 -52 5 -62 -25 -117 -56 -106 -45 -187 40 -289 28 -33 41 -61 49 -105 7
-33 14 -69 16 -81 3 -11 20 -36 39 -56 19 -19 48 -62 64 -94 48 -94 151 -174
225 -174 37 0 39 -2 64 -56 25 -56 26 -58 19 -228 -4 -94 -14 -198 -22 -231
-22 -97 -19 -146 15 -192 35 -49 76 -81 151 -119 78 -39 131 -38 195 3 42 27
57 46 93 115 35 69 43 96 49 161 l6 78 -34 35 c-26 27 -33 41 -31 69 2 18 -6
68 -17 110 -11 42 -25 116 -31 163 -6 48 -16 108 -21 134 -12 53 -12 53 97
159 29 27 66 77 84 110 48 91 81 123 152 149 123 45 181 81 259 159 69 68 84
91 142 212 36 74 90 171 121 216 72 104 96 153 145 295 48 142 63 170 114 228
55 63 65 92 71 211 3 57 14 140 25 183 12 44 21 89 21 102 0 13 5 26 10 29 6
3 10 -4 10 -18 0 -13 11 -84 25 -157 32 -171 34 -313 5 -367 -11 -21 -20 -50
-20 -66 0 -30 -54 -309 -65 -339 -4 -9 -32 -36 -62 -58 -31 -24 -61 -56 -69
-76 -17 -40 -19 -187 -3 -233 10 -28 5 -52 -51 -219 -113 -342 -172 -535 -235
-761 -15 -52 -42 -130 -62 -172 -40 -89 -39 -110 7 -162 26 -31 28 -37 20 -68
-16 -54 -87 -364 -110 -484 -12 -60 -35 -166 -51 -235 -17 -68 -48 -207 -69
-307 -42 -200 -42 -225 6 -283 22 -26 150 -111 225 -149 23 -11 27 -21 32 -79
34 -372 50 -514 71 -614 l24 -117 -24 -68 c-13 -37 -45 -110 -70 -162 -47 -93
-47 -93 -41 -172 6 -78 39 -175 78 -230 17 -25 17 -26 -8 -77 -16 -32 -27 -75
-30 -114 -4 -56 -2 -67 22 -102 22 -32 25 -44 17 -62 -13 -28 -70 -293 -81
-376 -4 -34 -18 -124 -31 -199 -13 -74 -20 -147 -17 -161 10 -40 42 -72 111
-113 36 -21 68 -45 71 -54 4 -9 11 -108 15 -221 5 -113 16 -236 24 -275 32
-153 31 -194 -5 -312 -43 -137 -44 -194 -6 -252 l28 -42 -35 -39 c-19 -21 -40
-58 -46 -82 -22 -87 -43 -130 -117 -235 -175 -248 -247 -314 -446 -407 -115
-53 -179 -109 -236 -205 -66 -111 -92 -268 -55 -326 26 -42 41 -51 110 -75
147 -50 491 -63 758 -30 176 22 264 42 341 75 62 28 205 115 234 144 11 11 32
21 46 21 14 0 25 3 25 8 0 15 86 44 137 45 29 1 48 4 41 8 -6 4 13 12 41 18
85 18 288 111 322 147 29 31 34 147 15 354 -11 123 -13 187 -6 215 16 65 11
122 -14 183 -40 97 -40 98 -7 151 45 69 53 145 29 269 -20 105 -16 148 23 237
16 38 22 69 34 210 9 88 43 357 47 359 135 61 223 121 239 163 5 15 5 67 -1
136 -6 62 -15 204 -19 317 -9 195 -11 209 -36 261 l-28 56 27 39 c31 46 32 72
6 156 -31 99 -27 143 20 215 50 78 54 96 40 185 -6 40 -15 127 -20 193 -7 112
-6 125 16 200 51 166 92 314 116 415 l13 55 90 7 c50 4 155 12 234 18 167 12
159 16 186 -90 9 -36 32 -112 50 -170 18 -58 45 -145 60 -195 29 -100 92 -269
110 -300 7 -11 21 -44 30 -74 14 -43 15 -61 6 -90 -29 -97 -21 -271 15 -347 9
-19 37 -47 66 -65 27 -18 45 -35 39 -38 -14 -9 -25 -112 -17 -147 4 -15 23
-42 43 -60 l36 -33 -12 -58 c-10 -47 -9 -85 3 -201 12 -111 13 -173 6 -284
-14 -206 -6 -224 147 -314 36 -21 71 -47 78 -58 17 -28 39 -131 65 -306 28
-192 33 -209 92 -320 50 -92 51 -95 39 -135 -7 -22 -16 -87 -20 -145 -10 -122
1 -175 50 -236 24 -30 29 -45 25 -69 -3 -17 -2 -108 4 -203 10 -175 1 -285
-29 -365 -13 -35 -14 -77 -2 -77 5 0 9 -20 9 -45 -1 -31 -5 -45 -15 -45 -22 0
-14 -16 15 -28 25 -11 25 -11 -13 -6 -38 5 -39 5 -20 -10 11 -8 28 -16 37 -16
9 0 20 -4 23 -10 3 -5 18 -10 33 -11 22 0 23 -2 9 -8 -17 -6 -16 -8 7 -19 15
-6 45 -15 67 -18 29 -5 39 -11 35 -21 -4 -8 -6 -18 -6 -23 0 -5 -10 -11 -22
-13 -20 -4 -19 -4 5 -6 15 0 27 -5 27 -10 0 -5 3 -16 6 -24 4 -11 -2 -17 -23
-20 l-28 -4 28 -2 c15 0 28 -7 29 -13 2 -24 5 -33 16 -61 7 -16 12 -34 12 -42
0 -7 20 -27 45 -44 34 -23 74 -36 177 -56 112 -23 168 -28 357 -32 274 -7 450
13 576 64 81 33 98 66 74 143 -5 19 -12 80 -13 135 -5 133 -23 184 -97 275
-203 249 -242 326 -258 513 -6 68 -15 107 -35 150 -41 86 -45 131 -14 165 60
63 61 99 11 225 -44 112 -55 226 -30 324 12 47 16 126 18 352 l2 293 36 22
c49 32 129 119 137 150 7 31 -7 76 -58 183 -25 53 -53 138 -78 242 -41 168
-66 252 -101 337 l-22 51 22 57 c31 83 28 121 -15 192 -75 122 -71 100 -39
197 36 112 32 168 -20 264 -21 37 -43 75 -50 83 -49 58 -52 92 -25 275 13 88
8 319 -11 469 l-11 90 29 20 c52 37 193 179 205 208 15 34 24 35 33 6 14 -48
164 -285 266 -421 64 -85 148 -182 210 -242 106 -102 300 -241 372 -266 l38
-13 57 59 c353 366 620 852 791 1445 106 368 201 947 240 1475 28 362 55 1328
49 1765 l-3 276 -52 64 c-208 261 -573 474 -873 511 -130 16 -409 -4 -445 -32
-6 -4 -30 -11 -54 -15 -35 -6 -43 -4 -39 7 3 8 -4 34 -15 59 -11 25 -23 70
-26 100 -6 55 -6 55 31 83 45 32 48 59 15 108 -43 63 -109 206 -114 248 -5 33
-1 47 14 64 27 31 44 73 37 94 -3 10 -19 45 -35 79 -16 33 -36 89 -45 125 -70
281 -155 485 -264 634 -86 117 -301 291 -425 345 -101 44 -244 90 -383 125
-115 28 -152 41 -184 66 -40 32 -98 58 -131 59 -10 0 -31 -14 -47 -31 -27 -30
-30 -31 -97 -27 -54 4 -85 13 -148 44 l-80 40 -3 99 c-4 128 -17 152 -95 180
-73 26 -86 39 -64 62 38 43 138 310 186 497 l28 109 51 13 c114 30 184 83 211
163 17 51 -13 105 -114 210 l-86 89 -9 94 c-36 371 -185 636 -466 830 -69 47
-255 138 -334 163 -30 9 -79 28 -108 41 -68 31 -86 30 -152 -9z m223 -38 c59
-15 225 -91 316 -145 226 -134 390 -350 457 -600 14 -52 23 -100 20 -107 -2
-7 -5 -4 -5 6 -1 30 -68 223 -96 279 -39 77 -108 165 -192 243 -76 71 -106 92
-208 153 -32 20 -53 38 -49 44 4 6 2 8 -4 5 -10 -7 -147 57 -157 74 -6 9 -145
54 -157 51 -5 -1 -8 3 -8 9 0 7 9 9 23 4 12 -3 39 -11 60 -16z m-313 -39 c-8
-5 -19 -10 -25 -10 -5 0 -3 5 5 10 8 5 20 10 25 10 6 0 3 -5 -5 -10z m-211
-84 c-15 -15 -138 -92 -133 -84 7 10 123 88 132 88 3 0 3 -2 1 -4z m-149 -100
c0 -2 -8 -10 -17 -17 -16 -13 -17 -12 -4 4 13 16 21 21 21 13z m-76 -68 c-69
-73 -134 -164 -180 -250 -24 -46 -44 -80 -44 -75 0 16 74 153 110 201 42 58
139 166 148 166 3 0 -12 -19 -34 -42z m959 11 c39 -20 67 -52 67 -75 0 -15 12
-30 35 -44 19 -12 40 -30 45 -41 6 -10 19 -19 30 -19 10 0 30 -15 44 -32 20
-25 26 -29 26 -15 0 17 2 17 22 3 21 -15 41 -59 59 -129 5 -21 16 -49 25 -62
8 -13 17 -53 19 -92 l4 -68 -15 40 c-8 22 -12 52 -8 67 4 23 3 27 -10 22 -9
-3 -16 -17 -16 -30 0 -24 -14 -32 -25 -14 -3 6 -11 10 -16 10 -6 0 -7 -5 -3
-12 5 -8 -3 -9 -28 -5 -20 3 -55 3 -78 0 l-43 -6 29 -13 29 -14 -40 5 c-22 3
-58 7 -80 9 -22 3 -87 12 -145 21 -58 8 -162 18 -232 22 l-127 6 4 131 c3 72
9 147 15 166 5 19 11 48 11 65 1 16 3 22 6 13 3 -11 10 -15 20 -11 12 5 14 3
8 -7 -5 -7 -4 -11 1 -8 40 23 87 39 100 34 20 -8 46 7 91 49 20 19 46 36 57
38 43 9 98 7 119 -4z m-481 -212 l-20 -42 5 45 c3 25 9 46 13 48 5 2 6 13 4
25 -3 15 -1 13 7 -6 9 -23 7 -35 -9 -70z m5 -84 c-3 -10 -5 -2 -5 17 0 19 2
27 5 18 2 -10 2 -26 0 -35z m0 -90 c-3 -10 -5 -4 -5 12 0 17 2 24 5 18 2 -7 2
-21 0 -30z m458 -132 c198 -42 367 -108 397 -154 12 -19 2 -19 -33 2 -57 34
-77 44 -51 25 12 -9 22 -21 22 -26 0 -5 7 -16 15 -24 17 -17 20 -34 6 -34 -5
0 -12 9 -16 19 -9 29 -35 35 -36 8 0 -12 -3 -16 -6 -9 -2 6 -9 12 -14 12 -6 0
-7 -5 -4 -10 3 -6 -1 -17 -9 -26 -14 -13 -22 -12 -78 10 -83 32 -173 41 -408
41 -107 0 -200 4 -207 8 -16 10 -5 37 24 60 25 20 31 57 9 57 -8 0 -20 13 -28
30 -10 23 -18 29 -33 24 -17 -4 -17 -3 -5 6 25 19 336 6 455 -19z m390 -81 c3
-6 -1 -7 -9 -4 -18 7 -21 14 -7 14 6 0 13 -4 16 -10z m-4544 -215 c79 -184
149 -381 190 -535 26 -98 87 -470 139 -840 22 -162 56 -389 75 -505 19 -115
45 -291 60 -390 14 -99 38 -270 54 -380 34 -229 31 -210 111 -780 64 -463 92
-652 145 -980 18 -115 36 -246 39 -290 l5 -80 -15 57 c-11 39 -22 58 -35 61
-21 6 -25 37 -7 55 9 9 7 16 -10 32 -12 12 -22 27 -22 35 0 30 -19 14 -26 -22
-7 -35 -8 -36 -14 -13 -9 39 -42 33 -56 -10 l-12 -35 -8 40 -8 40 -6 -30 c-7
-33 -4 -122 6 -197 3 -29 2 -48 -4 -48 -5 0 -12 51 -16 113 -10 160 -31 335
-81 677 -14 96 -46 315 -71 485 -24 171 -53 364 -64 430 -11 66 -33 217 -50
335 -17 118 -41 287 -55 375 -14 88 -36 239 -50 335 -13 96 -36 252 -50 345
-14 94 -48 321 -75 505 -61 416 -71 481 -109 704 -35 202 -46 294 -61 519 -6
86 -15 169 -21 185 -9 24 -8 25 5 12 8 -8 52 -100 97 -205z m-102 66 c1 -77 0
-83 -18 -78 -32 8 -40 -6 -51 -83 -6 -41 -15 -100 -20 -130 -5 -30 -9 -122 -8
-205 1 -97 3 -134 8 -105 l7 45 1 -47 c1 -26 7 -50 13 -53 7 -5 4 -14 -7 -26
-16 -18 -16 -28 2 -182 10 -89 20 -152 22 -139 2 14 8 20 15 15 7 -4 6 0 -2
10 -12 15 -11 17 12 15 15 -1 28 -10 30 -20 3 -11 1 -15 -5 -12 -6 4 -2 -6 8
-22 17 -27 17 -28 1 -15 -15 12 -17 12 -10 -4 5 -14 3 -17 -10 -12 -10 4 -17
1 -17 -6 0 -8 -4 -6 -10 3 -8 12 -10 9 -10 -12 0 -16 5 -28 11 -28 5 0 7 5 4
10 -3 6 -2 10 4 10 5 0 11 -3 14 -7 2 -5 2 -2 0 5 -1 8 3 12 9 9 7 -2 12 -10
10 -17 -2 -10 1 -10 14 1 10 8 15 9 11 3 -10 -17 -16 -64 -8 -64 4 0 7 -13 6
-30 0 -19 -5 -30 -14 -30 -11 0 -11 -3 2 -18 14 -15 14 -21 3 -42 -7 -14 -17
-24 -22 -23 -6 1 -5 -38 3 -100 7 -56 12 -112 13 -125 0 -13 4 -21 8 -18 5 3
3 47 -4 98 -17 117 -17 141 -2 136 7 -3 12 -30 14 -69 1 -35 5 -77 9 -94 4
-16 9 -50 10 -75 1 -25 3 -46 4 -47 0 -2 1 -6 0 -9 0 -4 5 -10 11 -14 7 -4 14
-18 15 -31 4 -39 5 -40 15 -34 5 3 10 1 10 -5 0 -6 -8 -10 -17 -9 -36 3 -43
-2 -43 -28 0 -19 3 -24 9 -15 6 10 10 7 13 -12 5 -27 -6 -36 -16 -13 -3 6 -2
-8 1 -33 3 -25 12 -54 20 -66 7 -11 10 -23 7 -27 -3 -3 -2 -12 2 -19 7 -12 16
-204 9 -196 -4 5 -61 385 -80 528 -22 177 -51 394 -64 470 -75 467 -73 786 4
1072 8 29 20 73 27 97 16 62 26 32 27 -78z m4879 23 l-3 -39 -5 47 c-3 26 -1
43 3 39 5 -5 7 -26 5 -47z m-443 -19 c66 -15 127 -31 135 -36 19 -12 -38 -3
-145 22 -44 11 -147 24 -230 29 -201 14 -212 20 -30 15 115 -3 178 -10 270
-30z m421 -56 c4 -8 1 -8 -14 0 -12 6 -24 16 -28 22 -4 8 -1 8 14 0 12 -6 24
-16 28 -22z m-606 -10 c125 -18 229 -63 230 -101 0 -22 0 -22 -61 -2 -39 13
-55 14 -77 5 -29 -12 -156 -32 -237 -38 -27 -2 -74 -6 -103 -9 l-52 -7 -18 42
c-20 47 -26 50 -47 17 -9 -13 -23 -27 -31 -30 -21 -8 -114 41 -114 59 0 31 38
55 88 55 26 0 66 6 89 13 49 14 218 12 333 -4z m674 -38 c31 -34 3 -24 -30 10
-21 23 -23 29 -9 21 11 -5 29 -20 39 -31z m-4917 -68 c-2 -16 -4 -3 -4 27 0
30 2 43 4 28 2 -16 2 -40 0 -55z m3679 51 c19 -5 27 -16 45 -58 2 -5 -11 -14
-30 -21 -36 -12 -42 -11 -138 30 -45 19 -56 40 -25 48 26 7 124 8 148 1z
m1355 -111 c13 -16 12 -17 -3 -4 -10 7 -18 15 -18 17 0 8 8 3 21 -13z m-4994
-248 c14 -88 27 -173 29 -190 l4 -30 -10 30 c-15 45 -60 344 -58 384 l1 36 4
-35 c2 -19 15 -107 30 -195z m4353 204 c34 -15 38 -18 15 -14 -16 3 -51 8 -78
12 -26 3 -50 10 -53 14 -10 16 71 8 116 -12z m188 -17 c11 -14 12 -14 13 4 0
16 2 15 11 -6 16 -40 3 -242 -23 -355 -20 -83 -25 -95 -30 -70 l-6 30 -7 -30
c-21 -91 -137 -422 -161 -458 -9 -15 -22 -27 -29 -27 -6 0 -35 -25 -65 -55
-36 -37 -61 -55 -78 -55 -19 0 -28 -9 -43 -42 -29 -66 -76 -106 -139 -118 -77
-14 -126 -12 -169 7 -33 14 -34 17 -15 20 23 4 23 5 -5 27 -15 12 -39 27 -54
34 -16 6 -28 20 -28 29 0 10 -14 33 -32 52 -30 32 -31 34 -13 47 10 8 26 14
35 14 8 0 32 9 53 20 52 28 104 25 182 -10 99 -44 149 -39 84 9 -16 12 -34 33
-39 47 -9 23 -14 24 -92 25 -129 1 -190 7 -201 18 -8 8 -4 11 14 12 21 1 21 2
-6 8 -55 13 98 23 287 20 168 -4 224 2 162 17 -16 3 -58 16 -94 28 -49 16 -85
20 -150 19 -47 -2 -99 2 -115 7 -23 8 -46 5 -100 -10 -83 -24 -86 -24 -60 -3
l20 16 -20 -8 c-11 -4 -39 -12 -62 -18 -40 -10 -44 -9 -70 20 -50 54 -54 60
-64 123 -5 34 -21 84 -34 111 -14 26 -25 56 -25 65 0 9 -6 30 -14 47 -21 49
-56 170 -53 187 6 37 16 39 156 39 129 1 139 -1 134 -17 -2 -10 3 -24 11 -31
9 -8 16 -10 16 -7 0 4 10 2 21 -5 19 -10 21 -16 14 -57 -3 -26 -6 -62 -6 -81
1 -18 -8 -63 -19 -99 -23 -75 -19 -189 7 -199 12 -5 12 -7 1 -15 -9 -6 -3 -8
18 -6 17 1 39 -4 48 -11 14 -12 19 -11 34 2 28 25 91 49 114 41 13 -4 27 1 41
14 12 11 42 23 66 27 29 5 55 17 73 35 28 29 37 64 18 75 -6 4 -10 -5 -10 -19
0 -31 -16 -33 -58 -9 -26 15 -35 15 -68 4 -33 -10 -45 -10 -76 3 -21 9 -42 25
-48 36 -19 36 1 351 27 424 17 51 30 58 62 38 40 -24 51 -43 51 -84 0 -44 22
-60 47 -35 15 15 18 15 29 -1 12 -16 13 -16 15 3 1 11 1 23 0 27 0 4 11 3 25
-2 14 -6 56 -10 94 -10 65 0 71 2 99 33 23 24 31 28 31 15 0 -9 -8 -22 -17
-27 -24 -14 -7 -14 18 -1 10 6 19 7 19 2 0 -20 -79 -45 -125 -39 -47 7 -60 -4
-25 -23 21 -11 54 -7 110 15 19 7 48 16 63 20 15 3 25 10 22 15 -3 5 6 12 20
15 14 3 35 7 48 10 12 2 28 14 35 26 12 18 11 23 -5 35 -17 13 -16 14 8 8 22
-5 27 -1 33 19 5 20 11 24 28 20 13 -3 29 -13 36 -21z m-1002 -110 c-7 -6 -76
27 -76 36 0 21 15 19 46 -6 18 -14 32 -28 30 -30z m634 15 c14 -2 0 -4 -30 -4
-70 1 -78 5 -49 28 23 18 24 18 39 -1 8 -10 26 -20 40 -23z m-530 -10 c0 -5
-7 -6 -16 -3 -11 4 -15 2 -11 -8 10 -26 -79 -34 -128 -11 -29 14 -28 14 23 8
34 -4 52 -2 52 5 0 7 8 9 18 5 9 -3 14 -3 10 1 -3 4 1 16 10 25 15 16 18 17
30 3 6 -9 12 -20 12 -25z m-3761 -142 c1 -17 -1 -17 -9 -5 -5 8 -9 26 -9 40 0
23 1 23 9 5 5 -11 9 -29 9 -40z m17 -203 c1 -6 -2 -10 -7 -6 -14 8 -11 -4 7
-32 13 -20 14 -24 3 -22 -19 4 -28 26 -28 73 0 35 1 38 11 20 7 -11 13 -26 14
-33z m141 -9 c-3 -10 -5 -4 -5 12 0 17 2 24 5 18 2 -7 2 -21 0 -30z m3653 6
c-7 -11 -14 -18 -17 -15 -3 3 0 12 7 21 18 21 23 19 10 -6z m-3643 -71 c-3 -7
-5 -2 -5 12 0 14 2 19 5 13 2 -7 2 -19 0 -25z m4460 10 c-3 -8 -6 -5 -6 6 -1
11 2 17 5 13 3 -3 4 -12 1 -19z m-4450 -75 c-3 -10 -5 -4 -5 12 0 17 2 24 5
18 2 -7 2 -21 0 -30z m41 -258 c0 -16 -8 17 -18 75 -10 58 -18 119 -18 135 0
17 9 -17 19 -75 10 -58 18 -118 17 -135z m4347 108 c-27 -95 -100 -234 -147
-278 l-42 -40 35 40 c51 59 92 137 130 247 37 106 50 123 24 31z m21 -70 c-8
-15 -15 -25 -16 -21 0 12 23 58 27 54 3 -2 -2 -17 -11 -33z m-4436 -18 c0 -14
-2 -25 -4 -25 -2 0 -6 11 -8 25 -3 14 -1 25 3 25 5 0 9 -11 9 -25z m3567 -5
c-14 -11 -32 -20 -41 -20 -9 0 -16 -5 -16 -12 0 -6 -2 -9 -5 -7 -2 3 -2 15 1
26 6 22 21 30 63 32 l24 1 -26 -20z m-3463 -255 c4 -43 0 -32 -14 40 -10 55
-18 116 -18 135 1 41 23 -84 32 -175z m-104 168 c0 -13 4 -22 8 -19 5 3 9 -1
9 -9 0 -8 -4 -15 -9 -15 -5 0 -7 -4 -3 -9 3 -5 1 -12 -4 -15 -5 -3 -9 11 -8
31 1 20 -4 38 -11 41 -17 5 -15 19 3 19 9 0 15 -10 15 -24z m4676 -138 c-4
-18 -14 -39 -23 -46 -15 -13 -15 -11 0 18 10 18 18 47 18 65 1 19 3 25 6 15 3
-11 2 -34 -1 -52z m-466 -11 c-8 -8 -23 -20 -34 -25 -15 -7 -13 -3 7 15 31 29
47 35 27 10z m135 -16 c-3 -13 -6 -32 -8 -43 -1 -11 -6 -25 -9 -31 -11 -16 3
-56 17 -50 7 2 21 -1 31 -8 16 -12 14 -15 -22 -38 -93 -57 -288 -138 -331
-138 -15 1 -14 3 5 13 12 7 20 16 17 19 -3 3 13 24 37 46 73 69 164 149 179
158 8 5 29 28 48 52 37 48 44 51 36 20z m275 -58 c-8 -5 -11 -10 -7 -10 10 0
-34 -36 -85 -70 -20 -13 -36 -29 -35 -34 1 -5 -9 -12 -23 -16 -14 -4 -45 -19
-68 -34 -23 -14 -46 -26 -51 -26 -5 0 -41 -13 -79 -30 -39 -16 -80 -30 -91
-30 -10 0 -21 -5 -23 -11 -2 -6 -19 -9 -38 -7 -32 3 -29 5 40 27 150 48 382
171 434 229 11 12 24 22 30 22 6 0 4 -5 -4 -10z m-4503 -67 c-3 -10 -5 -2 -5
17 0 19 2 27 5 18 2 -10 2 -26 0 -35z m4612 -31 c0 -24 -1 -25 -9 -7 -12 28
-12 47 0 40 6 -3 10 -18 9 -33z m-4602 -39 c-3 -10 -5 -2 -5 17 0 19 2 27 5
18 2 -10 2 -26 0 -35z m4970 41 c-3 -3 -12 -4 -19 -1 -8 3 -5 6 6 6 11 1 17
-2 13 -5z m90 -37 c22 -21 33 -54 14 -42 -5 3 -12 1 -16 -5 -4 -6 -12 -5 -21
5 -9 8 -12 20 -8 26 4 7 3 9 -4 6 -17 -11 -41 3 -39 24 1 16 6 19 26 14 13 -3
35 -16 48 -28z m-91 -38 c7 -51 13 -62 29 -55 8 3 15 1 15 -5 0 -6 7 -8 16 -5
14 5 16 1 11 -26 -7 -40 8 -10 19 37 3 17 8 25 11 18 2 -6 -16 -80 -40 -165
-77 -266 -115 -461 -101 -521 10 -47 136 -287 151 -287 2 0 1 6 -3 13 -4 6 2
3 14 -7 12 -10 34 -40 48 -65 15 -25 75 -118 133 -205 79 -119 124 -176 179
-225 78 -71 90 -74 146 -40 41 25 58 24 26 -2 -22 -17 -22 -19 -3 -10 19 10
321 118 638 229 55 19 102 39 103 43 6 16 21 9 33 -13 11 -20 10 -21 -2 -11
-12 10 -41 1 -149 -43 -223 -91 -213 -86 -195 -97 10 -5 28 -4 47 2 17 6 40
11 52 11 26 0 -67 -45 -115 -55 -19 -4 -54 -14 -78 -22 -33 -11 -46 -12 -51
-3 -10 16 -50 -4 -50 -25 0 -14 -37 -31 -47 -21 -4 3 -1 6 6 6 7 0 10 4 6 10
-4 6 -15 6 -31 0 -38 -15 -53 -10 -19 5 52 24 3 16 -89 -15 -49 -17 -103 -30
-121 -30 -17 0 -36 -5 -43 -12 -9 -9 -15 -9 -24 1 -11 12 -9 13 7 8 11 -4 -14
26 -56 66 -42 39 -100 108 -129 152 -29 44 -59 87 -67 95 -8 8 -24 31 -35 50
-13 21 -23 30 -26 22 -3 -10 -8 -7 -19 7 -14 21 -40 31 -28 11 13 -20 -5 -9
-34 23 -36 37 -39 47 -11 40 21 -5 28 11 10 22 -5 3 -10 15 -10 25 0 21 -19
37 -29 24 -13 -19 -31 -13 -52 17 -21 30 -21 31 -2 21 11 -6 23 -9 26 -6 3 3
8 0 13 -7 4 -8 3 -10 -4 -5 -7 4 -12 2 -12 -3 0 -14 17 -14 26 0 3 6 -3 21
-15 32 -14 15 -21 17 -21 8 0 -11 -5 -9 -20 4 -19 17 -20 17 -20 0 0 -17 -1
-17 -19 -1 -27 24 -80 128 -73 145 3 8 0 11 -6 7 -7 -4 -15 9 -22 34 -6 22
-16 40 -22 40 -25 0 -1 206 52 450 5 25 12 62 16 83 4 25 9 34 14 26 8 -12 15
7 34 94 8 33 -10 37 -24 5 -9 -20 -10 -20 -5 7 2 17 7 56 11 88 7 63 22 65 30
6z m-4959 -31 c-3 -7 -5 -2 -5 12 0 14 2 19 5 13 2 -7 2 -19 0 -25z m5368 -43
c275 -80 412 -152 564 -299 82 -79 180 -205 217 -278 29 -57 30 -63 5 -41 -11
9 -17 23 -13 31 3 9 1 13 -5 9 -10 -6 -19 4 -86 100 -20 29 -56 70 -80 92 -84
77 -112 102 -142 122 -27 19 -26 17 5 -12 20 -19 56 -52 80 -75 56 -50 106
-104 97 -104 -4 0 -39 29 -78 65 -39 36 -75 65 -79 65 -5 0 -25 16 -45 37 -19
20 -35 31 -35 24 0 -7 -5 -9 -10 -6 -6 4 -8 10 -5 15 3 5 0 12 -6 16 -8 4 -9
3 -5 -4 12 -20 -4 -14 -68 26 -34 21 -97 53 -141 71 -44 17 -91 38 -105 47
l-25 14 30 -6 c38 -9 168 -60 220 -87 73 -39 99 -49 86 -34 -28 35 -208 113
-336 147 -76 20 -150 49 -143 55 2 3 46 -7 97 -20 96 -26 127 -31 101 -16 -14
8 -217 61 -233 61 -5 0 -5 -5 -2 -11 8 -12 -36 11 -46 24 -3 5 -20 9 -38 9
-17 1 -35 6 -38 11 -12 19 101 -1 262 -48z m-3046 0 c-3 -2 -63 -20 -134 -39
-72 -19 -139 -37 -150 -40 -11 -4 -4 1 15 10 53 24 283 84 269 69z m212 -36
c-5 -13 -10 -19 -10 -12 -1 15 10 45 15 40 3 -2 0 -15 -5 -28z m1406 5 c-3 -3
-12 -4 -19 -1 -8 3 -5 6 6 6 11 1 17 -2 13 -5z m200 -20 c-9 -10 -157 -46
-197 -49 -19 -1 -39 0 -45 3 -11 7 31 17 133 31 35 5 66 12 69 15 4 3 15 6 26
6 11 0 18 -3 14 -6z m-4120 -36 c-3 -7 -5 -2 -5 12 0 14 2 19 5 13 2 -7 2 -19
0 -25z m5039 -40 l-6 -53 21 45 c23 49 38 40 20 -12 -16 -45 -14 -69 4 -38 8
14 14 20 15 14 0 -6 12 -11 27 -11 15 0 28 -4 30 -9 2 -5 34 -8 71 -6 56 3 75
0 105 -18 20 -12 37 -26 37 -30 0 -15 47 -3 68 18 18 18 25 19 59 10 21 -5 53
-19 72 -31 19 -11 50 -23 70 -27 29 -4 36 -10 35 -27 0 -12 3 -20 8 -17 18 11
48 -8 48 -31 0 -15 7 -26 20 -30 30 -10 79 -54 96 -87 15 -28 11 -54 -4 -33
-4 6 -17 16 -29 23 -20 11 -23 10 -23 -5 0 -10 7 -26 14 -36 7 -9 11 -29 9
-45 -3 -19 -2 -23 5 -13 8 10 13 8 25 -10 12 -16 13 -26 6 -35 -7 -8 -7 -14 1
-19 5 -3 10 -1 10 5 0 6 4 9 10 5 5 -3 7 -12 4 -19 -3 -7 6 -41 20 -75 14 -34
22 -70 19 -79 -6 -15 -5 -15 11 -2 17 13 18 12 13 -21 -4 -31 -2 -35 17 -34
17 1 21 8 19 31 -3 29 -3 29 8 4 7 -16 12 -21 17 -13 6 9 11 7 19 -6 9 -15 9
-23 -1 -37 -19 -25 -9 -53 16 -46 17 4 19 1 15 -26 -3 -17 -2 -33 1 -37 4 -3
7 -22 9 -41 1 -20 7 -42 13 -49 8 -9 7 -14 -5 -19 -8 -3 -15 -17 -15 -31 0
-15 -6 -25 -15 -25 -9 0 -12 6 -9 15 4 8 1 15 -5 15 -6 0 -11 -6 -12 -12 -1
-7 -2 -22 -3 -33 0 -10 -14 -26 -31 -35 -16 -8 -33 -19 -37 -25 -5 -6 -11 -5
-16 3 -6 9 -15 5 -33 -14 l-24 -27 23 6 c24 6 29 -6 10 -22 -65 -53 -84 -65
-108 -67 -15 -1 -41 -9 -59 -19 -19 -9 -30 -11 -26 -5 4 7 23 18 41 26 34 14
42 28 25 39 -6 3 -13 -1 -18 -9 -4 -8 -17 -14 -28 -13 -11 1 -19 -2 -18 -8 1
-6 -19 -9 -48 -7 -27 2 -49 9 -49 14 0 22 -33 36 -57 25 -32 -14 -38 -3 -24
41 7 21 11 51 9 67 l-4 30 -11 -27 c-7 -14 -17 -29 -23 -33 -5 -3 -8 -11 -5
-16 3 -5 -1 -6 -9 -3 -9 3 -16 14 -16 24 0 10 -7 23 -15 30 -8 7 -15 20 -15
30 0 24 -42 51 -61 39 -21 -13 -24 -11 -24 15 0 13 3 22 8 19 4 -2 7 4 7 14 0
22 -36 28 -44 7 -6 -15 -46 -20 -46 -6 0 5 11 15 25 22 25 13 33 30 15 30 -5
0 -10 -5 -10 -11 0 -6 -12 -9 -27 -7 -20 2 -33 13 -45 36 -14 29 -18 31 -26
17 -7 -14 -12 -10 -30 27 -16 33 -21 38 -22 21 0 -39 -24 -31 -74 24 l-28 32
26 24 c35 32 41 91 9 95 -25 4 -26 8 -25 130 1 85 -7 114 -22 77 -8 -21 -28
-19 -22 3 7 21 -18 61 -30 49 -5 -4 -3 -11 3 -15 9 -5 6 -11 -8 -20 -15 -10
-20 -10 -23 0 -15 46 -15 98 0 180 16 95 70 288 80 288 3 0 3 -24 0 -52z
m-3161 -12 c-49 -23 -110 -55 -135 -71 -26 -17 -39 -21 -31 -11 15 18 228 127
246 125 5 0 -30 -20 -80 -43z m-1868 -23 c-3 -10 -5 -2 -5 17 0 19 2 27 5 18
2 -10 2 -26 0 -35z m3963 16 c0 -5 -14 -9 -31 -9 -26 0 -29 3 -20 14 12 14 51
10 51 -5z m-1493 -21 c-3 -7 -5 -2 -5 12 0 14 2 19 5 13 2 -7 2 -19 0 -25z
m2075 -55 c-11 -21 -27 -54 -36 -73 -10 -20 -15 -25 -12 -12 7 34 -13 15 -34
-33 -12 -29 -36 -56 -72 -83 -59 -45 -233 -137 -290 -154 -21 -6 -38 -15 -38
-20 0 -12 29 -3 99 28 70 31 77 24 11 -10 -61 -32 -180 -64 -385 -105 -83 -16
-161 -34 -175 -39 -14 -5 -29 -10 -35 -9 -5 0 -16 -12 -23 -27 -13 -26 -28
-34 -34 -17 -1 5 -15 7 -30 4 -25 -5 -28 -9 -27 -47 1 -22 3 -33 6 -24 2 9 21
22 41 29 20 6 43 16 49 21 7 6 21 7 30 4 15 -6 15 -8 3 -16 -10 -6 -11 -10 -3
-10 7 0 21 9 31 21 11 11 44 27 73 34 30 8 72 24 94 35 22 12 31 18 20 15 -24
-8 -119 -31 -160 -39 -27 -6 -28 -5 -12 8 20 15 138 38 207 40 25 1 50 4 55 7
6 4 60 23 120 43 128 43 255 109 340 178 60 48 91 63 63 31 -24 -28 -30 -43
-18 -43 10 0 55 67 55 82 0 3 4 10 9 15 5 5 6 -2 2 -17 -12 -39 -22 -225 -15
-261 10 -44 24 -54 76 -54 36 0 49 5 61 23 29 43 42 28 43 -50 1 -181 8 -419
14 -483 14 -143 71 -334 142 -480 24 -49 37 -82 29 -71 -26 32 -93 168 -116
236 -13 36 -29 74 -38 85 -9 13 -13 14 -9 4 3 -9 20 -63 37 -120 18 -57 36
-106 40 -109 4 -3 22 -33 39 -68 28 -56 30 -62 11 -52 -11 6 -20 19 -20 28 0
10 -7 27 -15 38 -13 17 -14 16 -8 -17 6 -41 -9 -58 -33 -38 -8 6 -16 10 -19 7
-9 -8 8 -48 20 -48 20 0 23 -32 6 -62 -18 -32 -24 -34 -41 -13 -7 8 -18 15
-24 15 -20 0 -76 58 -76 79 0 12 -7 21 -15 21 -8 0 -15 5 -15 10 0 6 -7 10
-15 10 -17 0 -9 -31 12 -43 11 -6 11 -12 3 -22 -8 -9 -8 -15 0 -20 5 -3 10
-15 10 -26 0 -11 4 -18 8 -15 8 5 44 -36 68 -77 14 -25 6 -70 -12 -63 -22 8
-45 -5 -55 -30 -6 -17 -16 -24 -34 -24 -14 0 -24 -3 -23 -7 5 -16 -36 -64 -51
-61 -17 4 -71 -49 -71 -69 0 -7 -3 -13 -8 -13 -7 0 -25 -30 -38 -62 -3 -10
-12 -18 -18 -18 -7 0 -13 -6 -13 -14 0 -8 8 -13 18 -11 10 2 21 0 24 -6 4 -5
1 -9 -4 -9 -6 0 -11 -4 -11 -10 0 -5 8 -10 18 -10 14 0 15 -2 2 -10 -10 -6
-17 -5 -23 5 -11 20 -27 19 -27 0 0 -12 -7 -14 -27 -9 -34 8 -53 25 -36 31 8
3 9 12 1 34 -14 41 -29 36 -23 -8 2 -21 2 -32 -1 -25 -3 6 -9 10 -14 7 -4 -3
-21 2 -36 10 -17 9 -30 11 -32 5 -2 -6 -10 -10 -18 -10 -8 0 -24 -11 -36 -25
-31 -36 -45 -31 -69 23 -30 66 -57 94 -80 82 -12 -7 -20 -7 -24 0 -3 5 1 10
10 10 9 0 14 4 11 9 -4 5 0 12 6 14 9 4 10 8 2 14 -5 4 -16 24 -24 43 -17 43
-45 82 -54 73 -12 -13 -6 -44 14 -65 25 -27 23 -29 -23 -21 -21 3 -34 10 -30
16 4 6 -2 8 -14 5 -16 -4 -26 3 -42 33 -23 41 -43 52 -34 20 2 -10 0 -36 -6
-59 -10 -37 -14 -40 -38 -36 -15 3 -33 9 -39 15 -15 12 -44 1 -44 -16 0 -8 -5
-17 -10 -20 -6 -4 -10 -3 -9 2 4 22 -3 31 -28 36 -31 7 -70 59 -80 107 -3 17
-10 30 -15 30 -5 0 -6 -5 -2 -12 4 -7 3 -8 -4 -4 -7 4 -13 22 -13 39 -2 57
-18 -73 -20 -157 -1 -116 -15 -137 -22 -35 -3 46 -10 95 -16 109 l-10 25 -2
-25 c-1 -14 -5 -74 -9 -135 -6 -85 -7 -65 -4 90 4 218 32 667 64 1060 29 349
30 356 41 349 6 -3 8 18 6 52 l-3 57 -42 13 c-70 20 -345 163 -388 201 l-39
35 50 -35 c69 -48 153 -88 265 -127 52 -19 106 -42 119 -52 18 -14 41 -18 100
-18 95 0 263 24 360 50 77 22 289 105 376 147 86 43 194 131 243 199 51 70 64
77 34 17z m-4535 0 c-3 -10 -5 -4 -5 12 0 17 2 24 5 18 2 -7 2 -21 0 -30z
m2450 5 c-3 -7 -5 -2 -5 12 0 14 2 19 5 13 2 -7 2 -19 0 -25z m-777 -21 c0 -1
-21 -20 -47 -41 l-48 -38 44 41 c40 38 51 46 51 38z m2517 -3 c-3 -3 -12 -4
-19 -1 -8 3 -5 6 6 6 11 1 17 -2 13 -5z m-4180 -41 c-3 -10 -5 -4 -5 12 0 17
2 24 5 18 2 -7 2 -21 0 -30z m3980 22 c8 -21 -25 -55 -54 -55 -12 0 -23 -4
-23 -10 0 -5 -5 -10 -10 -10 -7 0 -7 6 0 19 5 11 10 31 10 45 0 23 4 26 35 26
23 0 38 -6 42 -15z m216 -15 c-3 -11 -9 -17 -14 -15 -10 7 -1 35 11 35 5 0 6
-9 3 -20z m-1776 -32 c-3 -8 -6 -5 -6 6 -1 11 2 17 5 13 3 -3 4 -12 1 -19z
m-2410 -40 c-3 -8 -6 -5 -6 6 -1 11 2 17 5 13 3 -3 4 -12 1 -19z m-170 -80
c-3 -8 -6 -5 -6 6 -1 11 2 17 5 13 3 -3 4 -12 1 -19z m180 -10 c-3 -7 -5 -2
-5 12 0 14 2 19 5 13 2 -7 2 -19 0 -25z m2378 -10 c-11 -74 -37 -189 -41 -185
-6 5 37 227 43 227 3 0 2 -19 -2 -42z m3519 -25 c8 -20 3 -17 -35 23 l-34 37
32 -23 c18 -13 34 -29 37 -37z m-6067 -35 c1 -35 13 -132 27 -215 14 -84 26
-167 25 -185 -1 -37 -19 59 -49 266 -11 77 -23 151 -25 165 -5 22 -4 23 4 6 9
-19 10 -19 10 3 2 48 8 19 8 -40z m2260 42 c-3 -11 -1 -23 4 -26 12 -7 11 -71
-1 -79 -7 -4 -5 -14 5 -28 20 -28 19 -29 -11 -62 -15 -16 -27 -39 -28 -51 0
-12 -3 -21 -5 -18 -2 2 -10 -4 -18 -14 -13 -15 -14 -15 -9 10 9 42 -33 76 -52
42 -8 -14 -10 -14 -21 0 -11 13 -9 17 12 25 34 13 40 26 42 86 1 27 6 51 11
52 5 0 8 -3 7 -8 -4 -12 14 -11 22 1 3 6 0 10 -7 10 -8 0 -4 8 8 18 12 9 25
27 29 40 8 27 19 30 12 2z m-2080 -37 c-3 -10 -5 -4 -5 12 0 17 2 24 5 18 2
-7 2 -21 0 -30z m4209 -28 c-11 -8 -25 -15 -30 -15 -6 1 0 7 14 15 32 19 40
18 16 0z m-4199 -27 c-3 -8 -6 -5 -6 6 -1 11 2 17 5 13 3 -3 4 -12 1 -19z
m1928 -19 c-2 -26 -23 -39 -49 -30 -17 6 -15 10 15 29 19 12 34 22 35 22 0 0
0 -9 -1 -21z m1840 1 c-3 -5 -16 -10 -28 -9 -20 1 -20 2 3 9 14 4 26 8 28 9 2
1 0 -3 -3 -9z m-68 -16 c-3 -3 -12 -4 -19 -1 -8 3 -5 6 6 6 11 1 17 -2 13 -5z
m1181 -42 c6 -24 6 -39 1 -36 -5 3 -9 -2 -9 -10 0 -9 3 -16 8 -16 11 0 42 -59
42 -81 0 -11 5 -30 11 -41 6 -11 7 -18 1 -15 -5 4 -19 33 -31 66 -12 33 -26
63 -31 66 -6 4 -10 31 -10 62 0 64 5 66 18 5z m-202 -289 c-1 -264 2 -335 17
-417 33 -185 131 -398 243 -527 l47 -54 -56 57 c-30 31 -71 81 -91 112 -20 31
-40 56 -46 56 -16 0 -12 -12 21 -74 46 -85 29 -78 -28 11 -64 99 -68 108 -97
190 -74 203 -101 420 -93 737 l6 199 28 13 c15 7 33 13 39 13 8 1 11 -90 10
-316z m1389 247 c9 -16 13 -30 11 -30 -3 0 -12 14 -21 30 -9 17 -13 30 -11 30
3 0 12 -13 21 -30z m53 -47 c34 -89 96 -302 90 -308 -2 -3 -21 54 -41 126 -21
72 -51 159 -67 195 -16 35 -25 64 -20 64 5 0 22 -35 38 -77z m-3818 10 c-10
-16 -11 -15 -6 7 3 14 6 32 7 40 1 8 4 5 6 -7 2 -12 -1 -30 -7 -40z m-2283 15
c-3 -8 -6 -5 -6 6 -1 11 2 17 5 13 3 -3 4 -12 1 -19z m2163 2 c0 -13 -41 -102
-45 -98 -6 6 30 108 38 108 4 0 7 -5 7 -10z m-2153 -77 c-3 -10 -5 -4 -5 12 0
17 2 24 5 18 2 -7 2 -21 0 -30z m3143 -46 c0 -11 3 -18 6 -14 4 3 14 -2 23
-11 9 -10 12 -12 7 -5 -5 8 -6 16 -2 20 10 10 19 -4 19 -33 0 -15 7 -36 17
-46 20 -22 21 -118 2 -155 -10 -17 -8 -23 11 -38 19 -14 23 -26 24 -81 l1 -65
-22 24 c-17 18 -27 22 -39 15 -24 -13 -53 6 -61 39 -3 18 -25 43 -57 68 -61
47 -72 70 -53 108 l15 27 -44 0 c-29 0 -44 4 -44 13 0 7 -3 25 -7 40 -4 19 -3
27 7 27 17 0 49 -34 40 -43 -3 -4 -1 -7 6 -7 13 0 46 -29 46 -41 0 -19 15 -19
35 1 21 21 21 22 3 47 -10 14 -23 34 -29 45 -7 11 -17 25 -23 31 -6 6 -11 20
-10 32 0 12 3 15 6 6 4 -9 7 -10 12 -2 4 6 21 13 38 14 20 1 29 6 26 15 -4 10
0 10 21 1 15 -7 26 -20 26 -32z m-3133 -14 c-3 -10 -5 -4 -5 12 0 17 2 24 5
18 2 -7 2 -21 0 -30z m5943 -37 c0 -32 -19 -5 -25 34 l-6 35 15 -25 c8 -14 15
-34 16 -44z m-5933 -33 c-3 -10 -5 -2 -5 17 0 19 2 27 5 18 2 -10 2 -26 0 -35z
m10 -55 c-3 -7 -5 -2 -5 12 0 14 2 19 5 13 2 -7 2 -19 0 -25z m3290 -35 c-2
-16 -4 -5 -4 22 0 28 2 40 4 28 2 -13 2 -35 0 -50z m-3280 -55 c-3 -8 -6 -5
-6 6 -1 11 2 17 5 13 3 -3 4 -12 1 -19z m-190 -45 c-3 -10 -5 -2 -5 17 0 19 2
27 5 18 2 -10 2 -26 0 -35z m5084 30 c13 -16 12 -17 -3 -4 -10 7 -18 15 -18
17 0 8 8 3 21 -13z m159 -13 c12 -16 19 -30 16 -30 -2 0 -14 14 -26 30 -12 17
-19 30 -16 30 2 0 14 -13 26 -30z m-1783 -37 c-3 -10 -5 -2 -5 17 0 19 2 27 5
18 2 -10 2 -26 0 -35z m-324 6 c12 -6 32 -21 44 -32 13 -11 30 -17 41 -15 11
3 24 3 29 -1 12 -8 73 -133 73 -149 0 -7 7 -12 16 -12 9 0 12 -5 8 -12 -6 -10
-5 -10 8 0 13 10 18 9 29 -5 12 -15 12 -16 -5 -10 -16 6 -17 5 -6 -7 6 -9 10
-21 7 -28 -2 -7 0 -23 4 -35 5 -14 5 -23 -1 -23 -6 0 -10 4 -10 9 0 5 -12 11
-26 14 -26 5 -26 4 -22 -57 3 -56 1 -62 -17 -64 -16 -1 -17 1 -5 8 13 8 13 10
-2 10 -9 0 -20 9 -23 20 -4 11 -10 18 -14 15 -5 -2 -13 6 -18 18 -9 19 -17 23
-47 19 -34 -4 -36 -2 -37 24 -1 16 -1 33 0 38 1 5 -5 3 -14 -4 -14 -12 -16
-11 -10 11 3 14 7 32 8 40 2 8 6 20 11 27 14 22 -2 62 -25 62 -11 0 -17 5 -14
10 4 6 11 8 16 5 16 -11 10 8 -11 30 -26 28 -34 65 -14 65 12 0 12 4 4 20 -12
23 -8 25 23 9z m-53 -47 c0 -15 -5 -34 -10 -42 -8 -13 -10 -13 -10 1 0 9 -7
22 -15 29 -13 11 -13 15 -3 21 10 7 10 9 -2 10 -10 0 -8 3 5 8 27 11 35 5 35
-27z m-3073 -4 c-3 -7 -5 -2 -5 12 0 14 2 19 5 13 2 -7 2 -19 0 -25z m2183 2
c-12 -16 -24 -30 -26 -30 -3 0 4 14 16 30 12 17 24 30 26 30 3 0 -4 -13 -16
-30z m2961 13 c13 -16 12 -17 -3 -4 -17 13 -22 21 -14 21 2 0 10 -8 17 -17z
m294 -13 c-3 -5 -11 -10 -16 -10 -6 0 -7 5 -4 10 3 6 11 10 16 10 6 0 7 -4 4
-10z m-1999 -112 c-17 -272 -33 -489 -38 -494 -3 -2 -5 54 -4 126 0 71 4 130
7 130 3 0 9 51 13 113 9 151 18 237 24 237 3 0 2 -51 -2 -112z m-19 80 c-3 -8
-6 -5 -6 6 -1 11 2 17 5 13 3 -3 4 -12 1 -19z m-3410 -10 c-3 -8 -6 -5 -6 6
-1 11 2 17 5 13 3 -3 4 -12 1 -19z m2990 0 c-3 -8 -6 -5 -6 6 -1 11 2 17 5 13
3 -3 4 -12 1 -19z m2222 -30 c17 -27 8 -22 -30 19 -27 29 -28 32 -7 17 14 -10
31 -27 37 -36z m-3089 2 c-11 -16 -26 -33 -32 -36 -7 -4 1 9 16 29 34 44 46
50 16 7z m907 24 c-3 -3 -12 -4 -19 -1 -8 3 -5 6 6 6 11 1 17 -2 13 -5z m3056
-9 c-3 -9 -8 -14 -10 -11 -3 3 -2 9 2 15 9 16 15 13 8 -4z m92 -34 c-6 -5 -41
-20 -80 -34 -38 -14 -92 -35 -120 -45 -96 -37 -93 -37 -69 -19 12 9 41 23 65
32 24 8 80 28 124 44 91 34 92 34 80 22z m-157 -12 c-2 -6 -8 -10 -13 -10 -5
0 -11 4 -13 10 -2 6 4 11 13 11 9 0 15 -5 13 -11z m389 -11 c-3 -8 -6 -5 -6 6
-1 11 2 17 5 13 3 -3 4 -12 1 -19z m-1024 -27 c5 -23 31 -57 73 -98 70 -69 75
-81 12 -30 -41 32 -128 141 -128 159 0 25 35 -1 43 -31z m-3334 -30 c-13 -17
-27 -31 -31 -31 -5 0 4 16 19 35 33 42 44 39 12 -4z m3811 -41 c-14 -4 -56
-19 -94 -34 -38 -14 -71 -25 -73 -23 -6 6 150 65 172 65 16 0 15 -1 -5 -8z
m-3850 -4 c0 -2 -8 -10 -17 -17 -16 -13 -17 -12 -4 4 13 16 21 21 21 13z
m2839 -86 c0 -9 -4 -8 -9 5 -5 11 -9 27 -9 35 0 9 4 8 9 -5 5 -11 9 -27 9 -35z
m1311 -24 c0 -3 -4 -8 -10 -11 -5 -3 -10 -1 -10 4 0 6 5 11 10 11 6 0 10 -2
10 -4z m49 -126 c6 -20 11 -47 11 -59 0 -12 4 -19 10 -16 6 3 7 -1 4 -9 -3 -9
-10 -14 -14 -11 -4 3 -14 -2 -21 -11 -7 -8 -26 -22 -42 -31 -30 -15 -46 -8
-47 22 0 6 -6 1 -12 -10 -6 -11 -16 -24 -22 -28 -6 -5 0 -6 14 -3 24 5 24 4 6
-9 -26 -20 -36 -19 -37 3 0 10 -3 12 -6 4 -7 -17 -57 -42 -85 -42 -13 0 -33 7
-45 15 -22 15 -38 8 -25 -11 12 -18 52 -35 70 -30 9 3 32 8 51 11 19 3 39 9
44 12 5 3 28 7 51 9 l41 2 -55 -26 c-30 -14 -79 -28 -108 -30 -45 -4 -57 -1
-78 19 -14 13 -34 40 -44 59 -22 42 -36 110 -24 110 5 0 22 12 39 28 40 37
149 103 153 91 2 -5 11 -5 22 1 10 6 36 14 57 19 34 7 40 6 59 -16 12 -14 27
-42 33 -63z m-234 70 c-27 -12 -43 -12 -25 0 8 5 22 9 30 9 10 0 8 -3 -5 -9z
m453 -68 c17 -34 27 -60 22 -57 -8 5 -60 111 -60 123 0 11 8 -4 38 -66z m-536
-14 c-7 -7 -12 -8 -12 -2 0 14 12 26 19 19 2 -3 -1 -11 -7 -17z m-54 -138 c42
-90 78 -123 137 -122 64 0 295 98 278 117 -5 4 -3 5 4 2 14 -9 45 2 38 13 -6
10 33 25 57 21 9 -1 33 5 54 14 20 8 39 13 41 11 9 -8 -407 -206 -433 -206
-14 0 -23 -4 -20 -9 3 -5 -26 -8 -64 -7 -60 1 -73 4 -92 26 -21 22 -21 23 -1
6 14 -11 34 -16 59 -14 l38 3 -46 29 c-55 34 -72 62 -92 149 -19 82 -19 102
-1 62 8 -16 27 -59 43 -95z m629 58 c-3 -8 -6 -5 -6 6 -1 11 2 17 5 13 3 -3 4
-12 1 -19z m-217 -33 c0 -5 -89 -45 -99 -45 -8 1 81 49 92 50 4 0 7 -2 7 -5z
m-593 -51 c-3 -3 -12 -4 -19 -1 -8 3 -5 6 6 6 11 1 17 -2 13 -5z m602 -48 c-2
-2 -15 -7 -29 -10 l-25 -7 25 15 c21 12 42 14 29 2z m14 -143 c-7 -2 -19 -2
-25 0 -7 3 -2 5 12 5 14 0 19 -2 13 -5z m805 -29 c223 -46 483 -182 648 -339
l69 -66 -75 61 c-144 118 -332 231 -445 266 -142 44 -345 63 -490 44 -54 -6
-108 -16 -119 -21 -16 -7 -13 -8 14 -4 136 19 223 24 290 16 l75 -8 -97 -2
c-325 -4 -688 -121 -953 -306 -148 -103 -309 -225 -318 -241 -4 -7 -34 -31
-65 -53 -93 -63 -92 -60 -98 -212 -11 -261 -6 -969 10 -1399 5 -111 5 -112 -4
-30 -13 130 -31 560 -41 1020 -5 228 -12 433 -14 455 -2 22 -4 45 -4 52 -1 10
-56 49 -89 63 -9 4 12 23 55 52 38 25 95 69 128 97 66 58 249 189 340 243 185
111 653 292 820 318 91 14 282 11 363 -6z m-1033 -43 c-15 -13 -93 -22 -100
-12 -6 10 21 18 75 20 20 0 30 -3 25 -8z m80 -11 c10 -16 -75 -50 -125 -50
l-45 0 38 20 c21 12 46 19 55 16 9 -3 28 1 42 9 31 17 28 17 35 5z m962 -6
c-3 -3 -12 -4 -19 -1 -8 3 -5 6 6 6 11 1 17 -2 13 -5z m-1222 -14 c-11 -5 -29
-9 -40 -9 -17 -1 -17 1 -5 9 8 5 26 9 40 9 23 0 23 -1 5 -9z m1425 -32 c10 -6
7 -7 -10 -2 -14 3 -32 11 -40 16 -10 6 -7 7 10 2 14 -3 32 -11 40 -16z m-2692
-15 c-2 -9 -10 -18 -18 -20 -12 -4 -13 -3 -1 5 7 5 10 15 7 21 -4 6 -2 11 4
11 6 0 10 -8 8 -17z m2039 -6 c-26 -13 -63 -22 -82 -21 -26 2 -38 -4 -50 -23
-9 -14 -19 -22 -22 -19 -3 3 -15 -4 -25 -16 l-19 -22 5 28 c5 27 4 28 -27 22
l-32 -5 26 14 c24 13 151 49 209 58 57 10 62 4 17 -16z m-471 -12 c-11 -8 -25
-15 -30 -15 -6 1 0 7 14 15 32 19 40 18 16 0z m929 -5 c3 -5 -1 -10 -9 -10 -9
0 -16 5 -16 10 0 6 4 10 9 10 6 0 13 -4 16 -10z m-70 -20 c-3 -5 -11 -10 -16
-10 -6 0 -7 5 -4 10 3 6 11 10 16 10 6 0 7 -4 4 -10z m55 -20 c0 -5 -4 -10
-10 -10 -5 0 -10 5 -10 10 0 6 5 10 10 10 6 0 10 -4 10 -10z m-3226 -61 c-2
-4 10 -5 28 -2 31 4 35 2 53 -34 10 -21 18 -41 17 -45 -1 -5 3 -8 9 -8 5 0 8
-4 5 -9 -3 -5 1 -14 9 -21 25 -21 18 -40 -16 -40 -24 0 -30 4 -25 15 5 13 -2
16 -29 15 -9 -1 -31 23 -42 45 -14 27 -27 125 -14 105 5 -8 8 -17 5 -21z
m-198 -28 c-11 -17 -25 -13 -21 7 2 9 4 19 4 22 1 2 6 -1 12 -7 6 -6 8 -16 5
-22z m2564 24 c0 -2 -10 -9 -22 -15 -22 -11 -22 -10 -4 4 21 17 26 19 26 11z
m-1663 -39 c0 -8 -6 -12 -15 -9 -11 5 -11 7 0 14 7 5 13 9 14 9 0 0 1 -6 1
-14z m2442 -2 c2 -2 -27 -3 -65 -3 -53 1 -62 3 -39 9 27 7 94 3 104 -6z m-729
-20 c0 -8 -5 -12 -10 -9 -6 4 -8 11 -5 16 9 14 15 11 15 -7z m540 9 c-79 -14
-207 -49 -289 -79 -52 -19 -96 -32 -98 -30 -4 3 10 9 117 49 110 41 203 65
250 64 25 0 34 -2 20 -4z m-2369 -55 c-13 -10 -28 -18 -35 -18 -6 0 -6 4 3 9
11 7 11 9 0 14 -10 4 -8 6 4 6 10 1 16 5 13 10 -4 5 4 7 16 3 l21 -5 -22 -19z
m1532 -58 c-14 -17 -29 -28 -31 -25 -6 6 38 55 50 55 4 0 -4 -14 -19 -30z
m-1586 -20 c-1 -21 -10 -18 -13 5 -1 8 2 15 6 15 5 0 8 -9 7 -20z m30 -5 c0
-8 -4 -12 -9 -9 -5 3 -6 10 -3 15 9 13 12 11 12 -6z m977 -97 c14 -36 26 -71
26 -76 0 -6 -22 -27 -49 -47 -28 -20 -54 -46 -58 -58 -4 -12 -6 -234 -4 -493
2 -330 0 -473 -7 -478 -6 -4 -27 4 -47 16 l-35 23 2 85 c3 101 -8 239 -23 277
-8 20 -7 38 2 65 10 32 9 39 -10 67 -12 17 -29 31 -37 31 -19 0 -18 13 5 42
24 30 131 310 131 342 0 13 11 52 24 87 25 67 42 150 37 184 -5 35 15 4 43
-67z m881 52 c-4 -6 -30 -22 -58 -36 -62 -31 -55 -21 11 17 56 32 55 32 47 19z
m1648 -82 c4 -10 5 -18 3 -18 -5 0 -66 97 -66 106 0 11 55 -67 63 -88z m-3568
63 c-27 -12 -35 -20 -25 -24 12 -4 11 -6 -2 -6 -10 -1 -18 6 -18 15 0 8 -4 12
-10 9 -5 -3 -10 -1 -10 6 0 6 8 9 20 6 11 -3 22 -2 24 2 3 3 17 7 33 8 25 1
24 0 -12 -16z m1585 15 c0 -3 -4 -8 -10 -11 -5 -3 -10 -1 -10 4 0 6 5 11 10
11 6 0 10 -2 10 -4z m219 -61 c-3 -2 -72 -49 -154 -103 -83 -54 -177 -122
-210 -150 -33 -28 -61 -49 -64 -46 -2 2 2 10 11 17 54 43 288 217 292 217 3 0
31 16 63 35 54 32 73 42 62 30z m-399 -29 c0 -3 -15 -15 -32 -27 l-33 -23 24
27 c22 24 41 35 41 23z m-82 -117 c-10 -6 -10 -11 -1 -20 7 -7 8 -21 2 -41
-11 -41 -23 -51 -17 -15 3 16 1 44 -5 62 -8 28 -7 39 9 62 l19 28 3 -34 c2
-20 -2 -37 -10 -42z m-43 -49 c0 -35 -4 -45 -18 -48 -12 -3 -20 4 -24 17 -8
33 -23 14 -16 -21 4 -22 3 -29 -5 -24 -17 11 -15 78 4 104 10 15 24 22 37 20
19 -3 22 -10 22 -48z m2182 -32 c-3 -8 -6 -5 -6 6 -1 11 2 17 5 13 3 -3 4 -12
1 -19z m-2100 -170 c-2 -13 -4 -5 -4 17 -1 22 1 32 4 23 2 -10 2 -28 0 -40z
m0 -325 c-1 -54 -3 -12 -3 92 0 105 2 149 3 98 2 -51 2 -136 0 -190z m-5210
205 c-2 -13 -4 -5 -4 17 -1 22 1 32 4 23 2 -10 2 -28 0 -40z m724 -67 c-23
-18 -296 -84 -641 -156 -142 -29 -246 -57 -451 -120 -41 -13 -95 -26 -120 -30
-24 -3 -73 -14 -109 -25 -36 -10 -83 -22 -105 -27 l-40 -9 1 -80 c1 -89 -13
-62 -18 35 l-3 55 65 18 c204 57 636 166 840 213 129 29 282 64 340 78 58 14
125 28 149 32 24 4 58 13 75 21 42 18 45 17 17 -5z m126 -8 c10 -10 14 -15 8
-11 -6 4 -22 12 -36 17 -15 6 -18 10 -8 10 9 1 25 -7 36 -16z m-48 -22 c-14
-5 -36 -14 -50 -21 -24 -13 -24 -13 -5 9 12 13 30 21 50 20 30 -1 30 -1 5 -8z
m62 -84 c-13 -13 -15 1 -4 30 7 17 8 17 11 -1 2 -10 -1 -23 -7 -29z m6456
-159 c-3 -8 -6 -5 -6 6 -1 11 2 17 5 13 3 -3 4 -12 1 -19z m-7420 -24 c-3 -3
-12 -4 -19 -1 -8 3 -5 6 6 6 11 1 17 -2 13 -5z m5337 -504 c4 -80 11 -203 16
-275 6 -71 12 -175 15 -230 l4 -100 -9 80 c-24 213 -48 636 -50 895 -2 172 2
156 11 -45 4 -99 10 -245 13 -325z m-6019 460 c-3 -5 -10 -10 -16 -10 -5 0 -9
5 -9 10 0 6 7 10 16 10 8 0 12 -4 9 -10z m3945 -26 c25 -4 53 -11 62 -16 24
-12 60 -97 56 -133 -4 -43 -22 -33 -30 17 -15 83 -24 96 -87 110 -31 7 -99 11
-151 10 -134 -4 -321 8 -314 20 6 10 387 4 464 -8z m-433 -166 c-2 -13 -4 -3
-4 22 0 25 2 35 4 23 2 -13 2 -33 0 -45z m2360 40 c-3 -8 -6 -5 -6 6 -1 11 2
17 5 13 3 -3 4 -12 1 -19z m2220 -70 c-2 -18 -4 -4 -4 32 0 36 2 50 4 33 2
-18 2 -48 0 -65z m-2180 30 c-2 -13 -4 -5 -4 17 -1 22 1 32 4 23 2 -10 2 -28
0 -40z m-2371 -109 c71 -13 84 -20 58 -30 -38 -15 -89 -10 -107 11 -16 19 -21
30 -14 30 2 0 30 -5 63 -11z m3838 -18 c39 -16 28 -24 -13 -10 -19 7 -62 9
-101 7 -200 -15 -330 -173 -404 -491 -6 -26 -5 -27 14 -15 21 14 27 34 10 40
-11 3 34 155 51 172 19 21 -11 -158 -36 -207 -8 -17 -15 -47 -15 -69 0 -21 -5
-38 -11 -38 -6 0 -9 -9 -6 -20 3 -11 1 -20 -4 -20 -5 0 -9 10 -9 22 0 12 -3
18 -7 15 -3 -4 -6 -40 -5 -81 1 -40 -2 -84 -6 -97 -16 -42 -14 190 3 283 41
239 161 450 283 501 83 34 181 37 256 8z m-3937 -33 c-3 -8 -6 -5 -6 6 -1 11
2 17 5 13 3 -3 4 -12 1 -19z m3953 1 c11 -7 4 -8 -25 -3 -50 8 -58 14 -19 14
16 0 36 -5 44 -11z m141 -109 l20 -35 -23 27 c-13 14 -38 46 -57 70 l-34 43
37 -35 c20 -19 46 -51 57 -70z m-90 73 c13 -15 12 -15 -8 -4 -24 12 -29 21
-14 21 5 0 15 -7 22 -17z m636 -195 c-1 -40 -3 -8 -3 72 0 80 2 112 3 73 2
-40 2 -106 0 -145z m-968 185 c-13 -15 -11 -16 16 -9 30 7 30 7 -15 -41 -51
-54 -61 -63 -74 -63 -5 0 -1 9 9 20 20 22 5 28 -17 8 -7 -7 -22 -20 -33 -28
-35 -27 18 41 69 88 46 42 70 56 45 25z m-3606 -125 c7 -4 59 -8 117 -8 152 0
308 -12 285 -21 -27 -10 -352 0 -392 12 -31 10 -33 13 -31 52 1 41 1 41 5 7 3
-19 10 -38 16 -42z m3890 38 c31 -16 67 -41 79 -55 l23 -26 -25 21 c-14 12
-50 33 -79 47 -67 33 -155 36 -216 8 -46 -20 -127 -106 -124 -130 3 -21 -11
-71 -20 -71 -16 0 -3 70 20 106 78 127 211 166 342 100z m-206 -36 c-6 -23 8
-27 17 -5 4 11 20 14 73 10 37 -2 75 -4 83 -4 12 -1 12 -3 2 -10 -10 -6 -10
-11 3 -21 13 -11 18 -11 24 -1 9 14 104 -71 115 -104 4 -11 -15 4 -42 33 -52
56 -67 63 -74 34 -6 -23 17 -56 34 -50 7 3 21 -5 30 -17 15 -20 16 -24 2 -29
-8 -3 -12 -2 -9 4 3 5 0 7 -8 4 -9 -3 -12 -14 -9 -32 3 -15 7 -21 9 -14 7 19
20 14 26 -10 4 -13 0 -26 -9 -33 -14 -10 -14 -15 4 -46 14 -26 17 -40 10 -53
-13 -23 -3 -32 17 -16 23 19 36 -25 23 -83 -10 -49 -28 -66 -23 -22 1 16 -3
25 -12 25 -8 0 -11 5 -8 10 3 6 2 10 -3 10 -14 0 -23 72 -10 87 12 15 -6 43
-28 43 -18 0 -17 10 1 34 19 25 19 42 1 27 -8 -6 -20 -10 -27 -9 -10 2 -14
-19 -14 -90 -1 -56 -6 -96 -12 -100 -6 -4 -23 -31 -38 -60 -23 -46 -28 -51
-41 -37 -11 11 -12 20 -5 33 8 15 6 19 -7 19 -9 0 -20 -5 -24 -11 -4 -6 -8 1
-8 17 0 15 -2 27 -5 27 -14 0 -44 -39 -56 -72 -7 -21 -15 -38 -19 -38 -20 1
-34 24 -34 59 -1 23 -2 41 -3 41 -2 0 -15 -18 -29 -40 -15 -22 -31 -40 -35
-40 -5 0 -9 21 -9 46 0 59 -16 48 -25 -16 -4 -28 -11 -50 -16 -50 -11 0 -11 5
2 109 8 58 8 98 2 121 l-10 35 -15 -50 c-14 -46 -15 -47 -22 -22 -8 32 21 152
40 168 21 17 28 5 13 -23 -11 -20 -10 -21 3 -11 14 12 21 28 66 135 8 21 25
45 38 53 13 9 24 22 24 29 0 12 11 21 29 25 2 1 1 -8 -2 -19z m398 -30 c14
-27 23 -50 20 -50 -2 0 -16 23 -30 50 -14 28 -23 50 -20 50 2 0 16 -22 30 -50z
m-180 22 c-3 -3 -11 0 -18 7 -9 10 -8 11 6 5 10 -3 15 -9 12 -12z m-361 -17
c-4 -8 -11 -15 -16 -15 -6 0 -5 6 2 15 7 8 14 15 16 15 2 0 1 -7 -2 -15z m-54
-86 c-33 -63 -50 -116 -65 -194 -9 -47 -13 -59 -14 -36 -1 46 25 145 55 202
27 54 29 63 13 53 -6 -3 -3 9 7 27 17 30 19 32 22 12 2 -12 -7 -40 -18 -64z
m1071 -264 l-10 -70 4 70 c3 39 6 104 7 145 l2 75 3 -75 c2 -41 -1 -106 -6
-145z m-1089 115 c-9 -25 -19 -90 -23 -145 l-6 -100 2 110 c1 79 7 121 19 149
23 52 29 41 8 -14z m-2772 14 c0 -2 -9 -4 -20 -4 -11 0 -20 4 -20 9 0 5 9 7
20 4 11 -3 20 -7 20 -9z m32 -38 c21 -4 39 -2 43 4 7 12 51 -13 77 -44 15 -18
18 -18 18 -4 0 20 39 13 47 -8 8 -20 46 -17 76 6 28 22 47 26 47 8 0 -6 -3 -8
-6 -5 -4 4 -19 -2 -34 -13 -16 -11 -35 -20 -43 -20 -9 0 -18 -4 -21 -9 -11
-17 -56 -22 -71 -7 -8 8 -23 12 -33 9 -25 -6 -23 -46 3 -56 16 -7 17 -10 5
-17 -43 -28 -112 1 -197 83 -48 46 -48 73 -1 63 25 -5 29 -3 24 10 -4 11 -1
14 12 11 9 -3 34 -8 54 -11z m-87 -102 c36 -33 41 -39 16 -23 -18 12 -59 47
-90 77 -41 40 -46 46 -16 23 22 -17 63 -51 90 -77z m-130 38 c-3 -3 -20 9 -38
27 l-32 34 38 -28 c21 -15 35 -30 32 -33z m625 4 c0 -2 -7 -7 -16 -10 -8 -3
-12 -2 -9 4 6 10 25 14 25 6z m129 -14 c-13 -10 -55 -34 -94 -54 -38 -20 -83
-43 -100 -52 -78 -42 -219 -98 -250 -99 -19 -1 -35 -5 -35 -9 0 -17 -41 -7
-60 15 -12 12 -31 33 -43 45 l-22 24 25 -7 c21 -6 18 -1 -17 30 -24 20 -43 42
-43 48 0 6 15 -3 33 -20 38 -37 104 -73 132 -73 12 0 63 21 115 46 115 57 219
91 198 67 -12 -15 -11 -15 12 -3 26 14 148 58 164 59 5 1 -2 -7 -15 -17z
m-299 -51 c-19 -10 -46 -21 -60 -25 -14 -3 -2 5 25 19 57 28 88 34 35 6z
m1337 -73 c-2 -18 -4 -6 -4 27 0 33 2 48 4 33 2 -15 2 -42 0 -60z m1112 25
c-1 -80 -17 -98 -18 -20 -1 38 3 67 9 67 6 0 10 -21 9 -47z m-2067 25 c8 -23
-4 -58 -21 -59 -10 0 -11 -2 -3 -6 6 -2 9 -9 6 -15 -8 -12 -38 30 -40 57 -2
31 49 52 58 23z m2128 -48 c0 -5 -5 -10 -11 -10 -5 0 -7 5 -4 10 3 6 8 10 11
10 2 0 4 -4 4 -10z m-2248 -29 c10 -12 24 -17 35 -15 25 7 53 -24 34 -36 -18
-10 21 -50 48 -50 11 0 23 -5 26 -10 4 -6 11 -7 17 -4 11 7 88 -25 88 -38 0
-17 -5 -23 -17 -20 -17 4 -17 -13 0 -30 7 -7 16 -21 20 -30 3 -10 13 -18 21
-18 8 0 23 -11 34 -25 11 -13 23 -21 28 -17 4 4 0 -5 -9 -20 -16 -26 -16 -28
5 -48 21 -19 21 -20 2 -20 -15 0 -11 -7 21 -36 22 -21 41 -32 43 -25 5 16 19
14 26 -5 9 -23 -15 -73 -38 -80 -13 -4 -15 -8 -7 -14 8 -5 10 -19 6 -44 -5
-24 -4 -36 4 -36 13 0 3 -51 -12 -61 -5 -4 -6 -20 -2 -37 5 -24 12 -32 33 -34
15 -2 25 -7 24 -12 -2 -5 4 -13 13 -19 15 -8 13 -11 -12 -26 -51 -32 -76 -33
-106 -6 -26 25 -52 36 -29 13 7 -7 12 -22 12 -35 0 -18 6 -23 24 -23 27 0 37
-18 29 -50 -5 -19 -3 -21 13 -13 10 6 37 8 59 5 35 -4 17 -11 -135 -48 -182
-45 -217 -52 -190 -34 10 6 11 10 3 10 -7 0 -22 -9 -33 -20 -27 -27 -44 -26
-36 4 5 20 1 25 -19 28 -20 4 -23 3 -14 -8 14 -17 5 -18 -22 -4 -10 6 -19 7
-19 2 0 -5 12 -14 26 -21 15 -6 24 -14 21 -18 -13 -12 -235 126 -256 160 -8
11 -17 46 -21 76 -4 31 -26 121 -49 201 -45 158 -84 326 -78 343 2 6 9 -16 16
-49 6 -32 25 -102 41 -154 16 -52 41 -137 56 -189 16 -52 30 -89 32 -83 1 5
-15 73 -37 150 -23 77 -41 149 -41 159 0 10 -7 46 -15 78 -11 40 -12 61 -5 63
5 2 10 8 10 13 0 6 -4 7 -10 4 -5 -3 -10 -2 -10 4 0 5 3 11 8 13 4 2 14 16 22
32 8 16 22 32 30 36 8 4 27 13 43 21 15 7 27 17 27 23 0 7 9 18 21 26 11 8 27
27 35 43 10 18 22 27 39 27 13 0 28 7 33 15 7 13 42 29 72 34 3 1 13 -8 22
-18z m298 -2 c0 -6 -4 -7 -10 -4 -5 3 -10 11 -10 16 0 6 5 7 10 4 6 -3 10 -11
10 -16z m2370 1 c-6 -11 -12 -20 -14 -20 -2 0 -2 9 1 20 3 11 9 20 15 20 5 0
4 -9 -2 -20z m647 -52 c-2 -13 -4 -5 -4 17 -1 22 1 32 4 23 2 -10 2 -28 0 -40z
m-3440 36 c-3 -3 -12 -4 -19 -1 -8 3 -5 6 6 6 11 1 17 -2 13 -5z m3060 -26
c-3 -8 -6 -5 -6 6 -1 11 2 17 5 13 3 -3 4 -12 1 -19z m-750 -45 c-3 -10 -5 -4
-5 12 0 17 2 24 5 18 2 -7 2 -21 0 -30z m-860 -10 c-3 -10 -5 -4 -5 12 0 17 2
24 5 18 2 -7 2 -21 0 -30z m-139 -5 c-6 -18 -28 -21 -28 -4 0 9 7 16 16 16 9
0 14 -5 12 -12z m1067 -194 c14 -31 24 -59 22 -61 -6 -6 -59 117 -73 171 -21
78 -15 90 6 14 11 -36 31 -92 45 -124z m-130 122 c8 -25 12 -46 9 -46 -8 0
-34 67 -34 86 0 27 10 11 25 -40z m1182 -13 c-2 -16 -4 -5 -4 22 0 28 2 40 4
28 2 -13 2 -35 0 -50z m-3673 -256 c43 -171 82 -336 85 -366 6 -47 13 -60 48
-90 22 -20 88 -65 147 -100 96 -57 109 -62 134 -53 48 19 363 94 369 88 4 -3
-1 -6 -10 -6 -20 0 -71 -19 -66 -25 3 -2 34 2 69 10 73 15 106 3 39 -15 -24
-6 -66 -19 -94 -30 -27 -10 -72 -23 -100 -28 -27 -6 -79 -17 -115 -25 -36 -8
-71 -12 -78 -9 -8 3 -18 -1 -24 -9 -7 -11 -11 -11 -15 -1 -2 6 -11 12 -19 12
-9 0 -12 -4 -9 -10 3 -5 4 -10 2 -10 -14 0 -196 105 -212 123 -14 15 -15 17
-2 7 9 -7 19 -11 22 -9 2 3 -23 24 -55 48 -51 37 -62 50 -75 94 -22 76 -54
207 -60 247 -3 19 -10 46 -15 60 -5 14 -19 81 -30 150 -12 69 -28 153 -36 188
-17 78 -18 72 4 72 14 0 30 -52 96 -313z m1703 276 c-3 -10 -5 -4 -5 12 0 17
2 24 5 18 2 -7 2 -21 0 -30z m-240 -45 c-2 -13 -4 -3 -4 22 0 25 2 35 4 23 2
-13 2 -33 0 -45z m1041 -49 c-3 -8 -7 -3 -11 10 -4 17 -3 21 5 13 5 -5 8 -16
6 -23z m1159 -1 c-3 -8 -6 -5 -6 6 -1 11 2 17 5 13 3 -3 4 -12 1 -19z m-1950
-25 c-3 -10 -5 -4 -5 12 0 17 2 24 5 18 2 -7 2 -21 0 -30z m-240 -45 c-3 -7
-5 -2 -5 12 0 14 2 19 5 13 2 -7 2 -19 0 -25z m1636 -69 c-34 -57 -71 -95
-119 -121 -48 -25 -145 -50 -114 -29 8 6 24 11 35 11 38 0 125 60 168 115 47
62 56 69 30 24z m-1376 -36 c-3 -10 -5 -4 -5 12 0 17 2 24 5 18 2 -7 2 -21 0
-30z m1063 -83 c59 -38 65 -48 12 -21 -36 18 -142 121 -142 138 0 4 18 -13 40
-38 22 -26 62 -61 90 -79z m-1053 -2 c-3 -7 -5 -2 -5 12 0 14 2 19 5 13 2 -7
2 -19 0 -25z m-4886 -161 c11 -19 10 -19 -12 -3 -13 9 -39 17 -59 17 l-35 1
30 7 c40 9 63 3 76 -22z m4906 -9 c-3 -7 -5 -2 -5 12 0 14 2 19 5 13 2 -7 2
-19 0 -25z m-4926 -67 c28 -29 41 -70 17 -55 -7 4 -30 7 -51 5 -25 -1 -36 2
-32 9 8 13 3 13 -30 0 -15 -6 -24 -6 -20 -1 3 5 1 12 -5 16 -5 3 -15 -5 -22
-19 -6 -14 -15 -26 -20 -26 -4 0 -8 -5 -8 -11 0 -5 4 -8 9 -5 4 3 13 -6 19
-19 6 -13 7 -27 3 -30 -5 -3 -11 2 -15 10 -7 20 -24 19 -29 -2 -3 -11 -5 -6
-6 10 0 16 8 40 19 54 24 31 26 51 3 32 -15 -13 -15 -12 -3 8 18 28 67 52 108
52 24 1 42 -7 63 -28z m-94 -77 c-3 -3 -12 -4 -19 -1 -8 3 -5 6 6 6 11 1 17
-2 13 -5z m1800 -16 c-3 -8 -6 -5 -6 6 -1 11 2 17 5 13 3 -3 4 -12 1 -19z
m917 -41 c5 -31 -10 -37 -19 -7 -4 11 -12 18 -18 14 -7 -3 -3 2 7 10 23 19 23
18 30 -17z m342 -7 c14 0 40 -41 61 -100 7 -19 17 -81 22 -137 6 -71 14 -108
25 -119 18 -17 21 -40 7 -48 -4 -3 -6 -16 -4 -30 3 -13 0 -27 -6 -30 -14 -9
-15 -56 -1 -56 6 0 10 -7 10 -16 0 -8 4 -13 9 -10 5 3 9 -17 9 -44 1 -28 -3
-50 -7 -50 -4 0 -14 -11 -21 -25 -7 -14 -20 -25 -27 -25 -8 0 -11 -5 -8 -10 4
-6 11 -7 17 -4 7 4 8 2 4 -4 -4 -7 -19 -12 -33 -12 -22 0 -25 4 -21 25 3 14 1
25 -3 25 -5 0 -9 6 -9 14 0 8 -6 16 -12 19 -10 3 -10 7 -1 17 13 14 2 47 -21
63 -7 5 -3 7 9 5 18 -3 20 3 22 57 1 33 -5 98 -12 144 -11 72 -11 87 1 99 19
18 18 35 -6 64 l-19 25 25 20 c22 18 24 24 15 42 -7 12 -18 21 -26 21 -7 0
-16 12 -18 28 -6 35 -6 81 0 65 3 -7 11 -13 19 -13z m-373 -73 c-5 -22 -5 -22
12 -2 13 16 16 17 11 3 -3 -10 -1 -20 4 -23 9 -5 6 -93 -3 -102 -2 -2 -12 13
-23 33 -14 28 -16 38 -6 41 16 6 15 23 -2 23 -17 0 -28 48 -12 53 18 7 24 -2
19 -26z m1534 27 c-3 -3 -12 -4 -19 -1 -8 3 -5 6 6 6 11 1 17 -2 13 -5z m850
-16 c-3 -8 -6 -5 -6 6 -1 11 2 17 5 13 3 -3 4 -12 1 -19z m-2162 -44 c3 -27 7
-84 9 -126 3 -43 8 -82 11 -88 3 -5 3 -15 0 -20 -4 -6 -7 -31 -7 -55 0 -25 -4
-45 -8 -45 -15 0 -15 64 0 89 14 23 14 24 -8 19 -18 -5 -20 -3 -13 11 6 10 5
23 -4 34 -15 21 -19 117 -4 117 5 0 9 28 9 62 0 71 8 73 15 2z m2172 -6 c-3
-8 -6 -5 -6 6 -1 11 2 17 5 13 3 -3 4 -12 1 -19z m-2007 2 c0 -5 -4 -10 -10
-10 -5 0 -10 5 -10 10 0 6 5 10 10 10 6 0 10 -4 10 -10z m2017 -42 c-3 -8 -6
-5 -6 6 -1 11 2 17 5 13 3 -3 4 -12 1 -19z m-1108 -12 c-2 -2 -22 -7 -44 -10
l-40 -5 40 13 c36 12 55 13 44 2z m-136 -33 c-7 -2 -19 -2 -25 0 -7 3 -2 5 12
5 14 0 19 -2 13 -5z m-46 -9 c-3 -3 -12 -4 -19 -1 -8 3 -5 6 6 6 11 1 17 -2
13 -5z m-1067 -68 c0 -2 -7 -7 -16 -10 -8 -3 -12 -2 -9 4 6 10 25 14 25 6z
m48 -21 c-3 -13 -2 -22 2 -20 7 5 20 -17 20 -34 0 -9 -28 -11 -49 -5 -9 3 -10
8 -3 17 7 8 7 18 2 27 -14 21 -12 28 8 33 9 3 19 5 21 6 2 0 1 -10 -1 -24z
m21 -113 c-2 -21 0 -42 3 -47 3 -6 9 -30 14 -55 4 -25 8 -47 9 -50 1 -3 5 -38
9 -78 4 -39 12 -75 17 -78 5 -3 9 -22 9 -43 0 -31 -5 -40 -27 -50 -22 -10 -29
-9 -42 3 -12 12 -12 16 -2 16 10 0 11 3 3 13 -6 7 -12 28 -14 45 -1 18 -5 32
-8 32 -3 0 -5 17 -5 38 0 34 2 38 20 34 17 -5 18 -3 8 10 -9 10 -9 18 -2 25 8
8 5 15 -11 23 -18 9 -21 9 -15 0 5 -8 3 -11 -6 -8 -8 3 -16 13 -17 23 -3 10 0
15 7 11 10 -7 15 22 14 87 0 9 4 17 9 17 4 0 8 13 8 28 0 26 7 42 17 42 3 0 3
-17 2 -38z m1041 18 c0 -5 -9 -10 -21 -10 -11 0 -17 5 -14 10 3 6 13 10 21 10
8 0 14 -4 14 -10z m-64 -33 c36 6 47 -10 22 -35 -9 -9 -8 -12 8 -14 10 0 26 0
34 0 32 3 58 -8 56 -25 -1 -14 8 -19 36 -21 32 -3 37 -6 34 -25 -2 -18 -9 -21
-35 -19 -18 2 -31 -1 -31 -8 0 -7 -6 -5 -16 4 -21 22 -55 20 -61 -3 -3 -12
-11 -17 -23 -14 -13 3 -29 -7 -51 -32 -22 -24 -34 -32 -39 -24 -5 6 -13 8 -20
4 -8 -5 -11 -4 -6 3 3 6 2 13 -4 17 -6 4 -10 -5 -10 -19 0 -17 -6 -26 -15 -26
-9 0 -18 -7 -21 -15 -4 -8 -11 -15 -17 -15 -5 0 -3 8 6 18 25 28 22 70 -5 74
-13 2 -24 11 -26 21 -2 11 -13 28 -24 39 l-21 21 33 14 c25 10 35 10 41 2 4
-7 18 -9 36 -5 22 5 33 2 44 -11 7 -10 9 -15 5 -11 -10 9 -39 -28 -43 -53 -1
-10 6 -19 17 -22 16 -4 22 2 28 26 7 27 13 32 38 32 16 0 29 5 28 10 -3 28
-18 55 -31 55 -8 0 -11 5 -8 10 9 14 -28 12 -44 -2 -11 -11 -13 -10 -7 5 3 10
6 25 6 33 0 20 44 36 48 18 2 -9 14 -11 38 -7z m-136 -7 c-19 -13 -30 -13 -30
0 0 6 10 10 23 10 18 0 19 -2 7 -10z m-600 -63 c0 -42 -17 -52 -22 -13 -2 20
-2 39 0 41 10 9 22 -7 22 -28z m-103 1 c-3 -8 -6 -5 -6 6 -1 11 2 17 5 13 3
-3 4 -12 1 -19z m1067 -34 c4 -10 1 -14 -6 -12 -15 5 -23 28 -10 28 5 0 13 -7
16 -16z m-157 -66 c-2 -7 2 -32 8 -55 7 -24 9 -43 4 -43 -5 0 -9 5 -9 11 0 5
-4 7 -10 4 -6 -4 -7 1 -3 12 6 16 5 16 -10 4 -20 -16 -19 -17 -34 27 -11 31
-11 32 18 32 16 0 29 5 29 10 0 6 3 10 6 10 3 0 4 -6 1 -12z m83 -18 c0 -5 -7
-7 -15 -4 -8 4 -15 8 -15 10 0 2 7 4 15 4 8 0 15 -4 15 -10z m87 -2 c7 -13 5
-56 -4 -71 -9 -15 -21 6 -27 46 -5 28 -2 37 8 37 8 0 18 -6 23 -12z m1217 -58
c5 -17 4 -20 -2 -10 -5 8 -13 26 -16 40 -5 17 -4 20 2 10 5 -8 13 -26 16 -40z
m-2024 -71 c0 -24 -4 -38 -10 -34 -5 3 -7 0 -4 -8 3 -8 0 -18 -6 -22 -6 -4 -8
-15 -5 -26 5 -14 2 -19 -14 -19 -11 0 -23 -4 -26 -10 -9 -15 -25 -12 -25 5 0
8 -4 15 -10 15 -16 0 -12 37 7 55 13 14 14 18 2 25 -11 7 -11 10 2 15 9 3 22
5 30 3 8 -2 13 3 11 11 -3 15 15 31 36 31 7 0 12 -15 12 -41z m2050 6 c0 -5
-5 -3 -10 5 -5 8 -10 20 -10 25 0 6 5 3 10 -5 5 -8 10 -19 10 -25z m-1630 15
c0 -5 -4 -10 -10 -10 -5 0 -10 5 -10 10 0 6 5 10 10 10 6 0 10 -4 10 -10z
m257 4 c-3 -3 -12 -4 -19 -1 -8 3 -5 6 6 6 11 1 17 -2 13 -5z m-40 -220 c21 5
24 4 13 -3 -8 -6 -15 -16 -15 -23 0 -20 -32 -21 -39 -1 -3 10 -9 25 -13 33 -5
13 -4 13 10 1 11 -8 27 -11 44 -7z m98 6 c3 -5 -3 -11 -13 -15 -21 -6 -52 3
-52 15 0 10 59 10 65 0z m1420 -50 c9 -16 13 -30 11 -30 -3 0 -12 14 -21 30
-9 17 -13 30 -11 30 3 0 12 -13 21 -30z m-1470 -30 c-10 -11 -22 -17 -28 -13
-6 4 -8 0 -5 -8 3 -9 -3 -26 -13 -40 -10 -13 -19 -22 -20 -19 -1 3 -2 20 -4
38 -2 27 1 33 21 38 13 3 21 10 18 15 -3 5 7 9 22 9 26 0 27 -1 9 -20z m1519
-67 c9 -18 14 -33 12 -33 -6 0 -36 55 -36 66 0 11 5 3 24 -33z m-1464 -132 c0
-5 -9 -11 -21 -14 -16 -4 -18 -3 -8 9 13 16 29 19 29 5z m1605 -117 c9 -15 12
-23 6 -20 -11 7 -35 46 -28 46 3 0 12 -12 22 -26z m210 -274 l59 -65 -53 50
c-29 28 -73 77 -98 110 -36 49 -37 52 -6 15 21 -25 65 -74 98 -110z m440 23
c-65 -101 -172 -213 -203 -213 -22 0 -66 28 -117 75 -34 31 -31 30 20 -8 92
-70 106 -70 169 -5 29 30 71 82 95 116 41 60 71 89 36 35z m-2182 -30 c-7 -2
-21 -2 -30 0 -10 3 -4 5 12 5 17 0 24 -2 18 -5z m-926 -89 c-3 -3 -12 -4 -19
-1 -8 3 -5 6 6 6 11 1 17 -2 13 -5z m-350 -30 c-3 -3 -12 -4 -19 -1 -8 3 -5 6
6 6 11 1 17 -2 13 -5z m-1854 -4781 c-13 -2 -33 -2 -45 0 -13 2 -3 4 22 4 25
0 35 -2 23 -4z m4044 -79 c-3 -3 -12 -4 -19 -1 -8 3 -5 6 6 6 11 1 17 -2 13
-5z m75 -5 c-15 -6 -30 -5 -40 1 -13 7 -8 9 23 9 35 0 37 -1 17 -10z m-124 -6
c-10 -2 -26 -2 -35 0 -10 3 -2 5 17 5 19 0 27 -2 18 -5z"/>
<path d="M5777 14283 c-2 -5 -1 -19 4 -33 7 -23 7 -23 8 8 1 31 -3 40 -12 25z"/>
<path d="M5841 14184 c0 -11 3 -14 6 -6 3 7 2 16 -1 19 -3 4 -6 -2 -5 -13z"/>
<path d="M5128 14033 c7 -3 16 -2 19 1 4 3 -2 6 -13 5 -11 0 -14 -3 -6 -6z"/>
<path d="M5188 14033 c7 -3 16 -2 19 1 4 3 -2 6 -13 5 -11 0 -14 -3 -6 -6z"/>
<path d="M1910 9587 c0 -21 17 -40 29 -33 18 11 13 33 -9 39 -12 3 -20 0 -20
-6z"/>
<path d="M1965 9523 c4 -10 10 -26 12 -35 3 -10 14 -18 24 -18 28 0 24 35 -6
54 -31 21 -39 20 -30 -1z"/>
<path d="M1932 9430 c0 -14 2 -19 5 -12 2 6 2 18 0 25 -3 6 -5 1 -5 -13z"/>
<path d="M1894 9393 c3 -21 6 -47 7 -58 1 -17 2 -16 9 5 15 46 12 90 -6 90
-14 0 -15 -7 -10 -37z"/>
<path d="M1172 12800 c0 -14 3 -34 8 -45 l9 -20 -1 20 c0 11 -4 31 -8 45 l-8
25 0 -25z"/>
<path d="M5741 13283 c1 -4 1 -10 -1 -13 -1 -3 -3 -16 -6 -29 -4 -20 -2 -22
11 -11 17 14 20 46 5 55 -6 4 -10 3 -9 -2z"/>
<path d="M5260 13191 c0 -5 5 -13 10 -16 6 -3 10 -2 10 4 0 5 -4 13 -10 16 -5
3 -10 2 -10 -4z"/>
<path d="M5574 12364 c-18 -14 -18 -15 4 -4 12 6 22 13 22 15 0 8 -5 6 -26
-11z"/>
<path d="M5376 12294 c-11 -7 -16 -17 -13 -21 4 -4 15 1 24 10 22 21 14 30
-11 11z"/>
<path d="M6380 12096 c-6 -20 -10 -44 -8 -53 3 -10 9 4 15 32 14 59 10 71 -7
21z"/>
<path d="M7245 10815 c-25 -12 -26 -14 -9 -15 12 0 27 7 34 15 15 18 14 18
-25 0z"/>
<path d="M6930 12175 c14 -8 34 -14 45 -14 13 0 8 5 -15 14 -46 18 -61 18 -30
0z"/>
<path d="M7075 12115 c43 -26 60 -31 50 -15 -6 10 -70 40 -84 40 -3 0 12 -11
34 -25z"/>
<path d="M7186 12052 c21 -16 64 -45 94 -66 50 -34 52 -34 20 -6 -40 36 -133
100 -145 100 -4 0 10 -13 31 -28z"/>
<path d="M7380 11895 c13 -14 26 -25 28 -25 3 0 -5 11 -18 25 -13 14 -26 25
-28 25 -3 0 5 -11 18 -25z"/>
<path d="M6908 11993 c6 -11 30 -36 52 -57 33 -30 44 -35 56 -25 23 19 16 36
-18 43 -17 3 -47 18 -66 32 -28 22 -32 23 -24 7z"/>
<path d="M6575 11969 c-4 -6 -5 -12 -2 -15 2 -3 7 2 10 11 7 17 1 20 -8 4z"/>
<path d="M7144 11741 c21 -23 26 -26 26 -11 0 5 -10 15 -22 21 -23 12 -23 12
-4 -10z"/>
<path d="M6622 11385 c0 -16 2 -22 5 -12 2 9 2 23 0 30 -3 6 -5 -1 -5 -18z"/>
<path d="M7347 11363 c-3 -5 -2 -15 2 -22 7 -10 10 -10 16 -1 4 6 3 16 -3 22
-5 5 -12 6 -15 1z"/>
<path d="M6630 11296 c0 -8 4 -17 9 -20 5 -4 7 3 4 14 -6 23 -13 26 -13 6z"/>
<path d="M7250 10970 c0 -5 5 -10 10 -10 6 0 10 5 10 10 0 6 -4 10 -10 10 -5
0 -10 -4 -10 -10z"/>
<path d="M5397 11545 c-21 -7 -42 -17 -45 -21 -4 -4 2 -4 13 0 11 4 32 10 48
13 15 3 30 10 33 14 7 12 -4 11 -49 -6z"/>
<path d="M6015 11500 c-3 -5 -2 -10 4 -10 5 0 13 5 16 10 3 6 2 10 -4 10 -5 0
-13 -4 -16 -10z"/>
<path d="M6072 11405 c0 -16 2 -22 5 -12 2 9 2 23 0 30 -3 6 -5 -1 -5 -18z"/>
<path d="M6072 11340 c0 -14 2 -19 5 -12 2 6 2 18 0 25 -3 6 -5 1 -5 -13z"/>
<path d="M6071 11004 c0 -11 3 -14 6 -6 3 7 2 16 -1 19 -3 4 -6 -2 -5 -13z"/>
<path d="M6050 10504 c0 -8 5 -12 10 -9 6 4 8 11 5 16 -9 14 -15 11 -15 -7z"/>
<path d="M5483 10119 c-9 -9 -10 -16 -2 -26 13 -15 39 -17 39 -3 0 6 -4 10 -9
10 -5 0 -11 7 -13 16 -2 12 -6 13 -15 3z"/>
<path d="M5700 10092 c-9 -11 -15 -12 -18 -4 -2 7 -8 12 -13 12 -4 0 -6 -7 -3
-15 4 -9 0 -15 -10 -15 -9 0 -16 -4 -16 -9 0 -5 -9 -7 -19 -4 -29 8 -15 -33
23 -68 31 -28 53 -38 41 -19 -3 6 3 10 14 10 12 0 21 -7 21 -15 0 -8 5 -15 10
-15 6 0 10 7 10 15 0 9 7 18 15 21 8 4 13 10 10 15 -3 4 3 13 13 18 14 7 18
18 14 36 -5 28 -11 33 -50 44 -20 6 -31 4 -42 -7z"/>
<path d="M5560 10050 c0 -5 9 -14 20 -20 22 -12 27 -1 8 18 -14 14 -28 16 -28
2z"/>
<path d="M3500 11580 c0 -5 5 -10 10 -10 6 0 10 5 10 10 0 6 -4 10 -10 10 -5
0 -10 -4 -10 -10z"/>
<path d="M6167 11615 c-16 -11 -16 -13 -2 -19 9 -3 14 -2 10 3 -3 5 1 11 7 14
7 2 11 7 8 10 -3 3 -13 0 -23 -8z"/>
<path d="M6280 10601 c0 -6 4 -13 10 -16 6 -3 7 1 4 9 -7 18 -14 21 -14 7z"/>
<path d="M4557 10903 c-4 -3 -7 -11 -7 -17 0 -6 5 -5 12 2 6 6 9 14 7 17 -3 3
-9 2 -12 -2z"/>
<path d="M7461 10556 c-9 -11 -10 -20 -1 -35 16 -30 21 -26 18 14 -2 40 -2 40
-17 21z"/>
<path d="M7249 9801 c-37 -27 -70 -54 -74 -60 -5 -10 115 77 140 100 23 22 -5
5 -66 -40z"/>
<path d="M7065 9654 c-98 -83 -119 -102 -95 -89 39 21 206 166 189 165 -2 -1
-44 -35 -94 -76z"/>
<path d="M8490 8201 c0 -5 7 -11 14 -14 10 -4 13 -1 9 9 -6 15 -23 19 -23 5z"/>
<path d="M8440 8190 c8 -5 22 -9 30 -9 10 0 8 3 -5 9 -27 12 -43 12 -25 0z"/>
<path d="M5265 7930 c3 -5 8 -10 11 -10 2 0 4 5 4 10 0 6 -5 10 -11 10 -5 0
-7 -4 -4 -10z"/>
<path d="M5583 7763 c-15 -5 -18 -33 -4 -33 13 0 33 28 24 33 -4 2 -14 2 -20
0z"/>
<path d="M5400 7736 c0 -2 7 -7 16 -10 8 -3 12 -2 9 4 -6 10 -25 14 -25 6z"/>
<path d="M5515 7720 c-16 -7 -17 -9 -3 -9 9 -1 20 4 23 9 7 11 7 11 -20 0z"/>
<path d="M5970 7571 c0 -6 4 -13 10 -16 6 -3 7 1 4 9 -7 18 -14 21 -14 7z"/>
<path d="M5930 7172 c0 -22 4 -43 8 -46 9 -5 7 72 -2 81 -3 4 -6 -12 -6 -35z"/>
<path d="M5640 6929 c1 -13 6 -34 13 -46 14 -25 144 -113 167 -113 8 0 -4 12
-27 26 -24 14 -43 29 -43 33 0 5 -13 14 -29 21 -37 15 -59 39 -64 68 -5 31
-17 40 -17 11z"/>
<path d="M5702 6923 c-18 -7 -4 -23 19 -23 12 0 19 5 17 12 -5 14 -18 18 -36
11z"/>
<path d="M5895 6870 c3 -5 10 -10 16 -10 5 0 9 5 9 10 0 6 -7 10 -16 10 -8 0
-12 -4 -9 -10z"/>
<path d="M5895 6840 c-3 -5 -1 -10 4 -10 6 0 11 5 11 10 0 6 -2 10 -4 10 -3 0
-8 -4 -11 -10z"/>
<path d="M6033 6693 c-18 -2 -33 -8 -33 -13 0 -7 79 6 89 16 4 4 1 4 -56 -3z"/>
<path d="M5340 6669 c0 -5 5 -7 10 -4 6 3 10 8 10 11 0 2 -4 4 -10 4 -5 0 -10
-5 -10 -11z"/>
<path d="M5071 6094 c0 -11 3 -14 6 -6 3 7 2 16 -1 19 -3 4 -6 -2 -5 -13z"/>
<path d="M5910 6310 c0 -5 4 -10 9 -10 6 0 13 5 16 10 3 6 -1 10 -9 10 -9 0
-16 -4 -16 -10z"/>
<path d="M6198 653 c7 -3 16 -2 19 1 4 3 -2 6 -13 5 -11 0 -14 -3 -6 -6z"/>
<path d="M6335 450 c3 -5 19 -10 36 -10 16 0 29 5 29 10 0 6 -16 10 -36 10
-21 0 -33 -4 -29 -10z"/>
<path d="M6375 420 c3 -5 13 -10 21 -10 8 0 12 5 9 10 -3 6 -13 10 -21 10 -8
0 -12 -4 -9 -10z"/>
</g>
</svg>
