<?xml version="1.0" standalone="no"?>
<!DOCTYPE svg PUBLIC "-//W3C//DTD SVG 20010904//EN"
 "http://www.w3.org/TR/2001/REC-SVG-20010904/DTD/svg10.dtd">
<svg version="1.0" xmlns="http://www.w3.org/2000/svg"
 width="1024.000000pt" height="1536.000000pt" viewBox="0 0 1024.000000 1536.000000"
 preserveAspectRatio="xMidYMid meet">

<g transform="translate(0.000000,1536.000000) scale(0.100000,-0.100000)"
fill="#000000" stroke="none">
<path d="M5185 14868 c-111 -20 -256 -76 -337 -130 -31 -21 -90 -77 -130 -124
-40 -48 -87 -103 -104 -123 -48 -57 -114 -192 -114 -234 0 -24 -33 -160 -70
-287 -12 -41 -24 -84 -27 -95 -23 -86 -59 -188 -97 -274 -25 -55 -46 -106 -46
-111 0 -6 -13 -40 -30 -77 -16 -36 -30 -69 -30 -73 0 -5 -24 -59 -54 -121 -57
-121 -99 -218 -137 -312 -23 -58 -23 -59 -6 -125 9 -37 17 -72 17 -78 0 -6
-26 -28 -57 -49 -32 -21 -83 -57 -113 -81 -30 -23 -67 -46 -83 -49 -15 -4 -30
-11 -33 -16 -3 -5 -13 -9 -23 -9 -23 0 -149 -65 -181 -93 -40 -36 -88 -67
-102 -67 -25 0 -58 -31 -74 -68 -11 -27 -14 -53 -9 -99 6 -54 3 -66 -17 -100
-38 -60 -140 -276 -154 -323 -3 -14 -14 -36 -24 -50 -18 -26 -121 -252 -185
-405 -21 -49 -50 -108 -66 -131 -15 -22 -46 -78 -68 -125 -60 -122 -92 -182
-123 -222 -16 -20 -28 -41 -28 -48 0 -19 -81 -119 -96 -119 -11 0 -14 33 -16
168 -2 218 -2 238 1 362 1 58 2 386 1 730 -1 940 5 1069 57 1152 44 71 53 115
53 264 0 183 11 218 97 299 l63 61 0 58 c0 40 7 73 24 109 23 49 24 59 18 167
-7 114 -16 135 -38 91 -14 -27 -75 -91 -86 -91 -8 0 -65 -37 -78 -50 -22 -22
-76 -52 -102 -57 -18 -3 -41 -10 -50 -15 -14 -7 -12 0 7 28 14 20 25 40 25 43
0 4 17 15 38 26 37 19 102 73 102 86 0 3 -31 -10 -70 -29 -38 -19 -70 -41 -70
-48 0 -9 -12 -14 -32 -14 -45 0 -79 10 -72 21 13 22 -16 6 -43 -23 -59 -63
-113 -108 -129 -108 -19 0 -137 84 -162 115 -11 13 -27 50 -37 82 -24 77 -43
105 -69 101 -16 -2 -25 -16 -37 -54 -16 -49 -16 -57 1 -140 25 -123 59 -195
105 -220 20 -10 42 -28 49 -39 20 -32 39 -140 34 -199 -3 -30 -1 -53 4 -50 15
10 8 -14 -9 -32 -12 -12 -14 -19 -6 -21 8 -3 9 -12 1 -33 -9 -26 -5 -37 39
-102 l48 -73 0 -205 c1 -145 6 -234 17 -303 14 -82 17 -166 16 -500 -1 -221 0
-442 2 -492 2 -49 4 -331 4 -625 l1 -534 -23 -12 c-35 -17 -40 -26 -11 -19 15
4 30 2 33 -4 4 -5 14 -7 24 -4 15 6 15 5 3 -10 -7 -9 -17 -14 -22 -11 -5 3 -9
-2 -9 -10 0 -18 -11 -21 -26 -6 -7 7 -10 -2 -8 -27 2 -43 -25 -80 -45 -60 -8
8 -11 7 -11 -5 0 -9 -7 -19 -16 -22 -23 -9 -27 -8 -20 9 7 20 -4 19 -33 -2
-14 -9 -21 -11 -17 -5 5 8 -4 12 -29 12 -34 0 -35 1 -24 23 11 20 11 21 -5 8
-13 -11 -16 -22 -11 -45 14 -61 3 -106 -39 -153 -36 -42 -11 -32 39 15 45 42
85 62 85 42 0 -4 10 -6 23 -5 12 1 63 -9 112 -24 69 -20 102 -25 140 -20 98
12 217 -42 213 -97 -3 -26 -28 -58 -28 -35 0 7 -4 10 -10 6 -5 -3 -6 -13 -3
-21 5 -13 1 -15 -15 -10 -15 5 -25 0 -36 -16 l-16 -22 0 24 c0 40 -14 54 -39
41 -17 -10 -22 -9 -28 4 -5 13 -7 14 -14 3 -7 -10 -9 -9 -9 4 0 9 -8 22 -18
27 -9 6 -12 11 -7 12 6 1 -6 4 -25 8 -27 5 -36 12 -38 29 -2 13 -9 21 -15 19
-7 -3 -11 -8 -10 -13 1 -5 -17 -9 -40 -9 -35 0 -42 3 -40 18 1 13 -3 17 -15
12 -10 -4 -25 -10 -34 -12 -10 -3 -15 -9 -13 -14 3 -4 11 -6 19 -3 7 3 18 -7
24 -21 6 -14 19 -25 28 -25 16 0 11 -15 -4 -15 -4 0 -11 -3 -17 -7 -11 -6
-125 15 -168 31 -18 7 -27 7 -31 -2 -3 -8 -10 -6 -21 8 -17 19 -17 18 -10 -19
4 -22 15 -51 26 -64 13 -18 19 -41 19 -79 0 -55 13 -64 24 -17 4 15 14 33 21
41 8 8 15 23 15 34 0 13 7 19 23 19 16 0 18 -3 9 -9 -11 -6 -8 -13 12 -29 14
-11 26 -27 26 -36 0 -10 6 -13 15 -10 8 4 15 1 15 -5 0 -7 10 -16 23 -20 22
-9 22 -9 -5 -20 -16 -6 -28 -15 -28 -21 0 -15 -32 -12 -70 8 -39 19 -80 10
-80 -18 0 -9 -9 -35 -20 -58 -11 -22 -20 -47 -20 -55 0 -7 -4 -17 -8 -22 -5
-6 -21 -54 -36 -107 -26 -95 -36 -234 -22 -300 6 -25 22 -210 31 -353 6 -104
14 -156 24 -170 7 -10 33 -132 36 -170 1 -11 4 -27 7 -35 3 -8 11 -35 19 -60
7 -25 15 -49 19 -55 9 -16 27 -75 40 -135 18 -84 63 -169 120 -228 74 -76 79
-93 79 -268 -1 -82 2 -214 6 -294 8 -184 7 -6065 -2 -6621 l-6 -415 22 -21
c27 -25 85 -43 137 -43 41 1 73 20 92 57 9 16 12 339 13 1210 2 3032 8 5180
15 5413 4 140 8 341 10 445 4 410 0 368 35 388 17 9 44 17 59 17 23 0 46 16
100 68 38 38 70 72 70 76 0 5 28 42 63 85 35 42 82 101 104 131 22 30 55 71
73 90 76 82 140 182 140 221 0 30 84 185 117 218 33 31 123 194 123 222 0 5 5
9 10 9 6 0 10 6 10 14 0 8 6 21 14 29 20 20 66 131 66 160 0 13 4 37 9 53 5
16 14 56 21 89 15 73 25 105 56 169 13 28 24 59 24 70 1 50 18 -13 23 -84 6
-88 19 -121 56 -143 65 -38 66 -43 63 -226 -4 -161 -5 -167 -32 -216 -66 -116
-138 -273 -145 -315 -9 -62 -34 -200 -52 -290 -9 -41 -18 -95 -20 -120 -3 -25
-9 -49 -13 -55 -4 -5 -10 -32 -14 -60 -4 -27 -9 -63 -11 -80 -3 -16 -11 -65
-19 -110 -8 -44 -17 -109 -21 -144 -3 -35 -10 -71 -15 -80 -5 -10 -11 -44 -15
-76 -3 -33 -12 -100 -20 -150 -7 -49 -19 -144 -25 -210 -7 -66 -18 -163 -26
-215 -7 -52 -21 -156 -29 -230 -9 -74 -20 -160 -26 -191 -5 -30 -9 -84 -9
-120 0 -35 -6 -95 -14 -134 -8 -38 -18 -117 -21 -175 -4 -62 -19 -152 -36
-219 -23 -92 -28 -127 -23 -180 3 -36 1 -102 -5 -146 -6 -44 -13 -102 -16
-130 -3 -27 -10 -68 -15 -90 -10 -42 -39 -236 -45 -296 -1 -19 -8 -60 -13 -90
-6 -30 -16 -117 -22 -194 -6 -77 -18 -196 -27 -265 -8 -69 -17 -152 -20 -185
-2 -33 -8 -73 -14 -89 -5 -16 -9 -46 -9 -67 0 -20 -4 -59 -10 -86 -5 -26 -14
-100 -20 -163 -16 -179 -28 -287 -44 -395 -8 -55 -17 -148 -20 -206 -3 -59
-13 -123 -21 -143 -8 -19 -15 -59 -15 -88 0 -29 -7 -90 -16 -135 l-17 -82 28
-46 c23 -41 101 -105 127 -105 5 0 26 -11 48 -25 28 -18 57 -26 107 -29 75 -5
137 -27 147 -51 3 -9 6 -39 6 -65 0 -75 46 -155 94 -162 13 -2 22 -11 24 -26
2 -12 6 -22 10 -22 4 0 8 -35 10 -78 3 -80 -7 -117 -48 -177 -11 -17 -20 -46
-20 -67 0 -31 9 -48 55 -99 30 -34 55 -70 55 -81 0 -24 -24 -70 -45 -88 -18
-15 -14 -47 17 -117 22 -49 18 -82 -14 -146 -14 -29 -17 -49 -13 -81 6 -37 1
-58 -36 -142 -24 -55 -51 -112 -61 -129 -9 -16 -30 -57 -46 -90 -18 -36 -52
-82 -87 -115 -192 -184 -274 -289 -275 -348 0 -18 -9 -50 -20 -72 -37 -72 -17
-132 53 -164 122 -55 135 -58 262 -69 274 -23 334 -16 495 62 66 32 83 46 142
121 113 142 153 179 196 182 57 3 194 72 228 115 16 20 29 39 30 42 0 3 6 19
13 36 7 17 9 40 5 55 -4 14 -9 87 -10 163 -1 95 -8 160 -20 208 -15 59 -16 74
-5 105 8 22 9 39 3 47 -22 29 -21 61 5 105 l26 44 -17 49 c-28 77 -20 125 32
184 l44 49 -6 81 c-6 69 12 258 25 269 2 1 35 0 72 -3 56 -6 71 -4 83 11 20
21 33 79 34 146 0 34 4 52 13 53 64 6 162 2 175 -7 11 -8 17 -35 20 -91 6
-106 16 -118 96 -120 88 -2 245 36 298 73 39 27 47 29 130 26 55 -2 88 1 88 8
0 5 5 10 11 10 5 0 7 -5 3 -12 -5 -8 0 -9 16 -5 27 7 49 -3 105 -48 54 -44 80
-56 129 -62 68 -7 111 -64 142 -184 15 -57 15 -67 -1 -121 -9 -34 -14 -72 -10
-87 3 -14 29 -49 57 -77 49 -51 50 -52 43 -99 -3 -27 -11 -57 -16 -67 -11 -21
-6 -59 19 -131 15 -45 15 -49 -2 -78 -15 -25 -20 -65 -27 -203 -4 -94 -10
-199 -13 -232 -7 -91 7 -129 74 -196 45 -44 65 -58 88 -58 84 0 164 -49 197
-120 9 -19 24 -49 33 -66 20 -37 127 -154 141 -154 5 0 11 -5 13 -11 2 -6 21
-13 42 -15 22 -1 42 -7 45 -12 9 -14 149 -34 266 -39 125 -6 315 20 365 50 19
11 50 34 68 51 36 34 42 75 18 129 -7 18 -19 58 -26 90 -7 31 -17 57 -22 57
-4 0 -8 7 -8 15 0 8 -13 29 -28 47 -15 18 -34 43 -42 54 -44 63 -104 136 -158
191 -35 35 -69 81 -79 105 -9 24 -26 59 -38 78 -29 47 -75 210 -75 266 0 13 9
42 20 64 26 50 25 68 -2 98 -21 22 -23 31 -20 135 l3 112 42 43 c39 40 42 47
41 97 0 49 -17 101 -37 116 -17 12 -19 133 -3 179 9 25 16 77 16 118 l0 72 29
0 c18 0 48 14 78 36 71 53 83 70 83 120 0 48 9 56 76 73 126 31 163 40 197 44
30 4 50 17 90 58 l51 53 -13 130 c-8 72 -15 169 -17 216 -1 47 -9 114 -18 150
-14 64 -20 120 -31 310 -3 52 -11 124 -16 160 -6 36 -12 97 -14 135 -7 136
-18 250 -25 271 -15 38 -24 220 -21 442 1 161 -1 222 -10 222 -6 0 -9 6 -6 14
3 7 2 31 -3 52 -4 22 -11 75 -14 119 -8 96 -13 134 -26 200 -5 28 -14 147 -20
265 -6 118 -12 229 -14 245 -10 78 -16 161 -21 280 -3 72 -8 148 -10 170 -2
22 -1 58 3 80 6 34 12 41 47 53 116 41 172 66 195 86 14 12 37 30 53 39 15 10
27 26 27 37 0 39 22 120 31 114 5 -3 12 3 15 13 3 10 10 26 15 35 5 10 6 25 2
34 -4 11 -3 15 5 10 6 -3 15 2 21 11 15 26 13 9 -3 -29 -7 -18 -19 -51 -26
-73 -7 -22 -17 -43 -22 -46 -13 -8 -28 -69 -17 -69 5 0 9 6 9 14 0 8 4 16 8
18 12 5 82 127 82 143 0 8 4 16 9 20 5 3 12 18 16 34 3 15 14 37 24 48 10 11
21 28 25 39 9 28 92 90 169 125 33 15 227 199 227 215 0 6 9 19 21 30 20 18
21 25 14 124 -4 58 -9 130 -11 160 -1 30 -10 84 -19 120 -8 36 -16 72 -16 80
0 8 0 132 0 275 0 279 -2 312 -48 760 -6 50 -15 164 -21 255 -6 91 -17 208
-25 260 -16 102 -25 204 -29 340 -2 47 -8 98 -14 113 -7 16 -12 32 -12 37 0 4
-11 28 -25 51 -14 24 -32 67 -41 94 -9 28 -20 55 -24 60 -8 12 -42 120 -69
220 -20 73 -33 136 -55 270 -8 44 -21 100 -29 125 -14 41 -37 133 -97 390 -12
52 -32 127 -45 166 -13 38 -31 104 -40 145 -38 165 -79 307 -107 368 -18 38
-34 92 -39 135 -9 76 -25 152 -42 201 -14 44 -69 124 -89 131 -10 3 -18 11
-18 18 0 33 -190 186 -231 186 -5 0 -28 12 -52 27 -80 52 -157 93 -173 93 -18
0 -185 90 -220 118 l-28 23 18 62 c38 129 34 158 -33 272 -17 28 -36 61 -44
75 -44 80 -61 107 -76 125 -46 54 -98 193 -116 315 -4 25 -22 77 -41 115 -60
124 -168 446 -198 591 -20 96 -30 118 -80 184 -24 31 -47 67 -51 80 -4 12 -33
49 -65 81 -32 32 -55 61 -51 65 3 4 1 5 -4 2 -6 -4 -24 5 -40 19 l-30 26 30
-18 c26 -16 28 -16 16 -2 -7 9 -30 27 -50 39 -20 12 -65 40 -101 63 -86 55
-165 93 -231 110 -60 16 -90 17 -164 3z m415 -288 c0 -5 -4 -10 -9 -10 -6 0
-13 5 -16 10 -3 6 1 10 9 10 9 0 16 -4 16 -10z m185 -30 c3 -5 1 -10 -4 -10
-6 0 -11 5 -11 10 0 6 2 10 4 10 3 0 8 -4 11 -10z m-390 -81 c46 -13 92 -57
154 -149 29 -42 12 -26 -58 56 -40 47 -62 64 -94 73 -51 15 -76 16 -99 6 -11
-4 -18 -3 -18 3 0 10 22 17 60 21 8 0 33 -4 55 -10z m83 -398 c90 -44 172
-106 172 -129 0 -6 6 -12 13 -15 18 -6 11 -11 -86 -56 -93 -43 -125 -49 -145
-29 -10 10 -14 10 -21 0 -6 -10 -10 -10 -20 2 -10 11 -10 23 1 57 9 33 10 43
0 47 -7 2 -12 11 -12 20 0 10 -9 28 -20 42 -15 20 -20 21 -20 8 0 -9 5 -20 10
-23 6 -3 10 -25 11 -48 0 -33 2 -38 9 -22 8 18 9 18 9 2 1 -10 -5 -20 -13 -23
-7 -3 -16 -23 -20 -44 -3 -21 -12 -40 -18 -43 -10 -3 -9 -8 2 -22 14 -17 13
-17 -5 -8 -11 6 -25 8 -31 6 -7 -2 -14 19 -18 59 -8 72 -51 183 -61 157 -3 -8
1 -29 10 -45 19 -36 21 -129 3 -117 -7 4 -42 8 -78 10 -115 5 -114 4 -100 13
8 5 9 9 1 14 -6 4 -15 5 -20 2 -12 -8 -73 18 -64 27 3 4 15 7 25 7 10 0 18 4
18 8 0 5 -13 7 -30 4 -17 -2 -30 0 -30 6 0 18 88 88 147 118 32 16 63 35 71
42 7 6 16 12 20 13 26 3 57 10 61 15 3 3 34 3 69 0 46 -5 88 -19 160 -55z
m-3430 8 c-3 -8 -7 -3 -11 10 -4 17 -3 21 5 13 5 -5 8 -16 6 -23z m101 -184
c0 -5 -13 6 -29 25 -16 19 -30 39 -30 45 0 5 13 -6 30 -25 16 -19 29 -39 29
-45z m77 -36 c21 -12 31 -25 27 -35 -3 -7 -7 -14 -10 -14 -3 0 -3 7 1 15 3 10
-1 15 -13 15 -10 0 -26 9 -36 20 -23 26 -11 25 31 -1z m3394 -79 c-8 -6 -26
-10 -40 -9 -22 0 -20 2 10 13 38 13 54 11 30 -4z m-249 -92 c22 4 89 -64 89
-92 0 -23 33 -66 50 -66 18 0 10 22 -10 27 -23 6 -22 5 -25 55 l-2 37 53 -3
c30 -2 54 0 54 5 0 5 -12 9 -27 9 -38 0 -52 11 -43 35 7 19 7 19 21 -3 18 -28
56 -29 86 0 16 15 26 19 31 11 4 -6 21 -14 38 -17 39 -9 63 -34 74 -78 4 -18
11 -41 15 -51 6 -13 3 -16 -9 -11 -10 4 -16 1 -16 -9 0 -8 -7 -20 -15 -27 -9
-7 -14 -19 -11 -26 3 -7 1 -16 -4 -19 -6 -4 -10 -1 -10 5 0 6 -4 9 -8 6 -5 -3
-9 -24 -10 -47 -2 -30 -9 -48 -27 -65 -14 -13 -25 -27 -25 -31 0 -39 23 -181
33 -197 6 -12 11 -25 12 -31 0 -5 5 -19 12 -30 10 -18 9 -21 -8 -22 -11 -1
-23 6 -26 15 -4 9 -12 22 -18 29 -17 16 -13 -45 4 -76 11 -19 11 -25 0 -32
-11 -7 -10 -9 5 -9 16 0 16 -2 5 -16 -11 -13 -7 -21 24 -52 20 -20 37 -31 37
-24 0 6 -4 12 -9 12 -15 0 -22 33 -9 42 8 5 1 6 -16 2 -19 -5 -27 -3 -23 3 11
18 48 23 53 7 14 -48 14 -47 30 -34 12 11 20 8 49 -20 26 -25 32 -36 22 -43
-9 -7 -9 -10 1 -14 6 -2 12 -12 12 -22 0 -9 7 -26 15 -38 12 -17 12 -23 1 -32
-10 -8 -18 -6 -32 11 -10 12 -13 18 -5 13 22 -13 -12 33 -38 52 -12 8 -19 19
-16 24 4 5 2 9 -3 9 -14 0 -23 -28 -12 -35 12 -8 13 -25 2 -25 -13 0 -48 33
-54 50 -5 12 -7 12 -13 -3 -5 -13 0 -24 20 -41 44 -38 43 -126 -2 -109 -7 3
-13 10 -13 15 0 6 6 5 15 -2 13 -10 15 -9 15 10 0 15 -4 20 -15 17 -8 -4 -17
-2 -20 3 -4 6 -1 10 6 10 8 0 8 4 -1 15 -18 22 -28 18 -25 -10 4 -36 -2 -31
-24 18 -11 23 -28 51 -38 62 -22 24 -36 65 -21 65 5 0 15 -13 21 -30 6 -16 15
-30 20 -30 4 0 3 9 -3 20 -6 11 -8 20 -5 20 3 0 -2 11 -11 25 -9 14 -19 23
-23 20 -4 -2 -6 9 -3 24 2 16 -1 39 -8 51 -9 17 -9 24 0 30 7 4 -1 18 -25 38
-20 18 -40 32 -45 32 -4 0 -14 17 -21 37 l-12 38 -13 -40 c-10 -35 -12 -36
-13 -13 -1 19 -5 26 -15 22 -10 -4 -16 6 -21 35 -4 23 -11 41 -16 41 -13 0
-11 -37 2 -45 6 -4 8 -13 5 -21 -3 -7 -1 -16 4 -19 6 -4 10 -14 10 -23 0 -22
-24 23 -34 64 -4 16 -13 32 -19 36 -9 6 -9 8 1 8 6 0 12 11 12 24 0 35 15 40
39 14 l21 -22 0 31 c0 17 7 36 15 43 17 14 17 66 -1 93 -10 15 -11 10 -7 -27
5 -41 4 -46 -15 -46 -11 0 -22 -6 -25 -12 -3 -7 -3 7 -1 32 l4 45 -12 -33 c-6
-19 -22 -41 -35 -49 -28 -18 -73 -10 -73 14 0 9 -3 13 -7 10 -6 -6 -32 21 -33
35 0 4 7 14 17 23 15 16 21 94 8 115 -3 4 2 24 11 45 11 27 12 40 4 50 -15 18
-16 121 -2 138 7 8 22 12 37 9 17 -3 25 0 26 9 1 8 6 -6 13 -31 8 -32 15 -45
27 -42z m-2624 38 c-16 -18 -31 -8 -16 10 6 7 15 11 20 8 5 -3 3 -11 -4 -18z
m2223 -35 c0 -5 12 -14 28 -19 l27 -10 -25 -1 c-25 -1 -50 15 -50 31 0 4 5 8
10 8 6 0 10 -4 10 -9z m104 -10 c-10 -10 -21 -17 -23 -15 -6 6 20 34 32 34 6
0 2 -8 -9 -19z m-78 -50 c-16 -3 -31 -11 -33 -18 -3 -9 4 -10 29 -2 42 12 85
12 93 0 8 -13 -55 -78 -85 -86 -23 -7 -24 -7 -10 10 8 11 10 16 3 12 -6 -4
-14 -3 -18 3 -3 5 -11 10 -17 10 -7 0 -6 -6 2 -15 7 -8 9 -15 4 -15 -5 0 -2
-5 7 -10 30 -18 92 8 153 65 35 32 41 28 22 -16 -9 -19 -16 -29 -16 -24 0 6
-5 2 -11 -8 -13 -22 -2 -38 11 -17 8 12 10 12 10 2 0 -8 -9 -25 -20 -39 -11
-14 -17 -30 -14 -35 3 -5 2 -17 -2 -26 -4 -9 -8 -24 -9 -33 -1 -10 -9 -25 -18
-34 -10 -9 -30 -33 -45 -53 -37 -50 -49 -62 -61 -62 -6 0 -12 -6 -12 -12 -3
-29 -5 -34 -23 -61 -15 -22 -21 -25 -33 -16 -11 10 -11 14 -1 20 7 5 10 9 5 9
-4 0 -1 13 8 30 14 27 14 29 -2 23 -10 -4 -14 -2 -10 4 24 39 27 163 3 163 -8
0 -25 19 -39 43 -30 52 -44 92 -28 83 15 -10 14 -1 -4 33 l-14 29 44 -14 c30
-9 45 -10 45 -2 0 6 9 8 20 5 11 -3 20 -1 20 5 0 5 -11 8 -24 6 -13 -1 -31 4
-40 11 -16 14 -16 15 4 26 11 6 46 11 78 11 37 1 47 -1 28 -5z m791 -33 c-3
-8 -6 -5 -6 6 -1 11 2 17 5 13 3 -3 4 -12 1 -19z m-22 -123 c-17 -37 -28 -47
-19 -17 17 51 28 74 32 63 2 -6 -3 -27 -13 -46z m-711 -225 c-10 -16 -24 -32
-32 -35 -13 -5 -12 -2 0 17 8 13 18 29 22 36 4 6 12 12 17 12 6 0 2 -13 -7
-30z m66 -24 c0 -3 -4 -8 -10 -11 -5 -3 -10 -1 -10 4 0 6 5 11 10 11 6 0 10
-2 10 -4z m-59 -72 c-6 -20 -8 -41 -5 -45 3 -5 -7 -11 -21 -15 -23 -6 -30 -16
-25 -39 1 -5 -5 -4 -12 3 -11 11 -10 16 7 30 24 20 49 72 35 72 -6 0 -10 -4
-10 -8 0 -5 -9 -17 -19 -29 -28 -30 -51 -78 -51 -108 0 -14 -5 -25 -11 -25 -6
0 -8 9 -4 21 5 15 4 19 -4 15 -6 -4 -11 -16 -11 -26 0 -10 -4 -22 -10 -25 -6
-4 -7 1 -3 12 6 15 5 16 -9 5 -24 -19 14 53 44 85 16 17 19 26 11 31 -9 6 -7
16 7 40 20 33 40 42 40 18 0 -8 -7 -16 -15 -20 -8 -3 -15 -11 -15 -18 0 -7 19
6 42 29 23 23 44 41 46 39 2 -2 -1 -21 -7 -42z m59 24 c0 -6 -6 -8 -14 -5 -10
4 -12 0 -9 -14 7 -27 20 -24 38 9 l15 27 -6 -30 c-9 -43 -13 -46 -33 -35 -22
11 -32 34 -25 54 6 16 34 10 34 -6z m71 -21 c-8 -8 -11 -7 -11 4 0 20 13 34
18 19 3 -7 -1 -17 -7 -23z m157 -3 c-3 -14 -5 -12 -10 9 -3 19 -2 25 4 19 6
-6 8 -18 6 -28z m375 -46 c-8 -15 -19 -25 -25 -22 -6 4 -6 9 3 14 9 6 10 13 3
22 -6 7 -11 26 -12 41 l-2 28 23 -27 c22 -25 23 -30 10 -56z m-553 12 c0 -13
-1 -13 -10 0 -5 8 -10 22 -10 30 0 13 1 13 10 0 5 -8 10 -22 10 -30z m-85 0
c3 -5 1 -10 -4 -10 -6 0 -11 5 -11 10 0 6 2 10 4 10 3 0 8 -4 11 -10z m685
-30 c0 -5 -4 -10 -10 -10 -5 0 -10 5 -10 10 0 6 5 10 10 10 6 0 10 -4 10 -10z
m21 -46 c5 -15 7 -29 4 -32 -3 -3 -5 0 -5 7 0 7 -4 10 -9 7 -5 -3 -11 5 -13
19 -7 33 10 32 23 -1z m-409 6 c2 -6 16 -12 31 -14 16 -2 46 -18 68 -37 22
-19 47 -33 55 -31 14 3 14 1 3 -11 -12 -13 -16 -13 -31 0 -12 11 -18 12 -18 4
0 -7 -6 -9 -12 -6 -16 8 19 -23 53 -48 l24 -18 -25 7 c-14 3 -32 13 -41 20
-32 29 -32 13 1 -21 25 -25 29 -35 17 -35 -9 0 -21 8 -26 18 -6 9 -10 13 -10
7 0 -11 44 -65 53 -65 3 0 3 7 0 15 -9 22 14 18 26 -5 6 -10 16 -17 23 -15 15
6 57 -71 57 -104 0 -19 -4 -22 -21 -18 -20 5 -20 5 -3 -14 21 -23 35 -209 15
-209 -6 0 -11 -8 -12 -17 0 -15 -2 -15 -8 2 -5 11 -6 24 -4 28 3 5 1 19 -4 30
-11 23 -39 132 -42 160 -2 18 -19 5 -23 -18 -3 -14 -1 -25 3 -25 5 0 9 -7 9
-16 0 -8 -4 -13 -9 -10 -5 4 -11 -22 -14 -56 -2 -35 -7 -75 -9 -91 -5 -23 -2
-27 13 -22 14 5 17 2 13 -9 -3 -9 -11 -16 -16 -16 -7 0 -7 -5 0 -13 13 -15 4
-60 -9 -51 -5 3 -14 -8 -20 -25 -6 -17 -16 -31 -23 -31 -11 0 -49 -39 -92 -95
-11 -14 -17 -16 -20 -7 -3 6 -10 9 -16 6 -5 -4 -4 4 3 17 7 13 12 27 11 32 -1
4 2 7 7 7 9 0 9 23 -4 125 -4 28 -6 69 -5 92 1 41 1 41 -25 30 -15 -7 -29 -24
-34 -42 -7 -29 -8 -29 -15 -7 -12 36 -25 25 -19 -15 5 -36 4 -37 -10 -17 -9
11 -19 33 -23 48 -5 23 -41 51 -52 41 -2 -2 11 -32 28 -67 31 -61 47 -149 32
-172 -4 -6 -7 -13 -8 -16 -14 -79 -25 -98 -28 -48 0 13 -7 23 -15 23 -8 0 -16
6 -19 13 -2 8 2 10 15 6 13 -5 11 1 -9 20 -16 15 -36 55 -50 98 -13 40 -26 74
-30 76 -5 2 -6 13 -4 25 17 82 16 87 -4 75 -16 -10 -18 -22 -15 -87 2 -42 6
-88 10 -103 4 -17 3 -28 -3 -28 -6 0 -12 11 -14 25 -3 29 -21 35 -26 9 -3 -11
0 -14 9 -9 8 5 10 4 5 -3 -15 -25 -34 -11 -41 28 -4 22 -10 40 -13 41 -4 0
-15 2 -26 4 -14 3 -17 -1 -13 -21 4 -24 3 -24 -14 -8 -18 16 -19 44 -3 97 3 9
1 17 -4 17 -12 0 5 91 20 105 8 7 9 5 3 -10 -11 -31 -14 -95 -3 -89 5 4 9 -2
7 -12 -3 -26 18 -74 32 -74 6 0 9 7 5 15 -3 8 -1 15 4 15 5 0 12 17 15 38 4
20 9 45 12 56 3 12 1 16 -6 12 -6 -4 -11 -22 -11 -39 0 -33 -15 -66 -25 -56
-3 4 -1 18 4 32 5 13 7 35 4 46 -4 15 1 27 13 36 17 13 17 14 2 15 -11 0 -15
6 -11 21 4 14 8 17 13 9 6 -9 9 -9 15 0 4 7 1 16 -6 21 -10 6 -11 9 -1 9 6 0
12 6 12 13 0 7 11 29 25 49 14 20 25 41 25 45 0 4 -4 3 -8 -3 -4 -6 -20 -14
-37 -18 l-30 -7 25 18 c14 9 31 23 38 30 7 7 18 13 23 13 5 0 9 5 9 11 0 5 -5
7 -11 3 -13 -7 -3 33 12 52 5 6 7 19 3 28 -3 9 -1 16 5 16 6 0 11 7 11 15 0 8
7 15 15 15 22 0 18 -17 -6 -30 -11 -7 -18 -14 -15 -17 9 -10 56 19 56 34 0 7
-4 13 -10 13 -5 0 -10 4 -10 10 0 5 7 6 17 3 10 -4 14 -2 10 4 -11 17 -46 23
-40 7 7 -19 -22 -18 -41 2 -20 20 -20 34 0 34 8 0 12 -5 9 -10 -4 -6 10 -3 29
7 20 9 38 24 41 34 9 28 198 55 207 29z m478 0 c0 -5 -4 -10 -10 -10 -5 0 -10
5 -10 10 0 6 5 10 10 10 6 0 10 -4 10 -10z m28 -25 c-3 -3 -9 2 -12 12 -6 14
-5 15 5 6 7 -7 10 -15 7 -18z m-213 5 c3 -5 1 -10 -4 -10 -6 0 -11 5 -11 10 0
6 2 10 4 10 3 0 8 -4 11 -10z m20 -30 c3 -5 1 -10 -4 -10 -6 0 -11 5 -11 10 0
6 2 10 4 10 3 0 8 -4 11 -10z m122 -37 c16 -34 10 -41 -7 -8 -7 14 -17 25 -22
25 -4 0 -8 4 -8 10 0 18 25 0 37 -27z m-867 -3 c0 -5 -5 -10 -11 -10 -5 0 -7
5 -4 10 3 6 8 10 11 10 2 0 4 -4 4 -10z m-135 -39 c-3 -6 -20 -17 -38 -26 -35
-17 -23 -1 15 20 30 17 30 17 23 6z m995 -1 c0 -5 -4 -10 -10 -10 -5 0 -10 5
-10 10 0 6 5 10 10 10 6 0 10 -4 10 -10z m-1020 -48 c0 -5 -7 -17 -15 -28 -14
-18 -14 -17 -4 9 12 27 19 34 19 19z m90 -6 c0 -3 -4 -8 -10 -11 -5 -3 -10 -1
-10 4 0 6 5 11 10 11 6 0 10 -2 10 -4z m20 -10 c0 -2 -8 -10 -17 -17 -16 -13
-17 -12 -4 4 13 16 21 21 21 13z m-150 -10 c0 -3 -4 -8 -10 -11 -5 -3 -10 -1
-10 4 0 6 5 11 10 11 6 0 10 -2 10 -4z m100 -66 c-11 -21 -20 -47 -20 -56 0
-10 -3 -14 -7 -11 -3 4 -12 2 -20 -4 -9 -8 -13 -8 -13 -1 0 6 4 14 10 17 5 3
18 26 29 50 11 25 25 45 31 45 6 0 2 -17 -10 -40z m1017 18 c-3 -8 -6 -5 -6 6
-1 11 2 17 5 13 3 -3 4 -12 1 -19z m-1097 8 c0 -2 -7 -9 -15 -16 -13 -11 -14
-10 -9 4 5 14 24 23 24 12z m130 -80 l-22 -21 16 32 c9 18 17 40 17 50 1 10 4
5 6 -11 3 -20 -2 -35 -17 -50z m899 -4 c0 -14 -2 -13 -9 3 -4 12 -15 27 -24
34 -9 7 -16 19 -16 25 0 6 12 -2 25 -17 14 -15 25 -36 24 -45z m-819 39 c0 -5
-7 -14 -14 -21 -8 -6 -20 -27 -26 -46 -7 -20 -14 -33 -17 -31 -9 10 30 107 43
107 8 0 14 -4 14 -9z m870 -41 c0 -5 -2 -10 -4 -10 -3 0 -8 5 -11 10 -3 6 -1
10 4 10 6 0 11 -4 11 -10z m-820 -20 c-6 -11 -15 -20 -20 -20 -6 0 -5 9 2 20
7 11 16 20 21 20 4 0 3 -9 -3 -20z m-190 -8 c0 -4 -9 -8 -20 -9 -11 -1 -18 2
-15 8 7 11 35 12 35 1z m890 -27 c-7 -9 -15 -13 -18 -10 -3 2 1 11 8 20 7 9
15 13 18 10 3 -2 -1 -11 -8 -20z m-1049 -12 c-8 -15 -10 -15 -11 -2 0 17 10
32 18 25 2 -3 -1 -13 -7 -23z m967 -8 c-3 -3 -9 2 -12 12 -6 14 -5 15 5 6 7
-7 10 -15 7 -18z m35 6 c-2 -6 5 -11 15 -11 10 0 13 -3 6 -8 -7 -5 -9 -25 -4
-59 3 -29 4 -53 1 -53 -12 0 -31 40 -25 53 2 7 1 33 -5 56 -7 31 -6 41 2 38 7
-3 11 -10 10 -16z m-714 -8 c0 -11 -3 -13 -6 -5 -2 6 -10 9 -15 6 -7 -4 -8 -2
-4 4 11 18 26 14 25 -5z m-63 -8 c-8 -8 -18 -15 -22 -15 -3 0 -1 7 6 15 7 8
17 15 22 15 5 0 3 -7 -6 -15z m758 -21 c3 -8 2 -12 -4 -9 -6 3 -10 10 -10 16
0 14 7 11 14 -7z m-766 -84 c-7 -10 -14 -18 -15 -16 -6 6 9 36 18 36 5 0 4 -9
-3 -20z m82 11 c0 -6 -4 -13 -10 -16 -5 -3 -10 1 -10 9 0 9 5 16 10 16 6 0 10
-4 10 -9z m-203 -33 c-3 -8 -6 -5 -6 6 -1 11 2 17 5 13 3 -3 4 -12 1 -19z
m943 -2 c0 -3 -4 -8 -10 -11 -5 -3 -10 -1 -10 4 0 6 5 11 10 11 6 0 10 -2 10
-4z m-173 -28 c-3 -8 -6 -5 -6 6 -1 11 2 17 5 13 3 -3 4 -12 1 -19z m-213 -5
c-7 -2 -8 -19 -4 -48 6 -37 4 -43 -7 -34 -16 14 -17 71 -1 87 6 6 14 9 17 5 3
-3 1 -8 -5 -10z m373 -15 c-3 -8 -6 -5 -6 6 -1 11 2 17 5 13 3 -3 4 -12 1 -19z
m-117 2 c0 -5 -5 -10 -11 -10 -5 0 -7 5 -4 10 3 6 8 10 11 10 2 0 4 -4 4 -10z
m-7 -56 c-3 -9 0 -20 7 -24 7 -4 9 -13 5 -21 -6 -9 -11 -6 -17 10 -4 12 -12
19 -18 16 -5 -3 -10 -1 -10 4 0 6 5 11 11 11 5 0 7 5 4 10 -3 6 1 10 9 10 10
0 13 -6 9 -16z m64 -16 c-3 -8 -6 -5 -6 6 -1 11 2 17 5 13 3 -3 4 -12 1 -19z
m-331 -88 c-1 -42 -16 -57 -16 -16 0 22 9 56 14 56 2 0 2 -18 2 -40z m-231 -8
c-3 -3 -11 0 -18 7 -9 10 -8 11 6 5 10 -3 15 -9 12 -12z m871 -27 c-11 -8 -27
-15 -35 -14 -9 0 -2 7 14 14 39 18 45 18 21 0z m-504 -52 c2 -10 0 -31 -6 -47
-7 -22 -6 -31 2 -34 13 -4 6 -22 -8 -22 -13 0 -23 65 -16 95 7 29 23 33 28 8z
m-92 -65 c0 -4 -4 -10 -10 -13 -5 -3 -10 1 -10 9 0 9 -7 16 -16 16 -8 0 -12 4
-9 10 6 10 45 -9 45 -22z m30 -5 c0 -10 -7 -27 -15 -37 -13 -17 -15 -17 -15
-4 0 9 5 20 11 23 6 4 8 13 5 21 -3 8 -1 14 4 14 6 0 10 -8 10 -17z m-67 -75
c-8 -42 -21 -34 -20 12 2 30 5 36 14 27 6 -7 9 -24 6 -39z m-2563 -1498 c70
-36 85 -76 54 -148 -14 -32 -17 -34 -23 -18 -11 29 -22 4 -17 -37 4 -35 -32
-114 -51 -110 -4 0 -16 -3 -26 -8 -13 -8 -29 -3 -63 20 -25 17 -49 31 -55 31
-13 0 -11 12 6 34 19 25 19 37 0 30 -11 -5 -15 2 -15 26 0 30 8 53 48 140 8
19 16 39 16 44 2 26 73 24 126 -4z m-297 -74 c50 -18 77 -44 77 -73 0 -12 -3
-23 -7 -23 -5 0 -9 -12 -10 -26 -1 -31 -23 -56 -30 -36 -3 8 -9 10 -16 4 -7
-6 -22 -6 -34 -1 -17 6 -23 17 -24 41 -2 30 -2 31 -6 6 -2 -16 -10 -28 -18
-28 -7 0 -21 -3 -31 -7 -14 -5 -16 -3 -11 11 4 11 3 15 -4 10 -6 -4 -15 0 -20
7 -7 12 -12 12 -30 1 -14 -9 -19 -10 -14 -2 5 9 1 10 -16 5 l-24 -6 24 19 c18
15 21 21 10 25 -10 4 -9 6 4 6 9 1 17 6 17 12 0 6 -7 8 -17 5 -30 -12 18 34
52 49 39 17 81 17 128 1z m-82 -171 c27 -4 49 -11 49 -16 0 -5 -6 -9 -14 -9
-8 0 -17 -6 -19 -12 -4 -8 -6 -7 -6 3 -1 9 -8 20 -17 23 -15 6 -15 4 -3 -10
13 -16 12 -16 -6 -7 -11 6 -26 8 -32 6 -7 -3 -13 2 -13 11 0 15 -11 20 -37 17
-7 -1 -10 5 -7 13 5 12 9 12 31 1 14 -8 48 -16 74 -20z m-211 -17 c0 -4 -9 -8
-20 -8 -11 0 -20 4 -20 8 0 4 9 8 20 8 11 0 20 -4 20 -8z m350 8 c0 -3 -4 -8
-10 -11 -5 -3 -10 -1 -10 4 0 6 5 11 10 11 6 0 10 -2 10 -4z m310 -43 c0 -22
-2 -25 -10 -13 -7 11 -10 6 -10 -20 0 -19 -9 -46 -20 -60 -11 -14 -20 -40 -20
-57 0 -18 -4 -33 -10 -33 -5 0 -7 6 -4 14 3 7 -2 20 -10 29 -23 23 -19 58 10
92 76 89 74 88 74 48z m-531 -122 c9 -6 10 -11 2 -15 -6 -4 -11 -3 -11 3 0 5
-8 12 -17 14 -13 3 -14 5 -3 6 8 0 21 -3 29 -8z m441 -42 c0 -5 -4 -9 -10 -9
-5 0 -10 7 -10 16 0 8 5 12 10 9 6 -3 10 -10 10 -16z m-353 -8 c1 -14 -3 -18
-13 -14 -17 6 -18 20 -1 26 6 3 12 6 12 6 1 1 1 -8 2 -18z m-352 -2 c11 -17
-1 -21 -15 -4 -8 9 -8 15 -2 15 6 0 14 -5 17 -11z m260 1 c3 -5 -3 -10 -15
-10 -12 0 -18 5 -15 10 3 6 10 10 15 10 5 0 12 -4 15 -10z m-50 -10 c3 -5 1
-10 -4 -10 -6 0 -11 5 -11 10 0 6 2 10 4 10 3 0 8 -4 11 -10z m70 -9 c-3 -6
-11 -11 -16 -11 -5 0 -4 6 3 14 14 16 24 13 13 -3z m430 -1 c3 -5 1 -10 -4
-10 -6 0 -11 5 -11 10 0 6 2 10 4 10 3 0 8 -4 11 -10z m-335 -20 c3 -1 -6 -6
-20 -11 -15 -6 -26 -6 -28 -1 -2 6 -12 8 -22 5 -12 -3 -20 0 -20 6 0 10 53 10
90 1z m-133 -6 c-3 -3 -12 -4 -19 -1 -8 3 -5 6 6 6 11 1 17 -2 13 -5z m-74
-49 c8 -8 17 -12 20 -9 3 3 7 1 10 -3 3 -5 -3 -15 -14 -22 -18 -11 -21 -9 -26
8 -3 12 -12 21 -20 21 -8 0 -11 5 -8 10 9 14 21 12 38 -5z m394 -29 c39 -7 70
-26 43 -26 -7 0 -8 -6 -1 -19 10 -18 6 -31 -10 -31 -4 0 -10 8 -12 18 -2 9 -3
5 -1 -9 4 -38 -7 -43 -26 -11 -12 19 -14 29 -6 34 7 5 4 8 -6 8 -14 0 -18 -8
-18 -37 0 -51 -7 -58 -60 -59 -43 -2 -46 0 -46 25 -1 77 -4 91 -20 91 -11 0
-14 -6 -9 -20 4 -12 2 -20 -5 -20 -6 0 -8 5 -5 10 3 6 1 10 -4 10 -6 0 -11 -9
-11 -19 0 -11 -4 -22 -9 -25 -5 -4 -8 4 -7 17 3 20 -1 22 -33 19 -20 -3 -40
-8 -46 -12 -18 -14 -73 1 -78 21 -9 33 40 44 191 43 76 0 156 -4 179 -8z
m-234 -77 c-6 -6 -17 -8 -24 -3 -9 5 -8 9 7 14 23 9 31 3 17 -11z m-308 1 c3
-5 -1 -10 -9 -10 -9 0 -16 5 -16 10 0 6 4 10 9 10 6 0 13 -4 16 -10z m275 -29
c0 -5 -7 -11 -14 -14 -10 -4 -13 -1 -9 9 6 15 23 19 23 5z m43 -8 c-24 -9 -13
-20 17 -15 35 5 40 -5 8 -17 -30 -11 -62 8 -46 26 6 7 16 13 22 12 7 0 6 -2
-1 -6z m-216 -19 c-3 -3 -12 -4 -19 -1 -8 3 -5 6 6 6 11 1 17 -2 13 -5z m-30
-30 c-3 -3 -12 -4 -19 -1 -8 3 -5 6 6 6 11 1 17 -2 13 -5z m66 -23 c20 -15 34
-31 30 -34 -3 -3 -13 1 -21 10 -13 12 -17 13 -21 2 -2 -7 1 -15 7 -17 8 -2 8
-10 -1 -25 -7 -12 -12 -23 -13 -24 0 -2 -15 3 -32 9 -23 9 -32 19 -32 36 0 22
28 71 41 72 3 0 22 -13 42 -29z m98 -21 c6 0 7 -4 4 -10 -3 -5 -1 -10 4 -10 6
0 11 5 11 10 0 6 33 10 80 10 47 0 80 -4 80 -10 0 -10 -15 -14 -35 -10 -5 1
-7 -2 -2 -6 15 -15 47 -14 47 1 0 19 35 33 67 27 19 -4 23 -10 23 -42 0 -29
-5 -39 -24 -48 -19 -9 -27 -6 -49 14 -27 24 -47 31 -47 15 0 -5 -9 -11 -20
-14 -11 -3 -20 -1 -20 5 0 6 -9 8 -20 5 -11 -3 -22 -1 -25 4 -3 4 -13 5 -22 2
-12 -5 -15 -2 -10 10 5 13 1 15 -21 11 -21 -3 -31 2 -46 23 -18 24 -18 26 -2
20 10 -4 22 -7 27 -7z m319 -10 c0 -5 -4 -10 -9 -10 -6 0 -13 5 -16 10 -3 6 1
10 9 10 9 0 16 -4 16 -10z m4114 -360 c9 -49 18 -132 20 -183 3 -71 10 -115
32 -178 23 -69 29 -101 29 -179 0 -96 -14 -264 -22 -256 -12 11 -45 171 -53
252 -6 68 -16 108 -39 157 -17 36 -35 68 -40 72 -6 3 -9 40 -7 83 2 42 -1 116
-6 163 l-11 87 33 40 c18 23 36 39 40 37 5 -3 15 -45 24 -95z m-1901 -85 c-3
-9 -8 -14 -10 -11 -3 3 -2 9 2 15 9 16 15 13 8 -4z m443 6 c-10 -16 -46 -20
-46 -5 0 8 10 14 26 14 14 0 23 -4 20 -9z m-416 -25 c0 -2 -7 -7 -16 -10 -8
-3 -12 -2 -9 4 6 10 25 14 25 6z m-39 -59 c-10 -9 -11 -8 -5 6 3 10 9 15 12
12 3 -3 0 -11 -7 -18z m6 -49 c-3 -8 -6 -5 -6 6 -1 11 2 17 5 13 3 -3 4 -12 1
-19z m0 -40 c-3 -8 -6 -5 -6 6 -1 11 2 17 5 13 3 -3 4 -12 1 -19z m126 -81
c-13 -6 -41 -6 -70 -1 l-48 8 60 6 c67 6 89 1 58 -13z m2402 -1387 c-7 -11 32
-58 60 -72 14 -6 11 -1 -7 16 -16 14 -28 28 -28 31 0 10 35 4 60 -11 14 -8 17
-13 8 -10 -10 3 -18 1 -18 -4 0 -6 3 -10 8 -10 11 0 29 -49 36 -100 4 -24 11
-49 16 -56 6 -6 12 -26 14 -45 2 -18 13 -41 25 -50 23 -19 29 -35 9 -23 -7 4
-5 -2 5 -13 9 -11 17 -23 17 -27 0 -4 12 -37 26 -73 21 -52 25 -72 17 -92 -6
-18 -5 -39 5 -68 17 -51 13 -87 -10 -91 -13 -3 -18 3 -18 20 -1 17 -4 13 -15
-16 -15 -42 -35 -69 -35 -47 0 7 -4 9 -10 6 -5 -3 -10 -1 -10 5 0 7 9 14 20
17 11 3 17 10 13 16 -4 6 -6 28 -6 48 0 24 -5 40 -14 43 -8 3 -11 10 -8 16 3
5 2 10 -4 10 -16 0 -40 58 -36 88 2 15 2 21 -1 15 -3 -7 -10 -13 -15 -13 -4 0
-6 6 -4 13 5 14 -32 63 -42 54 -3 -4 -1 -12 5 -19 5 -7 12 -24 14 -38 1 -14 8
-28 13 -32 6 -5 4 -12 -5 -18 -10 -6 -11 -10 -2 -10 6 0 12 -6 12 -14 0 -7 7
-19 15 -26 8 -7 15 -23 15 -37 0 -28 -26 -83 -40 -83 -6 0 -10 -10 -10 -22 -1
-13 -8 -41 -16 -63 -8 -22 -16 -48 -17 -58 -1 -10 -9 -22 -17 -27 -10 -7 -11
-10 -2 -10 6 0 12 -4 12 -10 0 -5 -3 -9 -7 -9 -20 3 -24 -2 -13 -15 9 -11 9
-19 0 -33 -10 -17 -11 -16 -5 2 4 16 0 21 -17 22 -13 1 -18 -1 -13 -5 13 -9
18 -102 5 -102 -5 0 -7 6 -4 14 3 8 1 17 -5 21 -7 4 -11 -5 -11 -23 0 -25 -4
-29 -26 -29 -19 0 -22 2 -13 8 20 13 -18 41 -44 33 -16 -5 -19 -3 -14 10 4 9
2 16 -4 16 -14 0 -7 41 9 58 7 8 9 18 6 24 -4 6 0 14 7 19 10 6 10 9 2 9 -9 0
-7 10 6 33 10 17 17 46 16 62 -1 17 1 35 6 40 4 6 9 21 11 35 1 14 7 28 11 31
4 3 3 18 -3 34 -6 15 -8 36 -5 47 4 10 3 18 -2 17 -19 -3 -30 2 -30 16 0 10 4
12 12 5 7 -6 11 -3 11 11 0 12 -5 18 -14 14 -8 -3 -12 0 -9 7 2 7 12 12 22 10
10 -2 14 1 10 8 -4 6 -1 11 6 9 33 -4 42 1 30 15 -7 8 -22 12 -34 9 -17 -4
-19 -3 -7 6 8 5 11 13 7 17 -3 4 -13 1 -22 -6 -10 -8 -15 -9 -15 -1 0 6 -5 11
-11 11 -5 0 -7 -4 -4 -10 3 -5 0 -7 -8 -4 -7 2 -13 15 -13 27 1 16 -4 21 -17
19 -16 -3 -17 0 -7 17 6 12 7 21 1 21 -5 0 -12 -8 -16 -17 -6 -16 -8 -15 -20
7 l-14 25 -21 -47 c-11 -26 -25 -50 -30 -53 -6 -3 -10 -13 -10 -22 0 -9 -6
-24 -14 -32 -8 -9 -17 -36 -20 -60 -3 -24 -15 -59 -27 -78 -12 -19 -19 -37
-16 -40 4 -3 0 -18 -8 -33 -8 -15 -12 -43 -10 -63 2 -27 0 -34 -11 -30 -8 3
-14 1 -14 -5 0 -6 5 -12 12 -14 18 -6 -1 -28 -24 -28 -17 0 -19 4 -14 28 4 15
8 38 11 50 2 13 6 26 9 30 3 3 -8 13 -24 23 -31 19 -37 33 -20 44 5 3 7 0 4
-8 -3 -8 2 -17 12 -21 12 -4 15 -2 10 9 -6 17 5 20 20 5 6 -6 10 2 10 23 1 18
4 53 8 79 3 26 2 49 -3 53 -9 5 -13 49 -12 123 1 18 11 52 23 75 13 23 23 47
24 52 5 27 17 55 26 55 5 0 4 -8 -2 -19 -14 -27 -13 -44 3 -35 10 6 10 4 0 -7
-27 -28 -11 -38 21 -14 18 14 19 16 3 28 -15 11 -15 15 -3 37 8 14 22 39 31
56 9 17 42 59 75 93 48 50 64 61 92 62 18 0 49 11 68 24 40 27 43 29 35 15z
m155 -130 c11 -6 22 -26 26 -45 3 -20 14 -40 23 -46 14 -9 14 -10 -3 -5 -13 5
-17 2 -12 -9 9 -24 -10 -17 -28 10 -9 14 -14 25 -10 25 3 0 -1 11 -10 24 -11
17 -12 27 -5 32 8 4 7 9 -2 15 -19 12 -2 11 21 -1z m95 -80 c3 -5 1 -10 -4
-10 -6 0 -11 5 -11 10 0 6 2 10 4 10 3 0 8 -4 11 -10z m-35 -101 c0 -6 -4 -7
-10 -4 -5 3 -10 11 -10 16 0 6 5 7 10 4 6 -3 10 -11 10 -16z m97 -201 c-3 -8
-6 -5 -6 6 -1 11 2 17 5 13 3 -3 4 -12 1 -19z m0 -170 c-15 -9 -23 0 -31 37
l-7 30 25 -30 c16 -21 21 -32 13 -37z m13 52 c0 -5 -2 -10 -4 -10 -3 0 -8 5
-11 10 -3 6 -1 10 4 10 6 0 11 -4 11 -10z m-742 -130 c3 -8 -2 -10 -19 -5 -23
7 -24 7 -4 -9 11 -8 15 -16 8 -16 -14 0 -26 17 -30 42 -2 14 2 16 19 9 12 -4
24 -14 26 -21z m582 5 c0 -3 -13 -32 -30 -65 -33 -65 -34 -70 -21 -70 5 0 13
9 16 21 4 11 9 18 12 16 8 -9 -17 -47 -30 -47 -17 0 -38 -59 -28 -78 12 -22 2
-49 -21 -55 -14 -4 -19 -11 -14 -22 3 -10 2 -14 -5 -10 -6 4 -13 -2 -16 -13
-2 -11 -13 -22 -24 -25 -18 -5 -28 8 -11 15 24 10 62 98 65 151 1 9 5 17 9 17
4 0 8 9 8 20 0 33 63 150 81 150 5 0 9 -2 9 -5z m-270 -15 c0 -5 -5 -10 -11
-10 -5 0 -7 5 -4 10 3 6 8 10 11 10 2 0 4 -4 4 -10z m-365 -130 c3 -5 0 -20
-7 -32 -7 -13 -11 -26 -10 -30 1 -5 -10 -8 -24 -8 -14 0 -23 4 -19 10 4 6 10
8 15 5 4 -3 15 6 24 20 18 28 21 39 6 30 -5 -3 -10 -1 -10 4 0 14 17 14 25 1z
m333 -112 c7 -7 12 -21 12 -32 -1 -20 -1 -20 -20 3 -29 34 -22 59 8 29z m222
-37 c0 -17 -18 -21 -24 -6 -3 9 0 15 9 15 8 0 15 -4 15 -9z m-3665 -6041 c-3
-5 -14 -10 -23 -10 -15 0 -15 2 -2 10 20 13 33 13 25 0z m3445 -25 c0 -2 -10
-10 -22 -16 -21 -11 -22 -11 -9 4 13 16 31 23 31 12z m-50 -30 c0 -2 -13 -11
-30 -20 -38 -19 -40 -11 -2 9 31 17 32 18 32 11z"/>
<path d="M5485 13990 c-3 -5 -1 -10 4 -10 6 0 11 5 11 10 0 6 -2 10 -4 10 -3
0 -8 -4 -11 -10z"/>
<path d="M5465 13880 c-16 -16 -27 -32 -24 -34 2 -2 18 12 36 30 18 19 29 34
25 34 -5 0 -21 -13 -37 -30z"/>
<path d="M5662 13664 c-7 -8 -8 -14 -3 -14 10 0 25 19 20 25 -2 1 -10 -3 -17
-11z"/>
<path d="M5520 13630 c8 -5 20 -10 25 -10 6 0 3 5 -5 10 -8 5 -19 10 -25 10
-5 0 -3 -5 5 -10z"/>
<path d="M5386 13428 c-21 -29 -11 -37 15 -11 13 13 17 23 11 27 -6 3 -18 -4
-26 -16z"/>
<path d="M5470 13355 c0 -3 8 -18 19 -33 10 -15 40 -60 66 -100 26 -40 50 -70
53 -68 9 10 -8 53 -32 79 -14 15 -37 44 -53 64 -34 45 -53 67 -53 58z"/>
<path d="M5610 13081 c0 -5 5 -13 10 -16 6 -3 10 -2 10 4 0 5 -4 13 -10 16 -5
3 -10 2 -10 -4z"/>
<path d="M5590 13000 c0 -5 5 -10 10 -10 6 0 10 5 10 10 0 6 -4 10 -10 10 -5
0 -10 -4 -10 -10z"/>
<path d="M5763 12896 c11 -9 14 -15 7 -18 -8 -2 -4 -12 9 -28 l20 -25 -3 27
c-3 30 -22 58 -40 58 -6 0 -3 -7 7 -14z"/>
<path d="M5645 12850 c3 -5 8 -10 11 -10 2 0 4 5 4 10 0 6 -5 10 -11 10 -5 0
-7 -4 -4 -10z"/>
<path d="M5630 12789 c0 -5 5 -7 10 -4 6 3 10 8 10 11 0 2 -4 4 -10 4 -5 0
-10 -5 -10 -11z"/>
<path d="M4925 13550 c-3 -5 -1 -10 4 -10 6 0 11 5 11 10 0 6 -2 10 -4 10 -3
0 -8 -4 -11 -10z"/>
<path d="M5238 13003 c6 -2 18 -2 25 0 6 3 1 5 -13 5 -14 0 -19 -2 -12 -5z"/>
<path d="M5285 12989 c-16 -5 -37 -7 -45 -4 -8 2 -26 -2 -40 -10 -24 -14 -22
-14 23 -8 48 6 58 -2 35 -26 -7 -7 5 -2 27 10 22 13 41 27 43 31 2 4 10 4 18
1 7 -3 11 -10 7 -16 -3 -6 -1 -7 6 -3 36 23 -20 41 -74 25z"/>
<path d="M5200 12940 c-14 -11 -20 -20 -15 -20 6 0 21 9 35 20 14 11 21 20 15
20 -5 0 -21 -9 -35 -20z"/>
<path d="M5350 12941 c0 -6 5 -13 10 -16 6 -3 10 1 10 9 0 9 -4 16 -10 16 -5
0 -10 -4 -10 -9z"/>
<path d="M5380 12940 c0 -5 5 -10 10 -10 6 0 10 5 10 10 0 6 -4 10 -10 10 -5
0 -10 -4 -10 -10z"/>
<path d="M5400 12916 c0 -2 9 -6 20 -9 11 -3 20 -1 20 4 0 5 -9 9 -20 9 -11 0
-20 -2 -20 -4z"/>
<path d="M5370 12899 c0 -5 5 -7 10 -4 6 3 10 8 10 11 0 2 -4 4 -10 4 -5 0
-10 -5 -10 -11z"/>
<path d="M5116 12854 c-15 -14 -22 -34 -12 -34 2 0 11 11 20 25 19 28 15 33
-8 9z"/>
<path d="M5120 12799 c0 -5 5 -7 10 -4 6 3 10 8 10 11 0 2 -4 4 -10 4 -5 0
-10 -5 -10 -11z"/>
<path d="M5095 12770 c-3 -5 -1 -10 4 -10 6 0 11 5 11 10 0 6 -2 10 -4 10 -3
0 -8 -4 -11 -10z"/>
<path d="M5537 12761 c-3 -14 0 -17 14 -14 11 3 19 0 19 -8 0 -7 3 -9 7 -6 3
4 -3 16 -14 27 -20 18 -21 18 -26 1z"/>
<path d="M5071 12617 c-16 -41 -13 -57 5 -24 8 16 13 34 11 40 -3 7 -10 -1
-16 -16z"/>
<path d="M5396 12611 c-4 -5 -2 -12 3 -15 5 -4 12 -2 15 3 4 5 2 12 -3 15 -5
4 -12 2 -15 -3z"/>
<path d="M5434 12540 c1 -30 5 -50 12 -50 14 0 26 -28 18 -41 -3 -5 2 -9 10
-9 22 0 20 23 -6 56 -13 15 -17 25 -10 20 6 -4 12 -2 12 3 0 6 -4 11 -10 11
-5 0 -10 8 -10 18 0 9 -4 23 -8 30 -5 7 -8 -9 -8 -38z"/>
<path d="M5085 12570 c-3 -5 -1 -10 4 -10 6 0 11 5 11 10 0 6 -2 10 -4 10 -3
0 -8 -4 -11 -10z"/>
<path d="M5370 12570 c0 -5 5 -10 11 -10 5 0 7 5 4 10 -3 6 -8 10 -11 10 -2 0
-4 -4 -4 -10z"/>
<path d="M5153 12563 c4 -3 2 -12 -4 -20 -6 -7 -7 -13 -3 -13 5 0 15 9 22 20
10 17 10 20 -5 20 -9 0 -13 -3 -10 -7z"/>
<path d="M5287 12563 c-10 -9 -9 -43 2 -43 5 0 11 6 14 13 6 17 -7 40 -16 30z"/>
<path d="M5046 12544 c-9 -24 -2 -26 12 -4 7 11 8 20 3 20 -5 0 -12 -7 -15
-16z"/>
<path d="M5396 12518 c-8 -33 -7 -40 6 -36 12 4 19 58 7 58 -4 0 -9 -10 -13
-22z"/>
<path d="M5420 12469 c0 -5 -5 -7 -11 -3 -7 4 -10 -3 -9 -17 3 -39 1 -51 -11
-44 -6 4 -8 14 -5 22 3 8 2 11 -3 8 -5 -3 -12 3 -14 12 -4 14 -5 13 -6 -4 0
-12 4 -25 9 -28 6 -4 8 -10 5 -15 -3 -4 2 -11 11 -14 11 -4 13 -10 7 -19 -6
-6 -7 -23 -3 -37 4 -17 8 -21 14 -12 4 6 5 16 2 21 -3 5 1 26 8 47 l15 39 1
-45 c2 -43 2 -44 11 -15 9 32 3 66 -15 77 -8 6 -7 8 2 8 6 0 12 7 12 15 0 8
-4 15 -10 15 -5 0 -10 -5 -10 -11z"/>
<path d="M5135 12430 c3 -5 8 -10 11 -10 2 0 4 5 4 10 0 6 -5 10 -11 10 -5 0
-7 -4 -4 -10z"/>
<path d="M5455 12360 c-4 -16 -11 -30 -16 -30 -5 0 -9 -7 -9 -16 0 -13 4 -11
19 7 23 30 36 69 22 69 -5 0 -12 -13 -16 -30z"/>
<path d="M5410 12274 c0 -8 5 -12 10 -9 6 3 10 10 10 16 0 5 -4 9 -10 9 -5 0
-10 -7 -10 -16z"/>
<path d="M2660 10480 c0 -5 5 -10 10 -10 6 0 10 5 10 10 0 6 -4 10 -10 10 -5
0 -10 -4 -10 -10z"/>
<path d="M2734 10455 c8 -8 18 -15 22 -15 3 0 1 7 -6 15 -7 8 -17 15 -22 15
-5 0 -3 -7 6 -15z"/>
<path d="M2690 10456 c0 -2 7 -7 16 -10 8 -3 12 -2 9 4 -6 10 -25 14 -25 6z"/>
<path d="M2780 10439 c0 -5 5 -7 10 -4 6 3 10 8 10 11 0 2 -4 4 -10 4 -5 0
-10 -5 -10 -11z"/>
<path d="M2619 10383 c-13 -16 -12 -17 4 -4 9 7 17 15 17 17 0 8 -8 3 -21 -13z"/>
<path d="M2675 10386 c42 -18 58 -41 51 -71 -4 -14 -2 -25 3 -25 9 0 27 59 19
64 -25 19 -78 46 -89 46 -8 -1 0 -7 16 -14z"/>
<path d="M2618 10333 c6 -2 18 -2 25 0 6 3 1 5 -13 5 -14 0 -19 -2 -12 -5z"/>
<path d="M2677 10311 c23 -22 39 -28 28 -11 -3 5 -16 15 -28 21 l-22 11 22
-21z"/>
<path d="M2270 9955 c0 -5 5 -17 10 -25 5 -8 10 -10 10 -5 0 6 -5 17 -10 25
-5 8 -10 11 -10 5z"/>
<path d="M2370 9740 c0 -5 5 -10 10 -10 6 0 10 5 10 10 0 6 -4 10 -10 10 -5 0
-10 -4 -10 -10z"/>
<path d="M7190 7411 c0 -5 9 -7 20 -4 11 3 20 7 20 9 0 2 -9 4 -20 4 -11 0
-20 -4 -20 -9z"/>
<path d="M7157 7358 c-5 -35 2 -53 11 -29 3 8 16 25 30 38 14 13 20 23 14 23
-6 0 -14 -5 -17 -10 -5 -8 -11 -8 -20 0 -10 8 -14 3 -18 -22z"/>
<path d="M7485 7360 c3 -5 11 -10 16 -10 6 0 7 5 4 10 -3 6 -11 10 -16 10 -6
0 -7 -4 -4 -10z"/>
<path d="M7040 7343 c0 -10 4 -14 8 -8 4 6 11 13 16 18 5 4 2 7 -7 7 -10 0
-17 -8 -17 -17z"/>
<path d="M7195 7340 c4 -6 11 -7 17 -4 6 4 6 0 -1 -13 -6 -11 -7 -24 -3 -28 4
-3 8 -11 8 -16 1 -5 2 -13 3 -18 2 -15 29 -20 40 -7 8 9 5 19 -10 35 -12 12
-18 25 -15 28 9 9 -14 33 -31 33 -8 0 -11 -5 -8 -10z"/>
<path d="M7017 7333 c-11 -10 -8 -27 6 -47 12 -16 14 -16 14 -2 0 9 -4 16 -8
16 -4 0 -5 9 -2 20 5 20 2 25 -10 13z"/>
<path d="M7490 7326 c0 -8 5 -18 10 -21 6 -4 7 -12 4 -18 -5 -8 -4 -9 4 -2 6
6 9 20 6 33 -7 24 -24 30 -24 8z"/>
<path d="M7052 7321 c-7 -4 -10 -15 -6 -24 7 -18 24 -23 24 -7 0 6 -6 10 -12
10 -9 0 -8 3 2 10 8 5 12 11 9 14 -2 3 -10 1 -17 -3z"/>
<path d="M6980 7293 c-1 -33 -9 -119 -12 -132 -2 -7 3 -16 11 -19 9 -3 11 0 6
8 -4 7 -3 15 4 19 6 4 14 29 17 57 4 38 3 46 -6 34 -9 -12 -11 -9 -6 18 3 18
1 32 -4 32 -6 0 -10 -8 -10 -17z"/>
<path d="M7525 7270 c-3 -5 -1 -10 4 -10 6 0 11 5 11 10 0 6 -2 10 -4 10 -3 0
-8 -4 -11 -10z"/>
<path d="M7470 7240 c6 -11 12 -20 14 -20 2 0 2 9 -1 20 -3 11 -9 20 -15 20
-5 0 -4 -9 2 -20z"/>
<path d="M7523 7220 c1 -11 7 -20 14 -20 21 0 23 15 3 28 -16 10 -18 8 -17 -8z"/>
<path d="M7546 7185 c-19 -15 -19 -16 -2 -52 12 -23 21 -33 24 -24 2 7 0 16
-5 20 -13 8 -24 41 -15 41 5 0 13 -5 19 -11 7 -7 11 -3 11 15 0 30 -5 31 -32
11z"/>
<path d="M7315 7160 c3 -5 11 -10 16 -10 6 0 7 5 4 10 -3 6 -11 10 -16 10 -6
0 -7 -4 -4 -10z"/>
<path d="M7297 7073 c-4 -3 -7 -11 -7 -17 0 -6 5 -5 12 2 6 6 9 14 7 17 -3 3
-9 2 -12 -2z"/>
<path d="M7405 6680 c-3 -5 -2 -10 4 -10 5 0 13 5 16 10 3 6 2 10 -4 10 -5 0
-13 -4 -16 -10z"/>
<path d="M2025 14366 c-3 -9 -7 -24 -10 -33 -3 -9 -2 -37 2 -62 7 -46 7 -46
14 29 6 75 4 98 -6 66z"/>
<path d="M2850 14370 c0 -5 5 -10 10 -10 6 0 10 5 10 10 0 6 -4 10 -10 10 -5
0 -10 -4 -10 -10z"/>
<path d="M2837 14183 c-4 -3 -7 -11 -7 -17 0 -6 5 -5 12 2 6 6 9 14 7 17 -3 3
-9 2 -12 -2z"/>
<path d="M2812 14138 c-14 -14 -16 -28 -2 -28 5 0 14 9 20 20 12 22 1 27 -18
8z"/>
<path d="M2749 14063 c-13 -16 -12 -17 4 -4 16 13 21 21 13 21 -2 0 -10 -8
-17 -17z"/>
<path d="M2493 14053 c-13 -2 -23 -11 -23 -20 0 -11 5 -13 18 -8 9 4 27 10 40
12 12 3 22 9 22 14 0 9 -17 10 -57 2z"/>
<path d="M2145 10490 c-3 -6 1 -7 9 -4 18 7 21 14 7 14 -6 0 -13 -4 -16 -10z"/>
<path d="M2205 10479 c-11 -17 1 -21 15 -4 8 9 8 15 2 15 -6 0 -14 -5 -17 -11z"/>
<path d="M2210 10420 c0 -5 4 -10 9 -10 6 0 13 5 16 10 3 6 -1 10 -9 10 -9 0
-16 -4 -16 -10z"/>
<path d="M2150 10232 c0 -12 19 -26 26 -19 2 2 -2 10 -11 17 -9 8 -15 8 -15 2z"/>
<path d="M2228 10217 c12 -7 20 -15 18 -18 -3 -3 6 -6 19 -7 14 -1 25 3 25 8
0 6 -9 10 -19 10 -11 0 -23 5 -26 10 -3 6 -14 10 -23 10 -13 -1 -12 -4 6 -13z"/>
<path d="M2095 10010 c3 -5 8 -10 11 -10 2 0 4 5 4 10 0 6 -5 10 -11 10 -5 0
-7 -4 -4 -10z"/>
<path d="M5738 2333 c7 -3 16 -2 19 1 4 3 -2 6 -13 5 -11 0 -14 -3 -6 -6z"/>
</g>
</svg>
